Klei-ExtraBold.ufo
<glyph name="exclam" format="1">
  <advance width="292"/>
  <unicode hex="0021"/>
  <outline>
    <contour>
      <point x="232" y="681" type="curve" smooth="yes"/>
      <point x="211" y="239" type="line" smooth="yes"/>
      <point x="210" y="222"/>
      <point x="177" y="201"/>
      <point x="147" y="201" type="curve" smooth="yes"/>
      <point x="117" y="201"/>
      <point x="84" y="222"/>
      <point x="83" y="239" type="curve" smooth="yes"/>
      <point x="60" y="681" type="line" smooth="yes"/>
      <point x="60" y="682"/>
      <point x="60" y="682"/>
      <point x="60" y="683" type="curve" smooth="yes"/>
      <point x="60" y="716"/>
      <point x="101" y="752"/>
      <point x="146" y="752" type="curve" smooth="yes"/>
      <point x="191" y="752"/>
      <point x="232" y="716"/>
      <point x="232" y="683" type="curve" smooth="yes"/>
      <point x="232" y="682"/>
      <point x="232" y="682"/>
    </contour>
    <component base="period" xOffset="14"/>
  </outline>
</glyph>
<glyph name="numbersign" format="1">
  <advance width="735"/>
  <unicode hex="0023"/>
  <outline>
    <contour>
      <point x="333" y="3" type="curve" smooth="yes"/>
      <point x="413" y="3" type="line" smooth="yes"/>
      <point x="422" y="3"/>
      <point x="429" y="12"/>
      <point x="431" y="22" type="curve" smooth="yes"/>
      <point x="597" y="713" type="line" smooth="yes"/>
      <point x="598" y="718"/>
      <point x="598" y="718"/>
      <point x="598" y="720" type="curve" smooth="yes"/>
      <point x="598" y="732"/>
      <point x="588" y="737"/>
      <point x="581" y="737" type="curve" smooth="yes"/>
      <point x="503" y="737" type="line" smooth="yes"/>
      <point x="497" y="737"/>
      <point x="486" y="728"/>
      <point x="484" y="720" type="curve" smooth="yes"/>
      <point x="318" y="28" type="line"/>
      <point x="317" y="25"/>
      <point x="317" y="25"/>
      <point x="317" y="23" type="curve" smooth="yes"/>
      <point x="317" y="13"/>
      <point x="323" y="3"/>
    </contour>
    <contour>
      <point x="66" y="213" type="curve" smooth="yes"/>
      <point x="201" y="213" type="line"/>
      <point x="223" y="304" type="line"/>
      <point x="86" y="304" type="line" smooth="yes"/>
      <point x="77" y="304"/>
      <point x="69" y="298"/>
      <point x="66" y="289" type="curve" smooth="yes"/>
      <point x="61" y="274"/>
      <point x="49" y="230"/>
      <point x="49" y="228" type="curve" smooth="yes"/>
      <point x="49" y="217"/>
      <point x="59" y="213"/>
    </contour>
    <contour>
      <point x="268" y="213" type="line"/>
      <point x="386" y="213" type="line"/>
      <point x="408" y="304" type="line"/>
      <point x="290" y="304" type="line"/>
    </contour>
    <contour>
      <point x="148" y="3" type="curve" smooth="yes"/>
      <point x="228" y="3" type="line" smooth="yes"/>
      <point x="237" y="3"/>
      <point x="244" y="12"/>
      <point x="246" y="22" type="curve" smooth="yes"/>
      <point x="412" y="713" type="line" smooth="yes"/>
      <point x="413" y="718"/>
      <point x="413" y="718"/>
      <point x="413" y="721" type="curve" smooth="yes"/>
      <point x="413" y="733"/>
      <point x="401" y="737"/>
      <point x="396" y="737" type="curve" smooth="yes"/>
      <point x="318" y="737" type="line" smooth="yes"/>
      <point x="312" y="737"/>
      <point x="301" y="728"/>
      <point x="299" y="720" type="curve" smooth="yes"/>
      <point x="133" y="28" type="line"/>
      <point x="132" y="25"/>
      <point x="132" y="25"/>
      <point x="132" y="23" type="curve" smooth="yes"/>
      <point x="132" y="13"/>
      <point x="138" y="3"/>
    </contour>
    <contour>
      <point x="116" y="468" type="curve" smooth="yes"/>
      <point x="262" y="468" type="line"/>
      <point x="284" y="559" type="line"/>
      <point x="136" y="559" type="line" smooth="yes"/>
      <point x="127" y="559"/>
      <point x="119" y="553"/>
      <point x="116" y="544" type="curve" smooth="yes"/>
      <point x="110" y="525"/>
      <point x="99" y="486"/>
      <point x="99" y="483" type="curve" smooth="yes"/>
      <point x="99" y="472"/>
      <point x="109" y="468"/>
    </contour>
    <contour>
      <point x="453" y="213" type="line"/>
      <point x="605" y="213" type="line" smooth="yes"/>
      <point x="614" y="213"/>
      <point x="621" y="219"/>
      <point x="625" y="228" type="curve" smooth="yes"/>
      <point x="630" y="238"/>
      <point x="643" y="278"/>
      <point x="643" y="290" type="curve" smooth="yes"/>
      <point x="643" y="301"/>
      <point x="632" y="304"/>
      <point x="626" y="304" type="curve" smooth="yes"/>
      <point x="475" y="304" type="line"/>
    </contour>
    <contour>
      <point x="329" y="468" type="line"/>
      <point x="447" y="468" type="line"/>
      <point x="469" y="559" type="line"/>
      <point x="351" y="559" type="line"/>
    </contour>
    <contour>
      <point x="514" y="468" type="line"/>
      <point x="655" y="468" type="line" smooth="yes"/>
      <point x="666" y="468"/>
      <point x="672" y="478"/>
      <point x="675" y="485" type="curve" smooth="yes"/>
      <point x="679" y="495"/>
      <point x="693" y="533"/>
      <point x="693" y="545" type="curve" smooth="yes"/>
      <point x="693" y="556"/>
      <point x="682" y="559"/>
      <point x="676" y="559" type="curve" smooth="yes"/>
      <point x="536" y="559" type="line"/>
    </contour>
  </outline>
</glyph>
<glyph name="dollar" format="1">
  <advance width="600"/>
  <unicode hex="0024"/>
  <outline>
    <contour>
      <point x="273" y="-47" type="curve" smooth="yes"/>
      <point x="288" y="-47"/>
      <point x="303" y="-43"/>
      <point x="313" y="-27" type="curve"/>
      <point x="313" y="-25"/>
      <point x="313" y="-24"/>
      <point x="314" y="-17" type="curve" smooth="yes"/>
      <point x="315" y="-8"/>
      <point x="316" y="2"/>
      <point x="318" y="22" type="curve"/>
      <point x="420" y="28"/>
      <point x="549" y="61"/>
      <point x="549" y="212" type="curve" smooth="yes"/>
      <point x="549" y="284"/>
      <point x="471" y="328"/>
      <point x="397" y="369" type="curve" smooth="yes"/>
      <point x="386" y="375"/>
      <point x="375" y="381"/>
      <point x="365" y="387" type="curve"/>
      <point x="373" y="458"/>
      <point x="377" y="492"/>
      <point x="386" y="555" type="curve"/>
      <point x="410" y="545"/>
      <point x="429" y="526"/>
      <point x="442" y="510" type="curve" smooth="yes"/>
      <point x="454" y="495"/>
      <point x="465" y="485"/>
      <point x="475" y="485" type="curve" smooth="yes"/>
      <point x="496" y="485"/>
      <point x="516" y="544"/>
      <point x="516" y="554" type="curve" smooth="yes"/>
      <point x="516" y="576"/>
      <point x="449" y="599"/>
      <point x="387" y="606" type="curve"/>
      <point x="390" y="621"/>
      <point x="393" y="640"/>
      <point x="393" y="649" type="curve" smooth="yes"/>
      <point x="393" y="650" type="line" smooth="yes"/>
      <point x="392" y="665"/>
      <point x="373" y="675"/>
      <point x="357" y="675" type="curve" smooth="yes"/>
      <point x="346" y="675"/>
      <point x="325" y="674"/>
      <point x="323" y="670" type="curve" smooth="yes"/>
      <point x="321" y="653"/>
      <point x="320" y="638"/>
      <point x="319" y="619" type="curve"/>
      <point x="200" y="611"/>
      <point x="100" y="555"/>
      <point x="100" y="462" type="curve" smooth="yes"/>
      <point x="100" y="392"/>
      <point x="177" y="351"/>
      <point x="244" y="317" type="curve" smooth="yes"/>
      <point x="257" y="310"/>
      <point x="270" y="303"/>
      <point x="282" y="297" type="curve"/>
      <point x="277" y="254"/>
      <point x="274" y="230"/>
      <point x="269" y="198" type="curve" smooth="yes"/>
      <point x="265" y="170"/>
      <point x="262" y="149"/>
      <point x="257" y="108" type="curve"/>
      <point x="220" y="127"/>
      <point x="195" y="162"/>
      <point x="178" y="187" type="curve" smooth="yes"/>
      <point x="166" y="204"/>
      <point x="157" y="216"/>
      <point x="150" y="216" type="curve" smooth="yes"/>
      <point x="132" y="216"/>
      <point x="103" y="159"/>
      <point x="103" y="137" type="curve" smooth="yes"/>
      <point x="103" y="103"/>
      <point x="171" y="47"/>
      <point x="250" y="29" type="curve"/>
      <point x="248" y="6"/>
      <point x="245" y="-11"/>
      <point x="241" y="-32" type="curve" smooth="yes"/>
      <point x="241" y="-36" type="line"/>
      <point x="244" y="-38" type="line" smooth="yes"/>
      <point x="251" y="-44"/>
      <point x="262" y="-47"/>
    </contour>
    <contour>
      <point x="329" y="93" type="curve"/>
      <point x="331" y="111"/>
      <point x="334" y="131"/>
      <point x="338" y="157" type="curve" smooth="yes"/>
      <point x="343" y="188"/>
      <point x="347" y="219"/>
      <point x="352" y="260" type="curve"/>
      <point x="381" y="244"/>
      <point x="402" y="224"/>
      <point x="402" y="179" type="curve" smooth="yes"/>
      <point x="402" y="130"/>
      <point x="376" y="98"/>
    </contour>
    <contour>
      <point x="294" y="421" type="curve"/>
      <point x="265" y="434"/>
      <point x="249" y="457"/>
      <point x="249" y="491" type="curve" smooth="yes"/>
      <point x="249" y="520"/>
      <point x="266" y="562"/>
      <point x="310" y="565" type="curve"/>
      <point x="308" y="531"/>
      <point x="307" y="521"/>
      <point x="303" y="494" type="curve" smooth="yes"/>
      <point x="300" y="471"/>
      <point x="297" y="448"/>
    </contour>
  </outline>
</glyph>
<glyph name="percent" format="1">
  <advance width="984"/>
  <unicode hex="0025"/>
  <outline>
    <contour>
      <point x="305" y="-71" type="curve" smooth="yes"/>
      <point x="309" y="-71"/>
      <point x="314" y="-70"/>
      <point x="318" y="-65" type="curve"/>
      <point x="763" y="671" type="line"/>
      <point x="765" y="676"/>
      <point x="765" y="676"/>
      <point x="765" y="680" type="curve" smooth="yes"/>
      <point x="765" y="687"/>
      <point x="760" y="691"/>
      <point x="756" y="694" type="curve"/>
      <point x="696" y="719" type="line"/>
      <point x="691" y="719"/>
      <point x="685" y="715"/>
      <point x="682" y="711" type="curve" smooth="yes"/>
      <point x="238" y="-25" type="line" smooth="yes"/>
      <point x="236" y="-28"/>
      <point x="235" y="-31"/>
      <point x="235" y="-34" type="curve" smooth="yes"/>
      <point x="235" y="-40"/>
      <point x="238" y="-45"/>
      <point x="243" y="-48" type="curve" smooth="yes"/>
      <point x="250" y="-52"/>
      <point x="296" y="-71"/>
    </contour>
    <contour>
      <point x="245" y="249" type="curve" smooth="yes"/>
      <point x="355" y="249"/>
      <point x="440" y="322"/>
      <point x="440" y="449" type="curve" smooth="yes"/>
      <point x="440" y="576"/>
      <point x="355" y="649"/>
      <point x="245" y="649" type="curve" smooth="yes"/>
      <point x="137" y="649"/>
      <point x="52" y="576"/>
      <point x="52" y="449" type="curve" smooth="yes"/>
      <point x="52" y="322"/>
      <point x="137" y="249"/>
    </contour>
    <contour>
      <point x="245" y="291" type="curve" smooth="yes"/>
      <point x="213" y="291"/>
      <point x="189" y="356"/>
      <point x="189" y="449" type="curve" smooth="yes"/>
      <point x="189" y="542"/>
      <point x="213" y="607"/>
      <point x="245" y="607" type="curve" smooth="yes"/>
      <point x="276" y="607"/>
      <point x="302" y="542"/>
      <point x="302" y="449" type="curve" smooth="yes"/>
      <point x="302" y="356"/>
      <point x="276" y="291"/>
    </contour>
    <contour>
      <point x="748" y="-16" type="curve" smooth="yes"/>
      <point x="856" y="-16"/>
      <point x="941" y="57"/>
      <point x="941" y="184" type="curve" smooth="yes"/>
      <point x="941" y="311"/>
      <point x="856" y="384"/>
      <point x="748" y="384" type="curve" smooth="yes"/>
      <point x="638" y="384"/>
      <point x="552" y="311"/>
      <point x="552" y="184" type="curve" smooth="yes"/>
      <point x="552" y="57"/>
      <point x="638" y="-16"/>
    </contour>
    <contour>
      <point x="748" y="26" type="curve" smooth="yes"/>
      <point x="717" y="26"/>
      <point x="691" y="91"/>
      <point x="691" y="184" type="curve" smooth="yes"/>
      <point x="691" y="277"/>
      <point x="717" y="342"/>
      <point x="748" y="342" type="curve" smooth="yes"/>
      <point x="779" y="342"/>
      <point x="804" y="277"/>
      <point x="804" y="184" type="curve" smooth="yes"/>
      <point x="804" y="91"/>
      <point x="779" y="26"/>
    </contour>
  </outline>
</glyph>
<glyph name="ampersand" format="1">
  <advance width="882"/>
  <unicode hex="0026"/>
  <outline>
    <contour>
      <point x="731" y="-23" type="curve" smooth="yes"/>
      <point x="809" y="-23"/>
      <point x="837" y="21"/>
      <point x="850" y="60" type="curve"/>
      <point x="823" y="88" type="line"/>
      <point x="818" y="76"/>
      <point x="801" y="39"/>
      <point x="734" y="39" type="curve" smooth="yes"/>
      <point x="688" y="39"/>
      <point x="637" y="114"/>
      <point x="597" y="175" type="curve" smooth="yes"/>
      <point x="592" y="182"/>
      <point x="587" y="189"/>
      <point x="583" y="196" type="curve"/>
      <point x="593" y="211"/>
      <point x="608" y="225"/>
      <point x="624" y="239" type="curve" smooth="yes"/>
      <point x="634" y="248"/>
      <point x="648" y="260"/>
      <point x="655" y="266" type="curve" smooth="yes"/>
      <point x="669" y="278"/>
      <point x="711" y="311"/>
      <point x="725" y="320" type="curve" smooth="yes"/>
      <point x="733" y="325"/>
      <point x="741" y="330"/>
      <point x="753" y="331" type="curve" smooth="yes"/>
      <point x="760" y="331" type="line"/>
      <point x="760" y="364" type="line"/>
      <point x="570" y="364" type="line"/>
      <point x="570" y="331" type="line"/>
      <point x="577" y="331" type="line" smooth="yes"/>
      <point x="591" y="330"/>
      <point x="605" y="325"/>
      <point x="605" y="319" type="curve" smooth="yes"/>
      <point x="605" y="310"/>
      <point x="588" y="296"/>
      <point x="575" y="286" type="curve" smooth="yes"/>
      <point x="564" y="277"/>
      <point x="551" y="264"/>
      <point x="541" y="254" type="curve"/>
      <point x="518" y="284"/>
      <point x="510" y="294"/>
      <point x="456" y="348" type="curve" smooth="yes"/>
      <point x="430" y="374"/>
      <point x="428" y="376"/>
      <point x="406" y="396" type="curve"/>
      <point x="465" y="460"/>
      <point x="508" y="514"/>
      <point x="508" y="595" type="curve" smooth="yes"/>
      <point x="508" y="651"/>
      <point x="464" y="742"/>
      <point x="305" y="742" type="curve" smooth="yes"/>
      <point x="189" y="742"/>
      <point x="101" y="665"/>
      <point x="101" y="567" type="curve" smooth="yes"/>
      <point x="101" y="504"/>
      <point x="147" y="466"/>
      <point x="191" y="430" type="curve" smooth="yes"/>
      <point x="196" y="426"/>
      <point x="201" y="422"/>
      <point x="206" y="418" type="curve" smooth="yes"/>
      <point x="215" y="410"/>
      <point x="224" y="402"/>
      <point x="232" y="394" type="curve"/>
      <point x="223" y="388"/>
      <point x="212" y="381"/>
      <point x="200" y="374" type="curve" smooth="yes"/>
      <point x="130" y="331"/>
      <point x="32" y="268"/>
      <point x="32" y="175" type="curve" smooth="yes"/>
      <point x="32" y="58"/>
      <point x="152" y="-17"/>
      <point x="303" y="-17" type="curve" smooth="yes"/>
      <point x="410" y="-17"/>
      <point x="455" y="27"/>
      <point x="503" y="101" type="curve"/>
      <point x="509" y="93"/>
      <point x="534" y="64"/>
      <point x="541" y="56" type="curve" smooth="yes"/>
      <point x="585" y="6"/>
      <point x="628" y="-23"/>
    </contour>
    <contour>
      <point x="298" y="79" type="curve" smooth="yes"/>
      <point x="224" y="79"/>
      <point x="199" y="136"/>
      <point x="199" y="199" type="curve" smooth="yes"/>
      <point x="199" y="237"/>
      <point x="224" y="267"/>
      <point x="254" y="293" type="curve" smooth="yes"/>
      <point x="268" y="306"/>
      <point x="284" y="319"/>
      <point x="298" y="329" type="curve"/>
      <point x="315" y="314"/>
      <point x="329" y="300"/>
      <point x="350" y="278" type="curve" smooth="yes"/>
      <point x="391" y="235"/>
      <point x="417" y="202"/>
      <point x="441" y="168" type="curve"/>
      <point x="403" y="114"/>
      <point x="353" y="79"/>
    </contour>
    <contour>
      <point x="304" y="491" type="curve"/>
      <point x="269" y="534"/>
      <point x="256" y="578"/>
      <point x="256" y="613" type="curve" smooth="yes"/>
      <point x="256" y="646"/>
      <point x="273" y="696"/>
      <point x="313" y="696" type="curve" smooth="yes"/>
      <point x="350" y="696"/>
      <point x="371" y="665"/>
      <point x="371" y="625" type="curve" smooth="yes"/>
      <point x="371" y="591"/>
      <point x="358" y="544"/>
    </contour>
  </outline>
</glyph>
<glyph name="quotesingle" format="1">
  <advance width="225"/>
  <unicode hex="0027"/>
  <outline>
    <contour>
      <point x="103" y="493" type="curve" smooth="yes"/>
      <point x="121" y="493" type="line" smooth="yes"/>
      <point x="132" y="493"/>
      <point x="146" y="502"/>
      <point x="148" y="516" type="curve" smooth="yes"/>
      <point x="167" y="667" type="line" smooth="yes"/>
      <point x="168" y="673"/>
      <point x="168" y="673"/>
      <point x="168" y="678" type="curve" smooth="yes"/>
      <point x="168" y="704"/>
      <point x="145" y="727"/>
      <point x="112" y="727" type="curve" smooth="yes"/>
      <point x="79" y="727"/>
      <point x="57" y="704"/>
      <point x="57" y="678" type="curve" smooth="yes"/>
      <point x="57" y="673"/>
      <point x="57" y="673"/>
      <point x="58" y="667" type="curve" smooth="yes"/>
      <point x="76" y="516" type="line" smooth="yes"/>
      <point x="78" y="502"/>
      <point x="87" y="493"/>
    </contour>
  </outline>
</glyph>
<glyph name="parenleft" format="1">
  <advance width="316"/>
  <unicode hex="0028"/>
  <outline>
    <contour>
      <point x="280" y="-118" type="curve"/>
      <point x="280" y="-55" type="line"/>
      <point x="257" y="-35"/>
      <point x="178" y="51"/>
      <point x="178" y="340" type="curve" smooth="yes"/>
      <point x="178" y="629"/>
      <point x="257" y="713"/>
      <point x="280" y="735" type="curve"/>
      <point x="280" y="798" type="line"/>
      <point x="268" y="789"/>
      <point x="39" y="615"/>
      <point x="39" y="340" type="curve" smooth="yes"/>
      <point x="39" y="65"/>
      <point x="268" y="-109"/>
    </contour>
  </outline>
</glyph>
<glyph name="parenright" format="1">
  <advance width="321"/>
  <unicode hex="0029"/>
  <outline>
    <contour>
      <point x="40" y="-118" type="line"/>
      <point x="52" y="-109"/>
      <point x="281" y="65"/>
      <point x="281" y="340" type="curve" smooth="yes"/>
      <point x="281" y="615"/>
      <point x="52" y="789"/>
      <point x="40" y="798" type="curve"/>
      <point x="40" y="735" type="line"/>
      <point x="63" y="713"/>
      <point x="142" y="629"/>
      <point x="142" y="340" type="curve" smooth="yes"/>
      <point x="142" y="51"/>
      <point x="63" y="-35"/>
      <point x="40" y="-55" type="curve"/>
    </contour>
  </outline>
</glyph>
<glyph name="asterisk" format="1">
  <advance width="412"/>
  <unicode hex="002A"/>
  <outline>
    <contour>
      <point x="199" y="669" type="curve" smooth="yes"/>
      <point x="217" y="669" type="line" smooth="yes"/>
      <point x="230" y="669"/>
      <point x="239" y="659"/>
      <point x="240" y="646" type="curve" smooth="yes"/>
      <point x="248" y="557" type="line"/>
      <point x="325" y="595" type="line" smooth="yes"/>
      <point x="328" y="596"/>
      <point x="332" y="597"/>
      <point x="335" y="597" type="curve" smooth="yes"/>
      <point x="344" y="597"/>
      <point x="350" y="594"/>
      <point x="357" y="587" type="curve" smooth="yes"/>
      <point x="362" y="582"/>
      <point x="364" y="570"/>
      <point x="364" y="565" type="curve" smooth="yes"/>
      <point x="364" y="556"/>
      <point x="358" y="550"/>
      <point x="352" y="545" type="curve" smooth="yes"/>
      <point x="286" y="488" type="line"/>
      <point x="360" y="435" type="line" smooth="yes"/>
      <point x="366" y="430"/>
      <point x="372" y="425"/>
      <point x="372" y="415" type="curve" smooth="yes"/>
      <point x="372" y="409"/>
      <point x="370" y="402"/>
      <point x="365" y="393" type="curve" smooth="yes"/>
      <point x="362" y="387"/>
      <point x="354" y="380"/>
      <point x="344" y="380" type="curve" smooth="yes"/>
      <point x="340" y="380"/>
      <point x="337" y="380"/>
      <point x="334" y="382" type="curve" smooth="yes"/>
      <point x="248" y="422" type="line"/>
      <point x="243" y="333" type="line" smooth="yes"/>
      <point x="242" y="319"/>
      <point x="230" y="309"/>
      <point x="218" y="309" type="curve" smooth="yes"/>
      <point x="200" y="309" type="line" smooth="yes"/>
      <point x="188" y="309"/>
      <point x="176" y="319"/>
      <point x="175" y="333" type="curve" smooth="yes"/>
      <point x="168" y="425" type="line"/>
      <point x="80" y="382" type="line" smooth="yes"/>
      <point x="77" y="380"/>
      <point x="71" y="380"/>
      <point x="68" y="380" type="curve" smooth="yes"/>
      <point x="57" y="380"/>
      <point x="51" y="388"/>
      <point x="49" y="392" type="curve" smooth="yes"/>
      <point x="47" y="395"/>
      <point x="41" y="407"/>
      <point x="41" y="412" type="curve" smooth="yes"/>
      <point x="41" y="420"/>
      <point x="46" y="429"/>
      <point x="50" y="432" type="curve" smooth="yes"/>
      <point x="129" y="488" type="line"/>
      <point x="51" y="543" type="line" smooth="yes"/>
      <point x="42" y="549"/>
      <point x="40" y="558"/>
      <point x="40" y="565" type="curve" smooth="yes"/>
      <point x="40" y="580"/>
      <point x="55" y="597"/>
      <point x="68" y="597" type="curve" smooth="yes"/>
      <point x="71" y="597"/>
      <point x="75" y="597"/>
      <point x="80" y="595" type="curve" smooth="yes"/>
      <point x="168" y="554" type="line"/>
      <point x="175" y="646" type="line" smooth="yes"/>
      <point x="176" y="657"/>
      <point x="185" y="669"/>
    </contour>
  </outline>
</glyph>
<glyph name="plus" format="1">
  <advance width="446"/>
  <unicode hex="002B"/>
  <outline>
    <contour>
      <point x="224" y="114" type="curve" smooth="yes"/>
      <point x="235" y="114"/>
      <point x="277" y="121"/>
      <point x="282" y="134" type="curve"/>
      <point x="282" y="240" type="line"/>
      <point x="378" y="240" type="line"/>
      <point x="395" y="240"/>
      <point x="398" y="287"/>
      <point x="398" y="296" type="curve" smooth="yes"/>
      <point x="398" y="306"/>
      <point x="397" y="359"/>
      <point x="378" y="359" type="curve"/>
      <point x="283" y="359" type="line"/>
      <point x="283" y="455" type="line"/>
      <point x="279" y="457" type="line" smooth="yes"/>
      <point x="271" y="461"/>
      <point x="238" y="468"/>
      <point x="227" y="468" type="curve" smooth="yes"/>
      <point x="216" y="468"/>
      <point x="180" y="464"/>
      <point x="170" y="459" type="curve" smooth="yes"/>
      <point x="164" y="456" type="line"/>
      <point x="164" y="361" type="line"/>
      <point x="164" y="359"/>
      <point x="164" y="359"/>
      <point x="161" y="359" type="curve"/>
      <point x="71" y="359" type="line"/>
      <point x="54" y="359"/>
      <point x="48" y="314"/>
      <point x="48" y="302" type="curve" smooth="yes"/>
      <point x="48" y="289"/>
      <point x="54" y="240"/>
      <point x="69" y="240" type="curve"/>
      <point x="164" y="240" type="line"/>
      <point x="164" y="134" type="line"/>
      <point x="170" y="121"/>
      <point x="213" y="114"/>
    </contour>
  </outline>
</glyph>
<glyph name="comma" format="1">
  <advance width="233"/>
  <unicode hex="002C"/>
  <outline>
    <contour>
      <point x="29" y="-101" type="line"/>
      <point x="146" y="-101"/>
      <point x="213" y="-58"/>
      <point x="213" y="74" type="curve" smooth="yes"/>
      <point x="213" y="116"/>
      <point x="174" y="158"/>
      <point x="123" y="158" type="curve" smooth="yes"/>
      <point x="75" y="158"/>
      <point x="31" y="116"/>
      <point x="31" y="71" type="curve" smooth="yes"/>
      <point x="31" y="35"/>
      <point x="50" y="21"/>
      <point x="69" y="7" type="curve" smooth="yes"/>
      <point x="74" y="3"/>
      <point x="79" y="-1"/>
      <point x="84" y="-5" type="curve" smooth="yes"/>
      <point x="90" y="-11"/>
      <point x="92" y="-16"/>
      <point x="92" y="-21" type="curve" smooth="yes"/>
      <point x="92" y="-56"/>
      <point x="38" y="-67"/>
      <point x="7" y="-67" type="curve"/>
    </contour>
  </outline>
</glyph>
<glyph name="hyphen" format="1">
  <advance width="428"/>
  <unicode hex="002D"/>
  <outline>
    <contour>
      <point x="77" y="246" type="curve" smooth="yes"/>
      <point x="351" y="246" type="line" smooth="yes"/>
      <point x="367" y="246"/>
      <point x="373" y="275"/>
      <point x="373" y="298" type="curve" smooth="yes"/>
      <point x="373" y="321"/>
      <point x="367" y="350"/>
      <point x="351" y="350" type="curve" smooth="yes"/>
      <point x="79" y="350" type="line" smooth="yes"/>
      <point x="64" y="350"/>
      <point x="55" y="321"/>
      <point x="55" y="298" type="curve" smooth="yes"/>
      <point x="55" y="275"/>
      <point x="64" y="246"/>
    </contour>
  </outline>
</glyph>
<glyph name="period" format="1">
  <advance width="268"/>
  <unicode hex="002E"/>
  <outline>
    <contour>
      <point x="132" y="-18" type="curve" smooth="yes"/>
      <point x="185" y="-18"/>
      <point x="229" y="24"/>
      <point x="229" y="76" type="curve" smooth="yes"/>
      <point x="229" y="128"/>
      <point x="185" y="171"/>
      <point x="132" y="171" type="curve" smooth="yes"/>
      <point x="79" y="171"/>
      <point x="35" y="128"/>
      <point x="35" y="76" type="curve" smooth="yes"/>
      <point x="35" y="24"/>
      <point x="79" y="-18"/>
    </contour>
    <contour>
      <point x="130" y="217" type="move" name="_bottom"/>
    </contour>
  </outline>
</glyph>
<glyph name="slash" format="1">
  <advance width="447"/>
  <unicode hex="002F"/>
  <outline>
    <contour>
      <point x="40" y="-108" type="curve"/>
      <point x="54" y="-103" type="line" smooth="yes"/>
      <point x="63" y="-100"/>
      <point x="77" y="-98"/>
      <point x="93" y="-97" type="curve" smooth="yes"/>
      <point x="130" y="-95"/>
      <point x="176" y="-92"/>
      <point x="187" y="-54" type="curve" smooth="yes"/>
      <point x="191" y="-39"/>
      <point x="333" y="423"/>
      <point x="421" y="670" type="curve"/>
      <point x="421" y="672" type="line" smooth="yes"/>
      <point x="421" y="689"/>
      <point x="376" y="703"/>
      <point x="360" y="703" type="curve" smooth="yes"/>
      <point x="346" y="703"/>
      <point x="312" y="692"/>
      <point x="294" y="678" type="curve" smooth="yes"/>
      <point x="293" y="677"/>
      <point x="291" y="675"/>
      <point x="291" y="674" type="curve" smooth="yes"/>
      <point x="210" y="386"/>
      <point x="137" y="158"/>
    </contour>
  </outline>
</glyph>
<glyph name="zero" format="1">
  <advance width="542"/>
  <unicode hex="0030"/>
  <outline>
    <contour>
      <point x="276" y="-7" type="curve" smooth="yes"/>
      <point x="427" y="-7"/>
      <point x="522" y="130"/>
      <point x="522" y="317" type="curve" smooth="yes"/>
      <point x="522" y="504"/>
      <point x="427" y="640"/>
      <point x="276" y="640" type="curve" smooth="yes"/>
      <point x="126" y="640"/>
      <point x="30" y="504"/>
      <point x="30" y="317" type="curve" smooth="yes"/>
      <point x="30" y="130"/>
      <point x="125" y="-7"/>
    </contour>
    <contour>
      <point x="276" y="62" type="curve" smooth="yes"/>
      <point x="225" y="62"/>
      <point x="188" y="164"/>
      <point x="188" y="316" type="curve" smooth="yes"/>
      <point x="188" y="468"/>
      <point x="225" y="572"/>
      <point x="276" y="572" type="curve" smooth="yes"/>
      <point x="327" y="572"/>
      <point x="364" y="468"/>
      <point x="364" y="316" type="curve" smooth="yes"/>
      <point x="364" y="164"/>
      <point x="327" y="62"/>
    </contour>
  </outline>
</glyph>
<glyph name="one" format="1">
  <advance width="550"/>
  <unicode hex="0031"/>
  <outline>
    <contour>
      <point x="176" y="0" type="line"/>
      <point x="414" y="0" type="line"/>
      <point x="414" y="34" type="line"/>
      <point x="407" y="34" type="line" smooth="yes"/>
      <point x="388" y="34"/>
      <point x="378" y="46"/>
      <point x="378" y="58" type="curve" smooth="yes"/>
      <point x="378" y="627" type="line" smooth="yes"/>
      <point x="378" y="638"/>
      <point x="370" y="644"/>
      <point x="360" y="644" type="curve" smooth="yes"/>
      <point x="353" y="644"/>
      <point x="346" y="640"/>
      <point x="342" y="637" type="curve" smooth="yes"/>
      <point x="310" y="613"/>
      <point x="208" y="575"/>
      <point x="171" y="562" type="curve"/>
      <point x="171" y="519" type="line"/>
      <point x="177" y="522"/>
      <point x="189" y="527"/>
      <point x="200" y="527" type="curve" smooth="yes"/>
      <point x="211" y="527"/>
      <point x="212" y="505"/>
      <point x="212" y="487" type="curve" smooth="yes"/>
      <point x="212" y="58" type="line" smooth="yes"/>
      <point x="212" y="47"/>
      <point x="203" y="34"/>
      <point x="183" y="34" type="curve" smooth="yes"/>
      <point x="176" y="34" type="line"/>
    </contour>
  </outline>
</glyph>
<glyph name="two" format="1">
  <advance width="550"/>
  <unicode hex="0032"/>
  <outline>
    <contour>
      <point x="51" y="0" type="line"/>
      <point x="461" y="0" type="line"/>
      <point x="504" y="116" type="line"/>
      <point x="474" y="121" type="line"/>
      <point x="472" y="115" type="line" smooth="yes"/>
      <point x="462" y="86"/>
      <point x="438" y="68"/>
      <point x="390" y="68" type="curve" smooth="yes"/>
      <point x="252" y="68" type="line"/>
      <point x="271" y="91"/>
      <point x="299" y="129"/>
      <point x="332" y="174" type="curve" smooth="yes"/>
      <point x="356" y="207"/>
      <point x="383" y="244"/>
      <point x="410" y="280" type="curve" smooth="yes"/>
      <point x="490" y="386"/>
      <point x="497" y="441"/>
      <point x="497" y="501" type="curve" smooth="yes"/>
      <point x="497" y="584"/>
      <point x="423" y="642"/>
      <point x="287" y="642" type="curve" smooth="yes"/>
      <point x="144" y="642"/>
      <point x="104" y="540"/>
      <point x="101" y="532" type="curve"/>
      <point x="129" y="508" type="line"/>
      <point x="161" y="549"/>
      <point x="214" y="587"/>
      <point x="263" y="587" type="curve" smooth="yes"/>
      <point x="316" y="587"/>
      <point x="341" y="546"/>
      <point x="341" y="491" type="curve" smooth="yes"/>
      <point x="341" y="451"/>
      <point x="310" y="394"/>
      <point x="274" y="344" type="curve" smooth="yes"/>
      <point x="259" y="324"/>
      <point x="244" y="302"/>
      <point x="228" y="278" type="curve" smooth="yes"/>
      <point x="182" y="211"/>
      <point x="127" y="131"/>
      <point x="51" y="43" type="curve"/>
    </contour>
  </outline>
</glyph>
<glyph name="three" format="1">
  <advance width="550"/>
  <unicode hex="0033"/>
  <outline>
    <contour>
      <point x="85" y="506" type="curve"/>
      <point x="55" y="529" type="line"/>
      <point x="57" y="533"/>
      <point x="131" y="640"/>
      <point x="268" y="640" type="curve" smooth="yes"/>
      <point x="379" y="640"/>
      <point x="454" y="600"/>
      <point x="454" y="537" type="curve" smooth="yes"/>
      <point x="454" y="488"/>
      <point x="389" y="443"/>
      <point x="332" y="404" type="curve" smooth="yes"/>
      <point x="320" y="396"/>
      <point x="309" y="388"/>
      <point x="298" y="380" type="curve"/>
      <point x="394" y="371"/>
      <point x="506" y="297"/>
      <point x="506" y="198" type="curve" smooth="yes"/>
      <point x="506" y="62"/>
      <point x="379" y="-7"/>
      <point x="224" y="-7" type="curve" smooth="yes"/>
      <point x="147" y="-7"/>
      <point x="47" y="12"/>
      <point x="47" y="62" type="curve" smooth="yes"/>
      <point x="47" y="76"/>
      <point x="57" y="97"/>
      <point x="74" y="97" type="curve" smooth="yes"/>
      <point x="89" y="97"/>
      <point x="104" y="91"/>
      <point x="117" y="79" type="curve" smooth="yes"/>
      <point x="133" y="64"/>
      <point x="171" y="29"/>
      <point x="214" y="29" type="curve" smooth="yes"/>
      <point x="293" y="29"/>
      <point x="342" y="102"/>
      <point x="342" y="173" type="curve" smooth="yes"/>
      <point x="342" y="270"/>
      <point x="272" y="311"/>
      <point x="208" y="311" type="curve" smooth="yes"/>
      <point x="185" y="311"/>
      <point x="164" y="301"/>
      <point x="149" y="292" type="curve" smooth="yes"/>
      <point x="137" y="285"/>
      <point x="130" y="281"/>
      <point x="124" y="281" type="curve" smooth="yes"/>
      <point x="115" y="281"/>
      <point x="104" y="286"/>
      <point x="104" y="296" type="curve" smooth="yes"/>
      <point x="104" y="301"/>
      <point x="110" y="310"/>
      <point x="116" y="314" type="curve" smooth="yes"/>
      <point x="122" y="318"/>
      <point x="280" y="443"/>
      <point x="280" y="516" type="curve" smooth="yes"/>
      <point x="280" y="562"/>
      <point x="264" y="584"/>
      <point x="216" y="584" type="curve" smooth="yes"/>
      <point x="162" y="584"/>
      <point x="119" y="550"/>
    </contour>
  </outline>
</glyph>
<glyph name="four" format="1">
  <advance width="550"/>
  <unicode hex="0034"/>
  <outline>
    <contour>
      <point x="292" y="0" type="curve" smooth="yes"/>
      <point x="421" y="0" type="line" smooth="yes"/>
      <point x="431" y="0"/>
      <point x="434" y="9"/>
      <point x="434" y="15" type="curve" smooth="yes"/>
      <point x="434" y="299" type="line"/>
      <point x="436" y="306" type="line"/>
      <point x="436" y="617" type="line" smooth="yes"/>
      <point x="436" y="635"/>
      <point x="420" y="642"/>
      <point x="407" y="642" type="curve" smooth="yes"/>
      <point x="394" y="642"/>
      <point x="324" y="641"/>
      <point x="311" y="638" type="curve" smooth="yes"/>
      <point x="308" y="637"/>
      <point x="274" y="594"/>
      <point x="229" y="537" type="curve" smooth="yes"/>
      <point x="216" y="521"/>
      <point x="202" y="503"/>
      <point x="188" y="485" type="curve" smooth="yes"/>
      <point x="138" y="421"/>
      <point x="83" y="351"/>
      <point x="43" y="301" type="curve" smooth="yes"/>
      <point x="39" y="296"/>
      <point x="37" y="291"/>
      <point x="37" y="285" type="curve" smooth="yes"/>
      <point x="37" y="276"/>
      <point x="45" y="271"/>
      <point x="52" y="271" type="curve" smooth="yes"/>
      <point x="294" y="271" type="line"/>
      <point x="294" y="333" type="line"/>
      <point x="157" y="333" type="line"/>
      <point x="210" y="393"/>
      <point x="243" y="440"/>
      <point x="299" y="519" type="curve"/>
      <point x="278" y="534" type="line"/>
      <point x="278" y="298" type="line"/>
      <point x="277" y="299" type="line"/>
      <point x="277" y="13" type="line" smooth="yes"/>
      <point x="277" y="7"/>
      <point x="282" y="0"/>
    </contour>
    <contour>
      <point x="418" y="271" type="line"/>
      <point x="508" y="271" type="line"/>
      <point x="507" y="279"/>
      <point x="506" y="288"/>
      <point x="506" y="299" type="curve" smooth="yes"/>
      <point x="506" y="308"/>
      <point x="507" y="331"/>
      <point x="510" y="342" type="curve"/>
      <point x="487" y="336"/>
      <point x="468" y="332"/>
      <point x="409" y="334" type="curve"/>
    </contour>
  </outline>
</glyph>
<glyph name="five" format="1">
  <advance width="550"/>
  <unicode hex="0035"/>
  <outline>
    <contour>
      <point x="235" y="-5" type="curve" smooth="yes"/>
      <point x="389" y="-5"/>
      <point x="508" y="80"/>
      <point x="508" y="210" type="curve" smooth="yes"/>
      <point x="508" y="356"/>
      <point x="392" y="420"/>
      <point x="272" y="420" type="curve" smooth="yes"/>
      <point x="216" y="420"/>
      <point x="178" y="409"/>
      <point x="116" y="375" type="curve"/>
      <point x="138" y="348" type="line"/>
      <point x="197" y="583" type="line"/>
      <point x="141" y="539" type="line"/>
      <point x="447" y="539" type="line"/>
      <point x="453" y="554"/>
      <point x="469" y="595"/>
      <point x="469" y="604" type="curve" smooth="yes"/>
      <point x="469" y="616"/>
      <point x="457" y="618"/>
      <point x="450" y="618" type="curve" smooth="yes"/>
      <point x="442" y="618"/>
      <point x="433" y="617"/>
      <point x="424" y="615" type="curve" smooth="yes"/>
      <point x="413" y="613"/>
      <point x="400" y="611"/>
      <point x="388" y="611" type="curve" smooth="yes"/>
      <point x="125" y="611" type="line"/>
      <point x="41" y="254" type="line"/>
      <point x="98" y="290"/>
      <point x="176" y="312"/>
      <point x="226" y="312" type="curve" smooth="yes"/>
      <point x="311" y="312"/>
      <point x="346" y="249"/>
      <point x="346" y="190" type="curve" smooth="yes"/>
      <point x="346" y="134"/>
      <point x="306" y="43"/>
      <point x="217" y="43" type="curve" smooth="yes"/>
      <point x="176" y="43"/>
      <point x="123" y="52"/>
      <point x="93" y="82" type="curve" smooth="yes"/>
      <point x="89" y="86"/>
      <point x="84" y="88"/>
      <point x="79" y="88" type="curve" smooth="yes"/>
      <point x="71" y="88"/>
      <point x="62" y="82"/>
      <point x="62" y="71" type="curve" smooth="yes"/>
      <point x="62" y="67"/>
      <point x="66" y="59"/>
      <point x="69" y="55" type="curve" smooth="yes"/>
      <point x="120" y="3"/>
      <point x="167" y="-5"/>
    </contour>
  </outline>
</glyph>
<glyph name="six" format="1">
  <advance width="550"/>
  <unicode hex="0036"/>
  <outline>
    <contour>
      <point x="312" y="-8" type="curve" smooth="yes"/>
      <point x="446" y="-8"/>
      <point x="531" y="85"/>
      <point x="531" y="207" type="curve" smooth="yes"/>
      <point x="531" y="364"/>
      <point x="449" y="399"/>
      <point x="351" y="399" type="curve" smooth="yes"/>
      <point x="293" y="399"/>
      <point x="243" y="358"/>
      <point x="223" y="331" type="curve"/>
      <point x="220" y="327"/>
      <point x="219" y="323"/>
      <point x="219" y="318" type="curve" smooth="yes"/>
      <point x="219" y="313"/>
      <point x="221" y="300"/>
      <point x="231" y="300" type="curve" smooth="yes"/>
      <point x="235" y="300"/>
      <point x="240" y="302"/>
      <point x="245" y="307" type="curve"/>
      <point x="265" y="327"/>
      <point x="279" y="332"/>
      <point x="304" y="332" type="curve" smooth="yes"/>
      <point x="331" y="332"/>
      <point x="384" y="291"/>
      <point x="384" y="195" type="curve" smooth="yes"/>
      <point x="384" y="95"/>
      <point x="352" y="36"/>
      <point x="307" y="36" type="curve" smooth="yes"/>
      <point x="237" y="36"/>
      <point x="185" y="160"/>
      <point x="185" y="260" type="curve" smooth="yes"/>
      <point x="185" y="374"/>
      <point x="216" y="463"/>
      <point x="301" y="524" type="curve" smooth="yes"/>
      <point x="351" y="560"/>
      <point x="404" y="577"/>
      <point x="439" y="587" type="curve" smooth="yes"/>
      <point x="449" y="590"/>
      <point x="459" y="597"/>
      <point x="459" y="604" type="curve" smooth="yes"/>
      <point x="459" y="612"/>
      <point x="455" y="625"/>
      <point x="452" y="633" type="curve" smooth="yes"/>
      <point x="450" y="638" type="line"/>
      <point x="437" y="636" type="line" smooth="yes"/>
      <point x="386" y="628"/>
      <point x="286" y="605"/>
      <point x="228" y="570" type="curve" smooth="yes"/>
      <point x="154" y="526"/>
      <point x="22" y="440"/>
      <point x="22" y="252" type="curve" smooth="yes"/>
      <point x="22" y="65"/>
      <point x="160" y="-8"/>
    </contour>
  </outline>
</glyph>
<glyph name="seven" format="1">
  <advance width="550"/>
  <unicode hex="0037"/>
  <outline>
    <contour>
      <point x="72" y="0" type="curve"/>
      <point x="238" y="0" type="line"/>
      <point x="266" y="169"/>
      <point x="371" y="409"/>
      <point x="495" y="595" type="curve" smooth="yes"/>
      <point x="499" y="601" type="line"/>
      <point x="502" y="605"/>
      <point x="505" y="611"/>
      <point x="505" y="614" type="curve" smooth="yes"/>
      <point x="505" y="619"/>
      <point x="500" y="622"/>
      <point x="488" y="622" type="curve" smooth="yes"/>
      <point x="80" y="622" type="line" smooth="yes"/>
      <point x="71" y="622"/>
      <point x="69" y="615"/>
      <point x="67" y="608" type="curve" smooth="yes"/>
      <point x="60" y="581"/>
      <point x="56" y="553"/>
      <point x="56" y="535" type="curve" smooth="yes"/>
      <point x="56" y="532"/>
      <point x="59" y="528"/>
      <point x="65" y="528" type="curve" smooth="yes"/>
      <point x="70" y="528" type="line"/>
      <point x="72" y="532"/>
      <point x="78" y="544"/>
      <point x="94" y="544" type="curve" smooth="yes"/>
      <point x="330" y="544" type="line"/>
      <point x="218" y="394"/>
      <point x="97" y="165"/>
    </contour>
  </outline>
</glyph>
<glyph name="eight" format="1">
  <advance width="550"/>
  <unicode hex="0038"/>
  <outline>
    <contour>
      <point x="279" y="-8" type="curve" smooth="yes"/>
      <point x="418" y="-8"/>
      <point x="516" y="56"/>
      <point x="516" y="147" type="curve" smooth="yes"/>
      <point x="516" y="249"/>
      <point x="444" y="300"/>
      <point x="367" y="354" type="curve" smooth="yes"/>
      <point x="350" y="366" type="line"/>
      <point x="393" y="396" type="line" smooth="yes"/>
      <point x="435" y="425"/>
      <point x="484" y="459"/>
      <point x="484" y="508" type="curve" smooth="yes"/>
      <point x="484" y="598"/>
      <point x="389" y="643"/>
      <point x="280" y="643" type="curve" smooth="yes"/>
      <point x="123" y="643"/>
      <point x="70" y="563"/>
      <point x="70" y="510" type="curve" smooth="yes"/>
      <point x="70" y="429"/>
      <point x="120" y="392"/>
      <point x="173" y="353" type="curve" smooth="yes"/>
      <point x="190" y="340" type="line"/>
      <point x="158" y="316" type="line" smooth="yes"/>
      <point x="93" y="268"/>
      <point x="38" y="227"/>
      <point x="38" y="150" type="curve" smooth="yes"/>
      <point x="38" y="41"/>
      <point x="160" y="-8"/>
    </contour>
    <contour>
      <point x="286" y="35" type="curve" smooth="yes"/>
      <point x="235" y="35"/>
      <point x="196" y="83"/>
      <point x="196" y="148" type="curve" smooth="yes"/>
      <point x="196" y="195"/>
      <point x="219" y="239"/>
      <point x="264" y="281" type="curve"/>
      <point x="310" y="250"/>
      <point x="364" y="192"/>
      <point x="364" y="142" type="curve" smooth="yes"/>
      <point x="364" y="97"/>
      <point x="336" y="35"/>
    </contour>
    <contour>
      <point x="285" y="421" type="curve"/>
      <point x="247" y="442"/>
      <point x="220" y="480"/>
      <point x="220" y="516" type="curve" smooth="yes"/>
      <point x="220" y="556"/>
      <point x="238" y="604"/>
      <point x="280" y="604" type="curve" smooth="yes"/>
      <point x="322" y="604"/>
      <point x="347" y="577"/>
      <point x="347" y="518" type="curve" smooth="yes"/>
      <point x="347" y="476"/>
      <point x="313" y="442"/>
    </contour>
  </outline>
</glyph>
<glyph name="nine" format="1">
  <advance width="550"/>
  <unicode hex="0039"/>
  <outline>
    <contour>
      <point x="128" y="-9" type="curve"/>
      <point x="181" y="5"/>
      <point x="268" y="43"/>
      <point x="332" y="82" type="curve" smooth="yes"/>
      <point x="406" y="127"/>
      <point x="524" y="201"/>
      <point x="524" y="380" type="curve" smooth="yes"/>
      <point x="524" y="583"/>
      <point x="409" y="641"/>
      <point x="256" y="641" type="curve" smooth="yes"/>
      <point x="136" y="641"/>
      <point x="30" y="559"/>
      <point x="30" y="445" type="curve" smooth="yes"/>
      <point x="30" y="299"/>
      <point x="106" y="234"/>
      <point x="220" y="234" type="curve" smooth="yes"/>
      <point x="258" y="234"/>
      <point x="311" y="256"/>
      <point x="337" y="294" type="curve" smooth="yes"/>
      <point x="341" y="300"/>
      <point x="344" y="313"/>
      <point x="344" y="318" type="curve" smooth="yes"/>
      <point x="344" y="325"/>
      <point x="335" y="330"/>
      <point x="329" y="330" type="curve" smooth="yes"/>
      <point x="324" y="330"/>
      <point x="319" y="327"/>
      <point x="315" y="323" type="curve"/>
      <point x="314" y="322" type="line" smooth="yes"/>
      <point x="306" y="313"/>
      <point x="280" y="306"/>
      <point x="254" y="306" type="curve" smooth="yes"/>
      <point x="208" y="306"/>
      <point x="190" y="384"/>
      <point x="190" y="457" type="curve" smooth="yes"/>
      <point x="190" y="536"/>
      <point x="234" y="597"/>
      <point x="264" y="597" type="curve" smooth="yes"/>
      <point x="327" y="597"/>
      <point x="380" y="560"/>
      <point x="380" y="392" type="curve" smooth="yes"/>
      <point x="380" y="252"/>
      <point x="369" y="194"/>
      <point x="264" y="121" type="curve" smooth="yes"/>
      <point x="207" y="82"/>
      <point x="158" y="58"/>
      <point x="124" y="44" type="curve" smooth="yes"/>
      <point x="114" y="40"/>
      <point x="111" y="26"/>
      <point x="111" y="18" type="curve" smooth="yes"/>
      <point x="111" y="10"/>
      <point x="120" y="-3"/>
    </contour>
  </outline>
</glyph>
<glyph name="less" format="1">
  <advance width="600"/>
  <unicode hex="003C"/>
  <outline>
    <contour>
      <point x="501" y="62" type="line"/>
      <point x="501" y="186" type="line"/>
      <point x="218" y="346" type="line"/>
      <point x="218" y="302" type="line"/>
      <point x="501" y="462" type="line"/>
      <point x="501" y="582" type="line"/>
      <point x="99" y="354" type="line"/>
      <point x="99" y="290" type="line"/>
    </contour>
  </outline>
</glyph>
<glyph name="equal" format="1">
  <advance width="410"/>
  <unicode hex="003D"/>
  <outline>
    <contour>
      <point x="79" y="320" type="curve" smooth="yes"/>
      <point x="330" y="320" type="line" smooth="yes"/>
      <point x="344" y="320"/>
      <point x="350" y="349"/>
      <point x="350" y="366" type="curve" smooth="yes"/>
      <point x="350" y="384"/>
      <point x="345" y="414"/>
      <point x="330" y="414" type="curve" smooth="yes"/>
      <point x="81" y="414" type="line" smooth="yes"/>
      <point x="67" y="414"/>
      <point x="60" y="388"/>
      <point x="60" y="368" type="curve" smooth="yes"/>
      <point x="60" y="347"/>
      <point x="67" y="320"/>
    </contour>
    <contour>
      <point x="79" y="179" type="curve" smooth="yes"/>
      <point x="330" y="179" type="line" smooth="yes"/>
      <point x="344" y="179"/>
      <point x="350" y="208"/>
      <point x="350" y="225" type="curve" smooth="yes"/>
      <point x="350" y="243"/>
      <point x="345" y="273"/>
      <point x="330" y="273" type="curve" smooth="yes"/>
      <point x="81" y="273" type="line" smooth="yes"/>
      <point x="67" y="273"/>
      <point x="60" y="247"/>
      <point x="60" y="227" type="curve" smooth="yes"/>
      <point x="60" y="206"/>
      <point x="67" y="179"/>
    </contour>
  </outline>
</glyph>
<glyph name="greater" format="1">
  <advance width="504"/>
  <unicode hex="003E"/>
  <outline>
    <contour>
      <point x="52" y="62" type="line"/>
      <point x="454" y="290" type="line"/>
      <point x="454" y="354" type="line"/>
      <point x="52" y="582" type="line"/>
      <point x="52" y="462" type="line"/>
      <point x="335" y="302" type="line"/>
      <point x="335" y="346" type="line"/>
      <point x="52" y="186" type="line"/>
    </contour>
  </outline>
</glyph>
<glyph name="question" format="1">
  <advance width="525"/>
  <unicode hex="003F"/>
  <outline>
    <contour>
      <point x="206" y="213" type="line"/>
      <point x="308" y="213" type="line"/>
      <point x="308" y="220" type="line" smooth="yes"/>
      <point x="308" y="229"/>
      <point x="315" y="299"/>
      <point x="320" y="349" type="curve"/>
      <point x="321" y="360"/>
      <point x="369" y="399"/>
      <point x="405" y="426" type="curve" smooth="yes"/>
      <point x="461" y="468"/>
      <point x="488" y="510"/>
      <point x="488" y="569" type="curve" smooth="yes"/>
      <point x="488" y="683"/>
      <point x="353" y="742"/>
      <point x="265" y="742" type="curve" smooth="yes"/>
      <point x="188" y="742"/>
      <point x="64" y="704"/>
      <point x="64" y="625" type="curve" smooth="yes"/>
      <point x="64" y="592"/>
      <point x="93" y="564"/>
      <point x="127" y="564" type="curve" smooth="yes"/>
      <point x="159" y="564"/>
      <point x="184" y="600"/>
      <point x="190" y="626" type="curve" smooth="yes"/>
      <point x="194" y="645"/>
      <point x="221" y="682"/>
      <point x="261" y="682" type="curve" smooth="yes"/>
      <point x="302" y="682"/>
      <point x="338" y="655"/>
      <point x="338" y="593" type="curve" smooth="yes"/>
      <point x="338" y="536"/>
      <point x="326" y="505"/>
      <point x="276" y="465" type="curve" smooth="yes"/>
      <point x="239" y="435"/>
      <point x="190" y="395"/>
      <point x="190" y="341" type="curve" smooth="yes"/>
      <point x="190" y="340" type="line" smooth="yes"/>
      <point x="190" y="308"/>
      <point x="199" y="253"/>
      <point x="205" y="219" type="curve" smooth="yes"/>
    </contour>
    <component base="period" xOffset="123"/>
  </outline>
</glyph>
<glyph name="at" format="1">
  <advance width="896"/>
  <unicode hex="0040"/>
  <outline>
    <contour>
      <point x="471" y="-67" type="curve" smooth="yes"/>
      <point x="633" y="-67"/>
      <point x="694" y="-10"/>
      <point x="728" y="24" type="curve" smooth="yes"/>
      <point x="731" y="27"/>
      <point x="733" y="29"/>
      <point x="733" y="33" type="curve" smooth="yes"/>
      <point x="733" y="40"/>
      <point x="722" y="50"/>
      <point x="717" y="50" type="curve" smooth="yes"/>
      <point x="714" y="50" type="line"/>
      <point x="712" y="48" type="line" smooth="yes"/>
      <point x="680" y="19"/>
      <point x="594" y="-17"/>
      <point x="471" y="-17" type="curve" smooth="yes"/>
      <point x="351" y="-17"/>
      <point x="187" y="48"/>
      <point x="187" y="211" type="curve" smooth="yes"/>
      <point x="187" y="364"/>
      <point x="332" y="464"/>
      <point x="485" y="464" type="curve" smooth="yes"/>
      <point x="641" y="464"/>
      <point x="728" y="396"/>
      <point x="728" y="253" type="curve" smooth="yes"/>
      <point x="728" y="181"/>
      <point x="685" y="105"/>
      <point x="639" y="105" type="curve" smooth="yes"/>
      <point x="612" y="105"/>
      <point x="601" y="118"/>
      <point x="599" y="131" type="curve"/>
      <point x="631" y="294" type="line" smooth="yes"/>
      <point x="637" y="327"/>
      <point x="641" y="344"/>
      <point x="646" y="362" type="curve" smooth="yes"/>
      <point x="648" y="367" type="line"/>
      <point x="645" y="370" type="line" smooth="yes"/>
      <point x="638" y="377"/>
      <point x="601" y="385"/>
      <point x="587" y="385" type="curve" smooth="yes"/>
      <point x="584" y="385" type="line"/>
      <point x="582" y="383" type="line" smooth="yes"/>
      <point x="579" y="379"/>
      <point x="571" y="373"/>
      <point x="564" y="373" type="curve" smooth="yes"/>
      <point x="562" y="373"/>
      <point x="555" y="375"/>
      <point x="550" y="377" type="curve" smooth="yes"/>
      <point x="535" y="383"/>
      <point x="512" y="390"/>
      <point x="492" y="390" type="curve" smooth="yes"/>
      <point x="392" y="390"/>
      <point x="247" y="345"/>
      <point x="247" y="190" type="curve" smooth="yes"/>
      <point x="247" y="107"/>
      <point x="335" y="56"/>
      <point x="414" y="56" type="curve" smooth="yes"/>
      <point x="455" y="56"/>
      <point x="484" y="74"/>
      <point x="500" y="84" type="curve" smooth="yes"/>
      <point x="506" y="88"/>
      <point x="510" y="90"/>
      <point x="513" y="91" type="curve"/>
      <point x="516" y="86"/>
      <point x="548" y="56"/>
      <point x="589" y="56" type="curve" smooth="yes"/>
      <point x="717" y="56"/>
      <point x="849" y="124"/>
      <point x="849" y="256" type="curve" smooth="yes"/>
      <point x="849" y="439"/>
      <point x="667" y="510"/>
      <point x="502" y="510" type="curve" smooth="yes"/>
      <point x="266" y="510"/>
      <point x="49" y="402"/>
      <point x="49" y="211" type="curve" smooth="yes"/>
      <point x="49" y="-19"/>
      <point x="325" y="-67"/>
    </contour>
    <contour>
      <point x="444" y="120" type="curve" smooth="yes"/>
      <point x="397" y="120"/>
      <point x="384" y="169"/>
      <point x="384" y="203" type="curve" smooth="yes"/>
      <point x="384" y="276"/>
      <point x="438" y="338"/>
      <point x="482" y="338" type="curve" smooth="yes"/>
      <point x="513" y="338"/>
      <point x="530" y="318"/>
      <point x="530" y="296" type="curve"/>
      <point x="500" y="165" type="line" smooth="yes"/>
      <point x="495" y="143"/>
      <point x="477" y="120"/>
    </contour>
  </outline>
</glyph>
<glyph name="A" format="1">
  <advance width="885"/>
  <unicode hex="0041"/>
  <outline>
    <contour>
      <point x="825" y="17" type="move" smooth="yes"/>
    </contour>
    <contour>
      <point x="822" y="0" type="curve"/>
      <point x="521" y="0" type="line"/>
      <point x="519" y="3"/>
      <point x="517" y="10"/>
      <point x="517" y="17" type="curve" smooth="yes"/>
      <point x="517" y="23"/>
      <point x="519" y="30"/>
      <point x="521" y="34" type="curve"/>
      <point x="528" y="34" type="line"/>
      <point x="550" y="34"/>
      <point x="570" y="49"/>
      <point x="570" y="70" type="curve" smooth="yes"/>
      <point x="570" y="75"/>
      <point x="570" y="81"/>
      <point x="568" y="87" type="curve" smooth="yes"/>
      <point x="480" y="295" type="line"/>
      <point x="277" y="295" type="line"/>
      <point x="189" y="92" type="line"/>
      <point x="183" y="79"/>
      <point x="181" y="70"/>
      <point x="181" y="64" type="curve" smooth="yes"/>
      <point x="181" y="45"/>
      <point x="195" y="34"/>
      <point x="215" y="34" type="curve"/>
      <point x="222" y="34" type="line"/>
      <point x="224" y="31"/>
      <point x="226" y="24"/>
      <point x="226" y="17" type="curve" smooth="yes"/>
      <point x="226" y="11"/>
      <point x="224" y="4"/>
      <point x="222" y="0" type="curve"/>
      <point x="50" y="0" type="line"/>
      <point x="48" y="3"/>
      <point x="46" y="10"/>
      <point x="46" y="17" type="curve" smooth="yes"/>
      <point x="46" y="23"/>
      <point x="48" y="30"/>
      <point x="50" y="34" type="curve"/>
      <point x="57" y="34" type="line"/>
      <point x="88" y="34"/>
      <point x="97" y="55"/>
      <point x="108" y="81" type="curve"/>
      <point x="381" y="710" type="line"/>
      <point x="389" y="716"/>
      <point x="410" y="718"/>
      <point x="432" y="720" type="curve" smooth="yes"/>
      <point x="452" y="722"/>
      <point x="471" y="724"/>
      <point x="476" y="728" type="curve" smooth="yes"/>
      <point x="487" y="735" type="line"/>
      <point x="775" y="62" type="line"/>
      <point x="782" y="47"/>
      <point x="796" y="34"/>
      <point x="815" y="34" type="curve"/>
      <point x="822" y="34" type="line"/>
      <point x="823" y="31"/>
      <point x="825" y="24"/>
      <point x="825" y="17" type="curve" smooth="yes"/>
      <point x="825" y="11"/>
      <point x="824" y="5"/>
    </contour>
    <contour>
      <point x="379" y="532" type="line"/>
      <point x="303" y="358" type="line"/>
      <point x="453" y="358" type="line"/>
    </contour>
  </outline>
</glyph>
<glyph name="B" format="1">
  <advance width="729"/>
  <unicode hex="0042"/>
  <outline>
    <contour>
      <point x="440" y="-2" type="curve" smooth="yes"/>
      <point x="562" y="-2"/>
      <point x="670" y="49"/>
      <point x="670" y="189" type="curve" smooth="yes"/>
      <point x="670" y="308"/>
      <point x="554" y="374"/>
      <point x="466" y="391" type="curve"/>
      <point x="547" y="416"/>
      <point x="629" y="472"/>
      <point x="629" y="550" type="curve" smooth="yes"/>
      <point x="629" y="658"/>
      <point x="526" y="734"/>
      <point x="374" y="734" type="curve" smooth="yes"/>
      <point x="338" y="734"/>
      <point x="278" y="734"/>
      <point x="219" y="732" type="curve" smooth="yes"/>
      <point x="191" y="731"/>
      <point x="121" y="730"/>
      <point x="69" y="730" type="curve" smooth="yes"/>
      <point x="63" y="730"/>
      <point x="58" y="730"/>
      <point x="54" y="730" type="curve"/>
      <point x="52" y="726"/>
      <point x="50" y="719"/>
      <point x="50" y="713" type="curve" smooth="yes"/>
      <point x="50" y="706"/>
      <point x="52" y="700"/>
      <point x="54" y="697" type="curve"/>
      <point x="87" y="697"/>
      <point x="105" y="681"/>
      <point x="106" y="657" type="curve" smooth="yes"/>
      <point x="109" y="571"/>
      <point x="110" y="470"/>
      <point x="110" y="383" type="curve" smooth="yes"/>
      <point x="110" y="305"/>
      <point x="110" y="158"/>
      <point x="106" y="69" type="curve" smooth="yes"/>
      <point x="105" y="47"/>
      <point x="77" y="35"/>
      <point x="54" y="34" type="curve"/>
      <point x="52" y="30"/>
      <point x="50" y="23"/>
      <point x="50" y="17" type="curve" smooth="yes"/>
      <point x="50" y="10"/>
      <point x="52" y="3"/>
      <point x="54" y="0" type="curve"/>
      <point x="143" y="0"/>
      <point x="274" y="0"/>
      <point x="302" y="-1" type="curve" smooth="yes"/>
      <point x="328" y="-2"/>
      <point x="409" y="-2"/>
    </contour>
    <contour>
      <point x="318" y="43" type="line"/>
      <point x="310" y="43"/>
      <point x="302" y="53"/>
      <point x="302" y="71" type="curve"/>
      <point x="302" y="375" type="line"/>
      <point x="299" y="382" type="line"/>
      <point x="299" y="664" type="line"/>
      <point x="299" y="672"/>
      <point x="301" y="680"/>
      <point x="310" y="684" type="curve" smooth="yes"/>
      <point x="312" y="685"/>
      <point x="316" y="686"/>
      <point x="332" y="686" type="curve" smooth="yes"/>
      <point x="392" y="686"/>
      <point x="454" y="628"/>
      <point x="454" y="549" type="curve" smooth="yes"/>
      <point x="454" y="463"/>
      <point x="381" y="404"/>
      <point x="320" y="404" type="curve"/>
      <point x="274" y="404" type="line"/>
      <point x="274" y="356" type="line"/>
      <point x="316" y="356" type="line"/>
      <point x="399" y="356"/>
      <point x="487" y="306"/>
      <point x="487" y="198" type="curve" smooth="yes"/>
      <point x="487" y="116"/>
      <point x="431" y="43"/>
      <point x="339" y="43" type="curve"/>
    </contour>
    <contour>
      <point x="371" y="-12" type="move" name="bottom"/>
    </contour>
    <contour>
      <point x="338" y="742" type="move" name="top"/>
    </contour>
  </outline>
</glyph>
<glyph name="C" format="1">
  <advance width="799"/>
  <unicode hex="0043"/>
  <outline>
    <contour>
      <point x="424" y="-10" type="curve" smooth="yes"/>
      <point x="694" y="-10"/>
      <point x="767" y="181"/>
      <point x="768" y="183" type="curve"/>
      <point x="719" y="198" type="line"/>
      <point x="713" y="183"/>
      <point x="625" y="46"/>
      <point x="470" y="46" type="curve" smooth="yes"/>
      <point x="397" y="46"/>
      <point x="248" y="103"/>
      <point x="248" y="385" type="curve" smooth="yes"/>
      <point x="248" y="510"/>
      <point x="320" y="691"/>
      <point x="459" y="691" type="curve" smooth="yes"/>
      <point x="632" y="691"/>
      <point x="701" y="561"/>
      <point x="726" y="462" type="curve" smooth="yes"/>
      <point x="728" y="454"/>
      <point x="737" y="452"/>
      <point x="742" y="452" type="curve" smooth="yes"/>
      <point x="748" y="452"/>
      <point x="756" y="459"/>
      <point x="757" y="464" type="curve"/>
      <point x="750" y="665" type="line" smooth="yes"/>
      <point x="750" y="677"/>
      <point x="740" y="683"/>
      <point x="734" y="683" type="curve" smooth="yes"/>
      <point x="726" y="683"/>
      <point x="721" y="677"/>
      <point x="717" y="671" type="curve" smooth="yes"/>
      <point x="712" y="664"/>
      <point x="707" y="657"/>
      <point x="697" y="657" type="curve" smooth="yes"/>
      <point x="690" y="657"/>
      <point x="679" y="664"/>
      <point x="665" y="675" type="curve" smooth="yes"/>
      <point x="631" y="700"/>
      <point x="573" y="742"/>
      <point x="473" y="742" type="curve" smooth="yes"/>
      <point x="173" y="742"/>
      <point x="45" y="552"/>
      <point x="45" y="352" type="curve" smooth="yes"/>
      <point x="45" y="54"/>
      <point x="255" y="-10"/>
    </contour>
  </outline>
</glyph>
<glyph name="D" format="1">
  <advance width="875"/>
  <unicode hex="0044"/>
  <outline>
    <contour>
      <point x="405" y="-3" type="curve" smooth="yes"/>
      <point x="639" y="-3"/>
      <point x="798" y="120"/>
      <point x="798" y="359" type="curve" smooth="yes"/>
      <point x="798" y="602"/>
      <point x="619" y="731"/>
      <point x="418" y="731" type="curve" smooth="yes"/>
      <point x="387" y="731"/>
      <point x="283" y="728"/>
      <point x="256" y="727" type="curve" smooth="yes"/>
      <point x="248" y="727"/>
      <point x="205" y="727"/>
      <point x="191" y="727" type="curve" smooth="yes"/>
      <point x="150" y="727"/>
      <point x="96" y="728"/>
      <point x="64" y="730" type="curve"/>
      <point x="62" y="726"/>
      <point x="60" y="719"/>
      <point x="60" y="713" type="curve" smooth="yes"/>
      <point x="60" y="706"/>
      <point x="62" y="700"/>
      <point x="64" y="697" type="curve"/>
      <point x="75" y="697"/>
      <point x="84" y="697"/>
      <point x="94" y="695" type="curve" smooth="yes"/>
      <point x="110" y="692"/>
      <point x="116" y="671"/>
      <point x="116" y="663" type="curve"/>
      <point x="119" y="570"/>
      <point x="119" y="493"/>
      <point x="119" y="401" type="curve" smooth="yes"/>
      <point x="119" y="285"/>
      <point x="119" y="157"/>
      <point x="116" y="68" type="curve"/>
      <point x="116" y="59"/>
      <point x="110" y="39"/>
      <point x="94" y="36" type="curve" smooth="yes"/>
      <point x="86" y="34"/>
      <point x="79" y="33"/>
      <point x="71" y="33" type="curve"/>
      <point x="64" y="33" type="line"/>
      <point x="62" y="30"/>
      <point x="60" y="23"/>
      <point x="60" y="17" type="curve" smooth="yes"/>
      <point x="60" y="10"/>
      <point x="62" y="3"/>
      <point x="64" y="0" type="curve"/>
      <point x="263" y="0" type="line" smooth="yes"/>
      <point x="293" y="0"/>
      <point x="319" y="-1"/>
      <point x="343" y="-2" type="curve" smooth="yes"/>
      <point x="364" y="-3"/>
      <point x="384" y="-3"/>
    </contour>
    <contour>
      <point x="334" y="45" type="line"/>
      <point x="328" y="45"/>
      <point x="324" y="50"/>
      <point x="324" y="60" type="curve"/>
      <point x="324" y="673" type="line"/>
      <point x="324" y="676"/>
      <point x="325" y="680"/>
      <point x="329" y="680" type="curve"/>
      <point x="397" y="680" type="line"/>
      <point x="477" y="680"/>
      <point x="605" y="612"/>
      <point x="605" y="353" type="curve" smooth="yes"/>
      <point x="605" y="193"/>
      <point x="547" y="45"/>
      <point x="391" y="45" type="curve"/>
    </contour>
    <contour>
      <point x="374" y="-10" type="move" name="bottom"/>
    </contour>
    <contour>
      <point x="370" y="730" type="move" name="top"/>
    </contour>
  </outline>
</glyph>
<glyph name="E" format="1">
  <advance width="627"/>
  <unicode hex="0045"/>
  <outline>
    <contour>
      <point x="47" y="0" type="curve"/>
      <point x="571" y="0" type="line"/>
      <point x="590" y="165" type="line"/>
      <point x="556" y="163" type="line"/>
      <point x="543" y="101"/>
      <point x="523" y="64"/>
      <point x="461" y="48" type="curve" smooth="yes"/>
      <point x="417" y="37"/>
      <point x="411" y="37"/>
      <point x="369" y="37" type="curve" smooth="yes"/>
      <point x="351" y="37"/>
      <point x="340" y="38"/>
      <point x="321" y="40" type="curve" smooth="yes"/>
      <point x="304" y="42"/>
      <point x="298" y="63"/>
      <point x="298" y="73" type="curve"/>
      <point x="298" y="662" type="line" smooth="yes"/>
      <point x="298" y="669"/>
      <point x="305" y="688"/>
      <point x="320" y="690" type="curve" smooth="yes"/>
      <point x="340" y="693"/>
      <point x="348" y="693"/>
      <point x="369" y="693" type="curve" smooth="yes"/>
      <point x="386" y="693"/>
      <point x="392" y="692"/>
      <point x="424" y="682" type="curve" smooth="yes"/>
      <point x="488" y="662"/>
      <point x="509" y="629"/>
      <point x="522" y="567" type="curve"/>
      <point x="555" y="565" type="line"/>
      <point x="537" y="730" type="line"/>
      <point x="297" y="730" type="line" smooth="yes"/>
      <point x="219" y="730"/>
      <point x="117" y="730"/>
      <point x="47" y="730" type="curve"/>
      <point x="45" y="726"/>
      <point x="43" y="719"/>
      <point x="43" y="713" type="curve" smooth="yes"/>
      <point x="43" y="706"/>
      <point x="45" y="700"/>
      <point x="47" y="697" type="curve"/>
      <point x="58" y="697"/>
      <point x="66" y="697"/>
      <point x="76" y="695" type="curve" smooth="yes"/>
      <point x="92" y="692"/>
      <point x="99" y="671"/>
      <point x="99" y="662" type="curve" smooth="yes"/>
      <point x="99" y="652" type="line"/>
      <point x="100" y="627"/>
      <point x="101" y="536"/>
      <point x="101" y="410" type="curve" smooth="yes"/>
      <point x="101" y="249"/>
      <point x="100" y="87"/>
      <point x="99" y="70" type="curve" smooth="yes"/>
      <point x="98" y="60"/>
      <point x="96" y="45"/>
      <point x="82" y="40" type="curve" smooth="yes"/>
      <point x="71" y="36"/>
      <point x="60" y="35"/>
      <point x="47" y="35" type="curve"/>
      <point x="45" y="31"/>
      <point x="43" y="23"/>
      <point x="43" y="17" type="curve" smooth="yes"/>
      <point x="43" y="10"/>
      <point x="45" y="3"/>
    </contour>
    <contour>
      <point x="457" y="315" type="curve"/>
      <point x="487" y="315" type="line"/>
      <point x="487" y="474" type="line"/>
      <point x="458" y="474" type="line"/>
      <point x="458" y="471"/>
      <point x="458" y="457"/>
      <point x="455" y="445" type="curve" smooth="yes"/>
      <point x="452" y="433"/>
      <point x="438" y="427"/>
      <point x="426" y="424" type="curve" smooth="yes"/>
      <point x="397" y="417"/>
      <point x="387" y="418"/>
      <point x="352" y="418" type="curve" smooth="yes"/>
      <point x="316" y="418"/>
      <point x="265" y="424"/>
      <point x="235" y="430" type="curve"/>
      <point x="235" y="358" type="line"/>
      <point x="265" y="363"/>
      <point x="316" y="371"/>
      <point x="352" y="371" type="curve" smooth="yes"/>
      <point x="387" y="371"/>
      <point x="397" y="372"/>
      <point x="426" y="365" type="curve" smooth="yes"/>
      <point x="438" y="362"/>
      <point x="452" y="355"/>
      <point x="454" y="341" type="curve" smooth="yes"/>
      <point x="456" y="329"/>
      <point x="457" y="320"/>
    </contour>
    <contour>
      <point x="289" y="729" type="move" name="top"/>
    </contour>
  </outline>
</glyph>
<glyph name="F" format="1">
  <advance width="677"/>
  <unicode hex="0046"/>
  <outline>
    <contour>
      <point x="68" y="0" type="curve"/>
      <point x="365" y="0" type="line"/>
      <point x="367" y="5"/>
      <point x="368" y="11"/>
      <point x="368" y="17" type="curve" smooth="yes"/>
      <point x="368" y="24"/>
      <point x="366" y="31"/>
      <point x="365" y="34" type="curve"/>
      <point x="358" y="34" type="line"/>
      <point x="347" y="34"/>
      <point x="342" y="34"/>
      <point x="332" y="38" type="curve" smooth="yes"/>
      <point x="318" y="44"/>
      <point x="315" y="62"/>
      <point x="315" y="71" type="curve" smooth="yes"/>
      <point x="315" y="369" type="line"/>
      <point x="317" y="376" type="line"/>
      <point x="317" y="665" type="line"/>
      <point x="317" y="676"/>
      <point x="321" y="683"/>
      <point x="337" y="688" type="curve" smooth="yes"/>
      <point x="344" y="690"/>
      <point x="356" y="691"/>
      <point x="372" y="691" type="curve"/>
      <point x="434" y="691"/>
      <point x="443" y="690"/>
      <point x="485" y="680" type="curve" smooth="yes"/>
      <point x="547" y="665"/>
      <point x="567" y="628"/>
      <point x="580" y="568" type="curve"/>
      <point x="614" y="566" type="line"/>
      <point x="595" y="730" type="line"/>
      <point x="68" y="730" type="line"/>
      <point x="66" y="726"/>
      <point x="64" y="719"/>
      <point x="64" y="713" type="curve" smooth="yes"/>
      <point x="64" y="706"/>
      <point x="66" y="700"/>
      <point x="68" y="697" type="curve"/>
      <point x="81" y="697"/>
      <point x="85" y="697"/>
      <point x="96" y="695" type="curve" smooth="yes"/>
      <point x="112" y="692"/>
      <point x="120" y="672"/>
      <point x="120" y="662" type="curve" smooth="yes"/>
      <point x="121" y="631"/>
      <point x="121" y="491"/>
      <point x="121" y="395" type="curve" smooth="yes"/>
      <point x="121" y="239"/>
      <point x="120" y="99"/>
      <point x="119" y="68" type="curve" smooth="yes"/>
      <point x="119" y="58"/>
      <point x="112" y="43"/>
      <point x="96" y="37" type="curve" smooth="yes"/>
      <point x="89" y="34"/>
      <point x="83" y="34"/>
      <point x="75" y="34" type="curve"/>
      <point x="68" y="34" type="line"/>
      <point x="66" y="30"/>
      <point x="64" y="23"/>
      <point x="64" y="17" type="curve" smooth="yes"/>
      <point x="64" y="10"/>
      <point x="66" y="3"/>
    </contour>
    <contour>
      <point x="368" y="17" type="move" smooth="yes"/>
    </contour>
    <contour>
      <point x="491" y="295" type="curve"/>
      <point x="512" y="295" type="line"/>
      <point x="512" y="455" type="line"/>
      <point x="491" y="455" type="line"/>
      <point x="490" y="431"/>
      <point x="482" y="408"/>
      <point x="463" y="402" type="curve" smooth="yes"/>
      <point x="439" y="395"/>
      <point x="426" y="392"/>
      <point x="388" y="392" type="curve" smooth="yes"/>
      <point x="352" y="392"/>
      <point x="337" y="395"/>
      <point x="297" y="403" type="curve"/>
      <point x="297" y="348" type="line"/>
      <point x="331" y="353"/>
      <point x="345" y="355"/>
      <point x="384" y="355" type="curve" smooth="yes"/>
      <point x="420" y="355"/>
      <point x="431" y="355"/>
      <point x="459" y="346" type="curve" smooth="yes"/>
      <point x="481" y="339"/>
      <point x="487" y="318"/>
    </contour>
  </outline>
</glyph>
<glyph name="G" format="1">
  <advance width="845"/>
  <unicode hex="0047"/>
  <outline>
    <contour>
      <point x="449" y="-10" type="curve" smooth="yes"/>
      <point x="601" y="-10"/>
      <point x="686" y="59"/>
      <point x="728" y="113" type="curve" smooth="yes"/>
      <point x="742" y="131"/>
      <point x="750" y="142"/>
      <point x="752" y="169" type="curve"/>
      <point x="756" y="240" type="line"/>
      <point x="757" y="253"/>
      <point x="762" y="270"/>
      <point x="778" y="273" type="curve" smooth="yes"/>
      <point x="788" y="275"/>
      <point x="797" y="276"/>
      <point x="808" y="276" type="curve"/>
      <point x="809" y="279"/>
      <point x="811" y="286"/>
      <point x="811" y="292" type="curve" smooth="yes"/>
      <point x="811" y="299"/>
      <point x="809" y="306"/>
      <point x="808" y="309" type="curve"/>
      <point x="555" y="309" type="line"/>
      <point x="554" y="306"/>
      <point x="552" y="299"/>
      <point x="552" y="292" type="curve" smooth="yes"/>
      <point x="552" y="286"/>
      <point x="554" y="279"/>
      <point x="555" y="276" type="curve"/>
      <point x="566" y="276"/>
      <point x="576" y="275"/>
      <point x="586" y="273" type="curve" smooth="yes"/>
      <point x="602" y="270"/>
      <point x="608" y="250"/>
      <point x="608" y="241" type="curve"/>
      <point x="611" y="172" type="line"/>
      <point x="609" y="118"/>
      <point x="547" y="48"/>
      <point x="465" y="48" type="curve" smooth="yes"/>
      <point x="390" y="48"/>
      <point x="248" y="93"/>
      <point x="248" y="385" type="curve" smooth="yes"/>
      <point x="248" y="510"/>
      <point x="294" y="689"/>
      <point x="455" y="689" type="curve" smooth="yes"/>
      <point x="605" y="689"/>
      <point x="690" y="562"/>
      <point x="715" y="463" type="curve" smooth="yes"/>
      <point x="717" y="455"/>
      <point x="726" y="452"/>
      <point x="731" y="452" type="curve" smooth="yes"/>
      <point x="738" y="452"/>
      <point x="747" y="460"/>
      <point x="747" y="466" type="curve"/>
      <point x="740" y="666" type="line"/>
      <point x="740" y="675"/>
      <point x="732" y="685"/>
      <point x="725" y="685" type="curve" smooth="yes"/>
      <point x="717" y="685"/>
      <point x="712" y="679"/>
      <point x="707" y="672" type="curve" smooth="yes"/>
      <point x="702" y="665"/>
      <point x="696" y="658"/>
      <point x="686" y="658" type="curve" smooth="yes"/>
      <point x="679" y="658"/>
      <point x="668" y="665"/>
      <point x="656" y="675" type="curve" smooth="yes"/>
      <point x="625" y="701"/>
      <point x="570" y="742"/>
      <point x="462" y="742" type="curve" smooth="yes"/>
      <point x="173" y="742"/>
      <point x="55" y="552"/>
      <point x="55" y="352" type="curve" smooth="yes"/>
      <point x="55" y="53"/>
      <point x="293" y="-10"/>
    </contour>
    <contour>
      <point x="552" y="292" type="move" smooth="yes"/>
    </contour>
    <contour>
      <point x="811" y="292" type="move" smooth="yes"/>
    </contour>
  </outline>
</glyph>
<glyph name="H" format="1">
  <advance width="857"/>
  <unicode hex="0048"/>
  <outline>
    <contour>
      <point x="64" y="0" type="curve"/>
      <point x="355" y="0" type="line"/>
      <point x="357" y="4"/>
      <point x="359" y="11"/>
      <point x="359" y="17" type="curve" smooth="yes"/>
      <point x="359" y="24"/>
      <point x="357" y="30"/>
      <point x="355" y="33" type="curve"/>
      <point x="344" y="33"/>
      <point x="338" y="34"/>
      <point x="328" y="36" type="curve" smooth="yes"/>
      <point x="313" y="39"/>
      <point x="303" y="57"/>
      <point x="303" y="67" type="curve" smooth="yes"/>
      <point x="301" y="129"/>
      <point x="301" y="190"/>
      <point x="301" y="260" type="curve" smooth="yes"/>
      <point x="301" y="296"/>
      <point x="301" y="333"/>
      <point x="303" y="367" type="curve" smooth="yes"/>
      <point x="303" y="370"/>
      <point x="307" y="371"/>
      <point x="309" y="371" type="curve" smooth="yes"/>
      <point x="321" y="372"/>
      <point x="360" y="372"/>
      <point x="424" y="372" type="curve" smooth="yes"/>
      <point x="491" y="372"/>
      <point x="516" y="372"/>
      <point x="547" y="371" type="curve" smooth="yes"/>
      <point x="549" y="371"/>
      <point x="552" y="370"/>
      <point x="552" y="368" type="curve" smooth="yes"/>
      <point x="552" y="67" type="line"/>
      <point x="552" y="58"/>
      <point x="543" y="39"/>
      <point x="527" y="36" type="curve" smooth="yes"/>
      <point x="518" y="34"/>
      <point x="510" y="33"/>
      <point x="499" y="33" type="curve"/>
      <point x="497" y="30"/>
      <point x="495" y="23"/>
      <point x="495" y="17" type="curve" smooth="yes"/>
      <point x="495" y="11"/>
      <point x="497" y="4"/>
      <point x="499" y="0" type="curve"/>
      <point x="791" y="0" type="line"/>
      <point x="793" y="4"/>
      <point x="795" y="11"/>
      <point x="795" y="17" type="curve" smooth="yes"/>
      <point x="795" y="24"/>
      <point x="793" y="30"/>
      <point x="791" y="33" type="curve"/>
      <point x="781" y="33"/>
      <point x="773" y="34"/>
      <point x="764" y="36" type="curve" smooth="yes"/>
      <point x="748" y="39"/>
      <point x="738" y="59"/>
      <point x="738" y="68" type="curve" smooth="yes"/>
      <point x="735" y="161"/>
      <point x="735" y="285"/>
      <point x="735" y="400" type="curve" smooth="yes"/>
      <point x="735" y="493"/>
      <point x="736" y="604"/>
      <point x="738" y="663" type="curve" smooth="yes"/>
      <point x="738" y="674"/>
      <point x="748" y="692"/>
      <point x="764" y="695" type="curve" smooth="yes"/>
      <point x="774" y="697"/>
      <point x="781" y="697"/>
      <point x="791" y="697" type="curve"/>
      <point x="793" y="701"/>
      <point x="795" y="708"/>
      <point x="795" y="714" type="curve" smooth="yes"/>
      <point x="795" y="721"/>
      <point x="793" y="727"/>
      <point x="791" y="730" type="curve"/>
      <point x="499" y="730" type="line"/>
      <point x="497" y="727"/>
      <point x="495" y="720"/>
      <point x="495" y="714" type="curve" smooth="yes"/>
      <point x="495" y="708"/>
      <point x="497" y="701"/>
      <point x="499" y="697" type="curve"/>
      <point x="511" y="697"/>
      <point x="518" y="697"/>
      <point x="527" y="695" type="curve" smooth="yes"/>
      <point x="544" y="692"/>
      <point x="552" y="673"/>
      <point x="552" y="663" type="curve"/>
      <point x="552" y="430" type="line"/>
      <point x="552" y="428"/>
      <point x="549" y="428"/>
      <point x="547" y="428" type="curve" smooth="yes"/>
      <point x="521" y="427"/>
      <point x="492" y="426"/>
      <point x="424" y="426" type="curve" smooth="yes"/>
      <point x="359" y="426"/>
      <point x="333" y="427"/>
      <point x="309" y="428" type="curve" smooth="yes"/>
      <point x="306" y="428"/>
      <point x="303" y="428"/>
      <point x="303" y="429" type="curve" smooth="yes"/>
      <point x="303" y="455"/>
      <point x="303" y="485"/>
      <point x="303" y="512" type="curve" smooth="yes"/>
      <point x="303" y="567"/>
      <point x="303" y="607"/>
      <point x="303" y="662" type="curve" smooth="yes"/>
      <point x="303" y="672"/>
      <point x="311" y="691"/>
      <point x="327" y="694" type="curve" smooth="yes"/>
      <point x="337" y="696"/>
      <point x="344" y="697"/>
      <point x="355" y="697" type="curve"/>
      <point x="357" y="701"/>
      <point x="359" y="708"/>
      <point x="359" y="714" type="curve" smooth="yes"/>
      <point x="359" y="721"/>
      <point x="357" y="727"/>
      <point x="355" y="730" type="curve"/>
      <point x="64" y="730" type="line"/>
      <point x="62" y="727"/>
      <point x="60" y="720"/>
      <point x="60" y="714" type="curve" smooth="yes"/>
      <point x="60" y="707"/>
      <point x="62" y="700"/>
      <point x="64" y="697" type="curve"/>
      <point x="75" y="697"/>
      <point x="82" y="697"/>
      <point x="92" y="695" type="curve" smooth="yes"/>
      <point x="108" y="692"/>
      <point x="116" y="671"/>
      <point x="116" y="662" type="curve" smooth="yes"/>
      <point x="119" y="571"/>
      <point x="119" y="495"/>
      <point x="119" y="404" type="curve" smooth="yes"/>
      <point x="119" y="288"/>
      <point x="119" y="161"/>
      <point x="116" y="69" type="curve" smooth="yes"/>
      <point x="116" y="59"/>
      <point x="108" y="39"/>
      <point x="92" y="36" type="curve" smooth="yes"/>
      <point x="82" y="34"/>
      <point x="75" y="33"/>
      <point x="64" y="33" type="curve"/>
      <point x="62" y="30"/>
      <point x="60" y="23"/>
      <point x="60" y="17" type="curve" smooth="yes"/>
      <point x="60" y="10"/>
      <point x="62" y="3"/>
    </contour>
  </outline>
</glyph>
<glyph name="I" format="1">
  <advance width="425"/>
  <unicode hex="0049"/>
  <outline>
    <contour>
      <point x="364" y="730" type="line"/>
      <point x="366" y="727"/>
      <point x="368" y="720"/>
      <point x="368" y="713" type="curve" smooth="yes"/>
      <point x="368" y="707"/>
      <point x="366" y="700"/>
      <point x="364" y="696" type="curve"/>
      <point x="356" y="696" type="line" smooth="yes"/>
      <point x="345" y="696"/>
      <point x="314" y="680"/>
      <point x="313" y="663" type="curve" smooth="yes"/>
      <point x="311" y="601"/>
      <point x="310" y="488"/>
      <point x="310" y="393" type="curve" smooth="yes"/>
      <point x="310" y="281"/>
      <point x="311" y="131"/>
      <point x="313" y="69" type="curve" smooth="yes"/>
      <point x="314" y="51"/>
      <point x="333" y="34"/>
      <point x="357" y="33" type="curve" smooth="yes"/>
      <point x="365" y="33" type="line"/>
      <point x="367" y="30"/>
      <point x="369" y="24"/>
      <point x="369" y="17" type="curve" smooth="yes"/>
      <point x="369" y="11"/>
      <point x="367" y="4"/>
      <point x="365" y="0" type="curve"/>
      <point x="64" y="0" type="line"/>
      <point x="62" y="3"/>
      <point x="60" y="10"/>
      <point x="60" y="17" type="curve" smooth="yes"/>
      <point x="60" y="23"/>
      <point x="62" y="30"/>
      <point x="64" y="33" type="curve"/>
      <point x="68" y="33" type="line" smooth="yes"/>
      <point x="92" y="35"/>
      <point x="115" y="50"/>
      <point x="116" y="69" type="curve" smooth="yes"/>
      <point x="118" y="131"/>
      <point x="118" y="281"/>
      <point x="118" y="393" type="curve" smooth="yes"/>
      <point x="118" y="488"/>
      <point x="118" y="601"/>
      <point x="116" y="662" type="curve" smooth="yes"/>
      <point x="115" y="680"/>
      <point x="95" y="695"/>
      <point x="72" y="696" type="curve" smooth="yes"/>
      <point x="64" y="696" type="line"/>
      <point x="62" y="700"/>
      <point x="60" y="707"/>
      <point x="60" y="713" type="curve" smooth="yes"/>
      <point x="60" y="719"/>
      <point x="62" y="727"/>
      <point x="64" y="730" type="curve"/>
    </contour>
  </outline>
</glyph>
<glyph name="J" format="1">
  <advance width="428"/>
  <unicode hex="004A"/>
  <outline>
    <contour>
      <point x="-62" y="-180" type="line"/>
      <point x="136" y="-175"/>
      <point x="310" y="-105"/>
      <point x="310" y="33" type="curve" smooth="yes"/>
      <point x="310" y="35"/>
      <point x="310" y="38"/>
      <point x="310" y="40" type="curve" smooth="yes"/>
      <point x="309" y="62"/>
      <point x="307" y="249"/>
      <point x="307" y="425" type="curve" smooth="yes"/>
      <point x="307" y="522"/>
      <point x="308" y="602"/>
      <point x="310" y="663" type="curve" smooth="yes"/>
      <point x="311" y="681"/>
      <point x="331" y="696"/>
      <point x="354" y="697" type="curve" smooth="yes"/>
      <point x="361" y="697" type="line"/>
      <point x="363" y="700"/>
      <point x="365" y="707"/>
      <point x="365" y="713" type="curve" smooth="yes"/>
      <point x="365" y="720"/>
      <point x="363" y="727"/>
      <point x="362" y="730" type="curve"/>
      <point x="61" y="730" type="line"/>
      <point x="59" y="727"/>
      <point x="57" y="720"/>
      <point x="57" y="714" type="curve" smooth="yes"/>
      <point x="57" y="708"/>
      <point x="59" y="701"/>
      <point x="61" y="697" type="curve"/>
      <point x="69" y="697" type="line" smooth="yes"/>
      <point x="93" y="696"/>
      <point x="112" y="681"/>
      <point x="113" y="662" type="curve" smooth="yes"/>
      <point x="115" y="607"/>
      <point x="115" y="545"/>
      <point x="115" y="466" type="curve" smooth="yes"/>
      <point x="115" y="296"/>
      <point x="114" y="115"/>
      <point x="113" y="87" type="curve" smooth="yes"/>
      <point x="108" y="-67"/>
      <point x="66" y="-110"/>
      <point x="-62" y="-138" type="curve"/>
    </contour>
    <contour>
      <point x="213" y="750" type="move" name="top"/>
    </contour>
  </outline>
</glyph>
<glyph name="K" format="1">
  <advance width="770"/>
  <unicode hex="004B"/>
  <outline>
    <contour>
      <point x="39" y="0" type="curve"/>
      <point x="340" y="0" type="line"/>
      <point x="342" y="4"/>
      <point x="343" y="11"/>
      <point x="343" y="17" type="curve" smooth="yes"/>
      <point x="343" y="24"/>
      <point x="341" y="30"/>
      <point x="339" y="33" type="curve"/>
      <point x="332" y="33" type="line" smooth="yes"/>
      <point x="309" y="34"/>
      <point x="287" y="51"/>
      <point x="287" y="70" type="curve" smooth="yes"/>
      <point x="287" y="305" type="line"/>
      <point x="290" y="306"/>
      <point x="295" y="309"/>
      <point x="298" y="313" type="curve"/>
      <point x="302" y="307"/>
      <point x="310" y="296"/>
      <point x="322" y="281" type="curve" smooth="yes"/>
      <point x="352" y="243"/>
      <point x="401" y="178"/>
      <point x="457" y="99" type="curve" smooth="yes"/>
      <point x="467" y="85"/>
      <point x="476" y="70"/>
      <point x="476" y="60" type="curve" smooth="yes"/>
      <point x="476" y="48"/>
      <point x="471" y="33"/>
      <point x="449" y="33" type="curve"/>
      <point x="447" y="30"/>
      <point x="444" y="23"/>
      <point x="444" y="17" type="curve" smooth="yes"/>
      <point x="444" y="11"/>
      <point x="447" y="4"/>
      <point x="449" y="0" type="curve"/>
      <point x="724" y="0" type="line"/>
      <point x="726" y="4"/>
      <point x="727" y="11"/>
      <point x="727" y="17" type="curve" smooth="yes"/>
      <point x="727" y="24"/>
      <point x="725" y="30"/>
      <point x="723" y="33" type="curve"/>
      <point x="714" y="33" type="line" smooth="yes"/>
      <point x="704" y="33"/>
      <point x="685" y="46"/>
      <point x="671" y="64" type="curve" smooth="yes"/>
      <point x="648" y="94"/>
      <point x="610" y="148"/>
      <point x="566" y="212" type="curve" smooth="yes"/>
      <point x="525" y="272"/>
      <point x="475" y="341"/>
      <point x="427" y="407" type="curve" smooth="yes"/>
      <point x="405" y="437" type="line"/>
      <point x="573" y="654" type="line"/>
      <point x="576" y="658"/>
      <point x="579" y="662"/>
      <point x="582" y="666" type="curve" smooth="yes"/>
      <point x="593" y="682"/>
      <point x="604" y="697"/>
      <point x="630" y="698" type="curve" smooth="yes"/>
      <point x="642" y="698" type="line"/>
      <point x="644" y="701"/>
      <point x="646" y="707"/>
      <point x="646" y="713" type="curve" smooth="yes"/>
      <point x="646" y="720"/>
      <point x="644" y="727"/>
      <point x="642" y="730" type="curve"/>
      <point x="421" y="730" type="line"/>
      <point x="419" y="726"/>
      <point x="416" y="719"/>
      <point x="416" y="713" type="curve" smooth="yes"/>
      <point x="416" y="707"/>
      <point x="419" y="701"/>
      <point x="421" y="698" type="curve"/>
      <point x="428" y="698" type="line" smooth="yes"/>
      <point x="439" y="698"/>
      <point x="465" y="686"/>
      <point x="465" y="676" type="curve" smooth="yes"/>
      <point x="465" y="670"/>
      <point x="463" y="660"/>
      <point x="447" y="641" type="curve"/>
      <point x="323" y="495" type="line"/>
      <point x="303" y="471"/>
      <point x="294" y="465"/>
      <point x="281" y="460" type="curve"/>
      <point x="288" y="662" type="line"/>
      <point x="289" y="685"/>
      <point x="309" y="697"/>
      <point x="333" y="698" type="curve" smooth="yes"/>
      <point x="340" y="698" type="line"/>
      <point x="342" y="701"/>
      <point x="344" y="708"/>
      <point x="344" y="714" type="curve" smooth="yes"/>
      <point x="344" y="721"/>
      <point x="342" y="727"/>
      <point x="340" y="730" type="curve"/>
      <point x="39" y="730" type="line"/>
      <point x="38" y="727"/>
      <point x="36" y="720"/>
      <point x="36" y="714" type="curve" smooth="yes"/>
      <point x="36" y="708"/>
      <point x="38" y="701"/>
      <point x="40" y="698" type="curve"/>
      <point x="46" y="698" type="line" smooth="yes"/>
      <point x="70" y="697"/>
      <point x="90" y="679"/>
      <point x="91" y="661" type="curve" smooth="yes"/>
      <point x="93" y="601"/>
      <point x="93" y="493"/>
      <point x="93" y="402" type="curve" smooth="yes"/>
      <point x="93" y="287"/>
      <point x="93" y="130"/>
      <point x="91" y="70" type="curve" smooth="yes"/>
      <point x="90" y="51"/>
      <point x="68" y="33"/>
      <point x="46" y="33" type="curve" smooth="yes"/>
      <point x="39" y="33" type="line"/>
      <point x="37" y="30"/>
      <point x="34" y="23"/>
      <point x="34" y="17" type="curve" smooth="yes"/>
      <point x="34" y="11"/>
      <point x="37" y="4"/>
    </contour>
  </outline>
</glyph>
<glyph name="L" format="1">
  <advance width="669"/>
  <unicode hex="004C"/>
  <outline>
    <contour>
      <point x="56" y="0" type="curve"/>
      <point x="601" y="0" type="line"/>
      <point x="620" y="165" type="line"/>
      <point x="586" y="163" type="line"/>
      <point x="585" y="157" type="line" smooth="yes"/>
      <point x="575" y="99"/>
      <point x="548" y="65"/>
      <point x="489" y="50" type="curve" smooth="yes"/>
      <point x="454" y="41"/>
      <point x="422" y="37"/>
      <point x="391" y="37" type="curve" smooth="yes"/>
      <point x="370" y="37"/>
      <point x="349" y="38"/>
      <point x="329" y="42" type="curve" smooth="yes"/>
      <point x="312" y="45"/>
      <point x="306" y="63"/>
      <point x="306" y="73" type="curve" smooth="yes"/>
      <point x="304" y="132"/>
      <point x="303" y="287"/>
      <point x="303" y="401" type="curve" smooth="yes"/>
      <point x="303" y="493"/>
      <point x="304" y="604"/>
      <point x="306" y="662" type="curve" smooth="yes"/>
      <point x="307" y="683"/>
      <point x="334" y="697"/>
      <point x="351" y="697" type="curve"/>
      <point x="358" y="697" type="line"/>
      <point x="360" y="701"/>
      <point x="361" y="708"/>
      <point x="361" y="714" type="curve" smooth="yes"/>
      <point x="361" y="721"/>
      <point x="359" y="727"/>
      <point x="358" y="730" type="curve"/>
      <point x="57" y="730" type="line"/>
      <point x="55" y="727"/>
      <point x="52" y="720"/>
      <point x="52" y="714" type="curve" smooth="yes"/>
      <point x="52" y="708"/>
      <point x="55" y="701"/>
      <point x="57" y="697" type="curve"/>
      <point x="64" y="697" type="line"/>
      <point x="87" y="697"/>
      <point x="108" y="680"/>
      <point x="109" y="662" type="curve" smooth="yes"/>
      <point x="111" y="604"/>
      <point x="111" y="494"/>
      <point x="111" y="402" type="curve" smooth="yes"/>
      <point x="111" y="286"/>
      <point x="111" y="133"/>
      <point x="109" y="72" type="curve" smooth="yes"/>
      <point x="108" y="51"/>
      <point x="89" y="33"/>
      <point x="64" y="33" type="curve" smooth="yes"/>
      <point x="56" y="33" type="line"/>
      <point x="54" y="30"/>
      <point x="51" y="23"/>
      <point x="51" y="17" type="curve" smooth="yes"/>
      <point x="51" y="11"/>
      <point x="54" y="4"/>
    </contour>
    <contour>
      <point x="318" y="-2" type="move" name="bottom"/>
    </contour>
    <contour>
      <point x="206" y="740" type="move" name="top"/>
    </contour>
  </outline>
</glyph>
<glyph name="M" format="1">
  <advance width="888"/>
  <unicode hex="004D"/>
  <outline>
    <contour>
      <point x="39" y="0" type="curve"/>
      <point x="228" y="0" type="line"/>
      <point x="230" y="4"/>
      <point x="232" y="11"/>
      <point x="232" y="17" type="curve" smooth="yes"/>
      <point x="232" y="24"/>
      <point x="230" y="31"/>
      <point x="228" y="34" type="curve"/>
      <point x="221" y="34" type="line"/>
      <point x="198" y="35"/>
      <point x="176" y="49"/>
      <point x="176" y="69" type="curve" smooth="yes"/>
      <point x="176" y="70"/>
      <point x="176" y="70"/>
      <point x="176" y="71" type="curve"/>
      <point x="194" y="514" type="line"/>
      <point x="230" y="439"/>
      <point x="325" y="271"/>
      <point x="386" y="166" type="curve" smooth="yes"/>
      <point x="390" y="159"/>
      <point x="395" y="153"/>
      <point x="402" y="153" type="curve" smooth="yes"/>
      <point x="412" y="153"/>
      <point x="422" y="168"/>
      <point x="425" y="174" type="curve"/>
      <point x="613" y="519" type="line"/>
      <point x="614" y="489"/>
      <point x="614" y="457"/>
      <point x="614" y="425" type="curve" smooth="yes"/>
      <point x="614" y="343"/>
      <point x="614" y="329"/>
      <point x="614" y="248" type="curve" smooth="yes"/>
      <point x="614" y="184"/>
      <point x="614" y="133"/>
      <point x="611" y="70" type="curve" smooth="yes"/>
      <point x="610" y="51"/>
      <point x="591" y="34"/>
      <point x="567" y="34" type="curve"/>
      <point x="559" y="34" type="line"/>
      <point x="557" y="30"/>
      <point x="554" y="23"/>
      <point x="554" y="17" type="curve" smooth="yes"/>
      <point x="554" y="11"/>
      <point x="557" y="4"/>
      <point x="559" y="0" type="curve"/>
      <point x="850" y="0" type="line"/>
      <point x="852" y="4"/>
      <point x="853" y="11"/>
      <point x="853" y="17" type="curve" smooth="yes"/>
      <point x="853" y="24"/>
      <point x="851" y="30"/>
      <point x="850" y="33" type="curve"/>
      <point x="843" y="33" type="line" smooth="yes"/>
      <point x="820" y="34"/>
      <point x="799" y="50"/>
      <point x="798" y="69" type="curve" smooth="yes"/>
      <point x="794" y="172"/>
      <point x="794" y="262"/>
      <point x="794" y="367" type="curve" smooth="yes"/>
      <point x="794" y="412"/>
      <point x="795" y="576"/>
      <point x="798" y="663" type="curve" smooth="yes"/>
      <point x="799" y="681"/>
      <point x="820" y="697"/>
      <point x="843" y="697" type="curve" smooth="yes"/>
      <point x="850" y="697" type="line"/>
      <point x="852" y="701"/>
      <point x="853" y="708"/>
      <point x="853" y="714" type="curve" smooth="yes"/>
      <point x="853" y="721"/>
      <point x="851" y="727"/>
      <point x="850" y="730" type="curve"/>
      <point x="617" y="730" type="line"/>
      <point x="455" y="420" type="line"/>
      <point x="295" y="730" type="line"/>
      <point x="59" y="730" type="line"/>
      <point x="57" y="727"/>
      <point x="54" y="720"/>
      <point x="54" y="714" type="curve" smooth="yes"/>
      <point x="54" y="708"/>
      <point x="57" y="701"/>
      <point x="59" y="697" type="curve"/>
      <point x="66" y="697" type="line" smooth="yes"/>
      <point x="90" y="697"/>
      <point x="112" y="679"/>
      <point x="112" y="661" type="curve" smooth="yes"/>
      <point x="112" y="586"/>
      <point x="104" y="366"/>
      <point x="92" y="71" type="curve" smooth="yes"/>
      <point x="91" y="50"/>
      <point x="72" y="36"/>
      <point x="47" y="34" type="curve"/>
      <point x="40" y="34" type="line"/>
      <point x="37" y="30"/>
      <point x="34" y="23"/>
      <point x="34" y="17" type="curve" smooth="yes"/>
      <point x="34" y="11"/>
      <point x="37" y="4"/>
    </contour>
  </outline>
</glyph>
<glyph name="N" format="1">
  <advance width="881"/>
  <unicode hex="004E"/>
  <outline>
    <contour>
      <point x="744" y="-9" type="curve" smooth="yes"/>
      <point x="757" y="-9"/>
      <point x="769" y="1"/>
      <point x="769" y="14" type="curve"/>
      <point x="766" y="102"/>
      <point x="766" y="269"/>
      <point x="766" y="400" type="curve" smooth="yes"/>
      <point x="766" y="493"/>
      <point x="766" y="603"/>
      <point x="768" y="663" type="curve" smooth="yes"/>
      <point x="769" y="680"/>
      <point x="791" y="698"/>
      <point x="814" y="698" type="curve"/>
      <point x="821" y="698" type="line"/>
      <point x="822" y="701"/>
      <point x="824" y="708"/>
      <point x="824" y="714" type="curve" smooth="yes"/>
      <point x="824" y="720"/>
      <point x="822" y="727"/>
      <point x="821" y="730" type="curve"/>
      <point x="619" y="730" type="line"/>
      <point x="617" y="727"/>
      <point x="614" y="721"/>
      <point x="614" y="714" type="curve" smooth="yes"/>
      <point x="614" y="707"/>
      <point x="617" y="700"/>
      <point x="619" y="697" type="curve"/>
      <point x="626" y="697" type="line" smooth="yes"/>
      <point x="647" y="697"/>
      <point x="672" y="680"/>
      <point x="672" y="661" type="curve" smooth="yes"/>
      <point x="672" y="489"/>
      <point x="672" y="479"/>
      <point x="672" y="309" type="curve"/>
      <point x="268" y="730" type="line"/>
      <point x="55" y="730" type="line"/>
      <point x="53" y="727"/>
      <point x="50" y="720"/>
      <point x="50" y="714" type="curve" smooth="yes"/>
      <point x="50" y="708"/>
      <point x="53" y="701"/>
      <point x="55" y="698" type="curve"/>
      <point x="61" y="698" type="line"/>
      <point x="86" y="698"/>
      <point x="105" y="680"/>
      <point x="106" y="660" type="curve" smooth="yes"/>
      <point x="108" y="603"/>
      <point x="108" y="486"/>
      <point x="108" y="399" type="curve" smooth="yes"/>
      <point x="108" y="289"/>
      <point x="108" y="130"/>
      <point x="106" y="70" type="curve" smooth="yes"/>
      <point x="105" y="50"/>
      <point x="86" y="35"/>
      <point x="61" y="33" type="curve"/>
      <point x="54" y="33" type="line"/>
      <point x="52" y="30"/>
      <point x="49" y="24"/>
      <point x="49" y="17" type="curve" smooth="yes"/>
      <point x="49" y="10"/>
      <point x="52" y="4"/>
      <point x="54" y="0" type="curve"/>
      <point x="256" y="0" type="line"/>
      <point x="258" y="4"/>
      <point x="260" y="10"/>
      <point x="260" y="17" type="curve" smooth="yes"/>
      <point x="260" y="24"/>
      <point x="258" y="30"/>
      <point x="256" y="33" type="curve"/>
      <point x="249" y="33" type="line" smooth="yes"/>
      <point x="225" y="33"/>
      <point x="205" y="51"/>
      <point x="204" y="69" type="curve" smooth="yes"/>
      <point x="202" y="130"/>
      <point x="202" y="262"/>
      <point x="202" y="402" type="curve" smooth="yes"/>
      <point x="202" y="451"/>
      <point x="202" y="519"/>
      <point x="203" y="547" type="curve"/>
      <point x="286" y="457"/>
      <point x="359" y="381"/>
      <point x="432" y="306" type="curve" smooth="yes"/>
      <point x="523" y="212"/>
      <point x="614" y="122"/>
      <point x="714" y="5" type="curve" smooth="yes"/>
      <point x="720" y="-2" type="line" smooth="yes"/>
      <point x="723" y="-5"/>
      <point x="735" y="-9"/>
    </contour>
    <contour>
      <point x="442" y="1" type="move" name="bottom"/>
    </contour>
    <contour>
      <point x="441" y="730" type="move" name="top"/>
    </contour>
  </outline>
</glyph>
<glyph name="O" format="1">
  <advance width="848"/>
  <unicode hex="004F"/>
  <outline>
    <contour>
      <point x="423" y="-10" type="curve" smooth="yes"/>
      <point x="607" y="-10"/>
      <point x="814" y="114"/>
      <point x="814" y="361" type="curve" smooth="yes"/>
      <point x="814" y="618"/>
      <point x="640" y="734"/>
      <point x="421" y="734" type="curve" smooth="yes"/>
      <point x="207" y="734"/>
      <point x="35" y="610"/>
      <point x="35" y="352" type="curve" smooth="yes"/>
      <point x="35" y="44"/>
      <point x="284" y="-10"/>
    </contour>
    <contour>
      <point x="431" y="45" type="curve" smooth="yes"/>
      <point x="367" y="45"/>
      <point x="233" y="84"/>
      <point x="233" y="384" type="curve" smooth="yes"/>
      <point x="233" y="462"/>
      <point x="270" y="681"/>
      <point x="414" y="681" type="curve" smooth="yes"/>
      <point x="559" y="681"/>
      <point x="617" y="530"/>
      <point x="617" y="377" type="curve" smooth="yes"/>
      <point x="617" y="125"/>
      <point x="531" y="45"/>
    </contour>
    <contour>
      <point x="425" y="750" type="move" name="top"/>
    </contour>
  </outline>
</glyph>
<glyph name="P" format="1">
  <advance width="678"/>
  <unicode hex="0050"/>
  <outline>
    <contour>
      <point x="337" y="33" type="line"/>
      <point x="339" y="30"/>
      <point x="341" y="24"/>
      <point x="341" y="17" type="curve" smooth="yes"/>
      <point x="341" y="11"/>
      <point x="339" y="4"/>
      <point x="337" y="0" type="curve"/>
      <point x="37" y="0" type="line"/>
      <point x="35" y="4"/>
      <point x="32" y="11"/>
      <point x="32" y="17" type="curve" smooth="yes"/>
      <point x="32" y="23"/>
      <point x="35" y="30"/>
      <point x="37" y="33" type="curve"/>
      <point x="44" y="33" type="line"/>
      <point x="67" y="33"/>
      <point x="88" y="51"/>
      <point x="89" y="68" type="curve" smooth="yes"/>
      <point x="91" y="129"/>
      <point x="91" y="285"/>
      <point x="91" y="400" type="curve" smooth="yes"/>
      <point x="91" y="487"/>
      <point x="91" y="595"/>
      <point x="89" y="655" type="curve" smooth="yes"/>
      <point x="88" y="684"/>
      <point x="66" y="697"/>
      <point x="45" y="697" type="curve"/>
      <point x="37" y="697" type="line"/>
      <point x="35" y="701"/>
      <point x="32" y="708"/>
      <point x="32" y="714" type="curve" smooth="yes"/>
      <point x="32" y="720"/>
      <point x="35" y="727"/>
      <point x="37" y="730" type="curve"/>
      <point x="44" y="729"/>
      <point x="56" y="728"/>
      <point x="66" y="728" type="curve" smooth="yes"/>
      <point x="113" y="728"/>
      <point x="161" y="728"/>
      <point x="208" y="730" type="curve" smooth="yes"/>
      <point x="255" y="732"/>
      <point x="301" y="733"/>
      <point x="348" y="733" type="curve" smooth="yes"/>
      <point x="507" y="733"/>
      <point x="632" y="671"/>
      <point x="632" y="503" type="curve" smooth="yes"/>
      <point x="632" y="347"/>
      <point x="501" y="275"/>
      <point x="370" y="275" type="curve" smooth="yes"/>
      <point x="357" y="275"/>
      <point x="346" y="275"/>
      <point x="333" y="276" type="curve" smooth="yes"/>
      <point x="315" y="277"/>
      <point x="301" y="284"/>
      <point x="301" y="302" type="curve" smooth="yes"/>
      <point x="301" y="320"/>
      <point x="315" y="330"/>
      <point x="333" y="330" type="curve" smooth="yes"/>
      <point x="405" y="330"/>
      <point x="470" y="378"/>
      <point x="470" y="515" type="curve" smooth="yes"/>
      <point x="470" y="652"/>
      <point x="372" y="684"/>
      <point x="321" y="684" type="curve" smooth="yes"/>
      <point x="287" y="684" type="line"/>
      <point x="284" y="595"/>
      <point x="284" y="494"/>
      <point x="284" y="396" type="curve" smooth="yes"/>
      <point x="284" y="282"/>
      <point x="284" y="129"/>
      <point x="287" y="67" type="curve" smooth="yes"/>
      <point x="288" y="50"/>
      <point x="309" y="33"/>
      <point x="330" y="33" type="curve"/>
    </contour>
  </outline>
</glyph>
<glyph name="Q" format="1">
  <advance width="918"/>
  <unicode hex="0051"/>
  <outline>
    <contour>
      <point x="615" y="-154" type="curve" smooth="yes"/>
      <point x="640" y="-154"/>
      <point x="666" y="-153"/>
      <point x="694" y="-150" type="curve" smooth="yes"/>
      <point x="702" y="-149" type="line"/>
      <point x="690" y="-89" type="line"/>
      <point x="660" y="-89" type="line"/>
      <point x="551" y="-89"/>
      <point x="524" y="-60"/>
      <point x="515" y="-13" type="curve"/>
      <point x="671" y="7"/>
      <point x="854" y="137"/>
      <point x="854" y="357" type="curve" smooth="yes"/>
      <point x="854" y="606"/>
      <point x="657" y="733"/>
      <point x="456" y="733" type="curve" smooth="yes"/>
      <point x="259" y="733"/>
      <point x="65" y="598"/>
      <point x="65" y="348" type="curve" smooth="yes"/>
      <point x="65" y="103"/>
      <point x="235" y="17"/>
      <point x="352" y="0" type="curve"/>
      <point x="365" y="-104"/>
      <point x="480" y="-154"/>
    </contour>
    <contour>
      <point x="466" y="34" type="curve" smooth="yes"/>
      <point x="412" y="34"/>
      <point x="258" y="71"/>
      <point x="258" y="380" type="curve" smooth="yes"/>
      <point x="258" y="439"/>
      <point x="277" y="684"/>
      <point x="449" y="684" type="curve" smooth="yes"/>
      <point x="612" y="684"/>
      <point x="662" y="517"/>
      <point x="662" y="373" type="curve" smooth="yes"/>
      <point x="662" y="119"/>
      <point x="557" y="34"/>
    </contour>
  </outline>
</glyph>
<glyph name="R" format="1">
  <advance width="783"/>
  <unicode hex="0052"/>
  <outline>
    <contour>
      <point x="54" y="0" type="curve"/>
      <point x="355" y="0" type="line"/>
      <point x="357" y="4"/>
      <point x="358" y="11"/>
      <point x="358" y="17" type="curve" smooth="yes"/>
      <point x="358" y="24"/>
      <point x="356" y="30"/>
      <point x="354" y="33" type="curve"/>
      <point x="348" y="33" type="line"/>
      <point x="325" y="33"/>
      <point x="301" y="50"/>
      <point x="301" y="68" type="curve" smooth="yes"/>
      <point x="301" y="313" type="line"/>
      <point x="310" y="311"/>
      <point x="315" y="311"/>
      <point x="321" y="311" type="curve"/>
      <point x="488" y="77" type="line"/>
      <point x="498" y="62"/>
      <point x="541" y="0"/>
      <point x="577" y="0" type="curve" smooth="yes"/>
      <point x="740" y="0" type="line"/>
      <point x="742" y="4"/>
      <point x="744" y="12"/>
      <point x="744" y="18" type="curve" smooth="yes"/>
      <point x="744" y="25"/>
      <point x="742" y="31"/>
      <point x="740" y="34" type="curve"/>
      <point x="734" y="34" type="line"/>
      <point x="705" y="36"/>
      <point x="695" y="46"/>
      <point x="673" y="76" type="curve" smooth="yes"/>
      <point x="664" y="89"/>
      <point x="654" y="103"/>
      <point x="643" y="117" type="curve" smooth="yes"/>
      <point x="602" y="169"/>
      <point x="550" y="241"/>
      <point x="487" y="329" type="curve"/>
      <point x="576" y="352"/>
      <point x="634" y="431"/>
      <point x="634" y="535" type="curve" smooth="yes"/>
      <point x="634" y="676"/>
      <point x="502" y="734"/>
      <point x="340" y="734" type="curve" smooth="yes"/>
      <point x="307" y="734"/>
      <point x="260" y="734"/>
      <point x="213" y="732" type="curve" smooth="yes"/>
      <point x="166" y="730"/>
      <point x="119" y="730"/>
      <point x="87" y="730" type="curve"/>
      <point x="54" y="730" type="line"/>
      <point x="52" y="727"/>
      <point x="49" y="720"/>
      <point x="49" y="714" type="curve" smooth="yes"/>
      <point x="49" y="708"/>
      <point x="52" y="701"/>
      <point x="54" y="697" type="curve"/>
      <point x="62" y="697" type="line" smooth="yes"/>
      <point x="91" y="697"/>
      <point x="105" y="680"/>
      <point x="106" y="654" type="curve" smooth="yes"/>
      <point x="108" y="595"/>
      <point x="108" y="490"/>
      <point x="108" y="404" type="curve" smooth="yes"/>
      <point x="108" y="288"/>
      <point x="108" y="128"/>
      <point x="106" y="69" type="curve" smooth="yes"/>
      <point x="105" y="50"/>
      <point x="85" y="35"/>
      <point x="61" y="33" type="curve"/>
      <point x="54" y="33" type="line"/>
      <point x="52" y="30"/>
      <point x="49" y="23"/>
      <point x="49" y="17" type="curve" smooth="yes"/>
      <point x="49" y="11"/>
      <point x="52" y="4"/>
    </contour>
    <contour>
      <point x="300" y="373" type="curve"/>
      <point x="300" y="382"/>
      <point x="300" y="399"/>
      <point x="300" y="408" type="curve" smooth="yes"/>
      <point x="300" y="506"/>
      <point x="300" y="595"/>
      <point x="303" y="684" type="curve"/>
      <point x="339" y="684" type="line" smooth="yes"/>
      <point x="393" y="684"/>
      <point x="462" y="630"/>
      <point x="462" y="531" type="curve" smooth="yes"/>
      <point x="462" y="444"/>
      <point x="389" y="373"/>
      <point x="324" y="373" type="curve" smooth="yes"/>
      <point x="315" y="373"/>
      <point x="309" y="373"/>
    </contour>
  </outline>
</glyph>
<glyph name="S" format="1">
  <advance width="621"/>
  <unicode hex="0053"/>
  <outline>
    <contour>
      <point x="149" y="208" type="curve"/>
      <point x="155" y="159"/>
      <point x="204" y="58"/>
      <point x="292" y="58" type="curve" smooth="yes"/>
      <point x="354" y="58"/>
      <point x="399" y="102"/>
      <point x="399" y="174" type="curve" smooth="yes"/>
      <point x="399" y="248"/>
      <point x="326" y="295"/>
      <point x="237" y="346" type="curve" smooth="yes"/>
      <point x="144" y="399"/>
      <point x="87" y="476"/>
      <point x="87" y="559" type="curve" smooth="yes"/>
      <point x="87" y="650"/>
      <point x="175" y="742"/>
      <point x="334" y="742" type="curve" smooth="yes"/>
      <point x="424" y="742"/>
      <point x="547" y="717"/>
      <point x="547" y="686" type="curve" smooth="yes"/>
      <point x="547" y="670"/>
      <point x="526" y="586"/>
      <point x="504" y="586" type="curve" smooth="yes"/>
      <point x="493" y="586"/>
      <point x="487" y="598"/>
      <point x="479" y="614" type="curve" smooth="yes"/>
      <point x="464" y="644"/>
      <point x="442" y="688"/>
      <point x="369" y="688" type="curve" smooth="yes"/>
      <point x="313" y="688"/>
      <point x="271" y="634"/>
      <point x="271" y="584" type="curve" smooth="yes"/>
      <point x="271" y="525"/>
      <point x="327" y="487"/>
      <point x="400" y="446" type="curve"/>
      <point x="433" y="427" type="line"/>
      <point x="539" y="367"/>
      <point x="581" y="305"/>
      <point x="581" y="215" type="curve" smooth="yes"/>
      <point x="581" y="67"/>
      <point x="465" y="-10"/>
      <point x="318" y="-10" type="curve" smooth="yes"/>
      <point x="166" y="-10"/>
      <point x="58" y="75"/>
      <point x="58" y="123" type="curve" smooth="yes"/>
      <point x="58" y="149"/>
      <point x="111" y="219"/>
      <point x="136" y="219" type="curve" smooth="yes"/>
      <point x="139" y="219"/>
      <point x="148" y="217"/>
    </contour>
  </outline>
</glyph>
<glyph name="U" format="1">
  <advance width="815"/>
  <unicode hex="0055"/>
  <outline>
    <contour>
      <point x="444" y="-11" type="curve" smooth="yes"/>
      <point x="566" y="-11"/>
      <point x="723" y="41"/>
      <point x="723" y="279" type="curve"/>
      <point x="723" y="664" type="line"/>
      <point x="723" y="683"/>
      <point x="750" y="699"/>
      <point x="769" y="699" type="curve"/>
      <point x="776" y="699" type="line"/>
      <point x="778" y="702"/>
      <point x="779" y="707"/>
      <point x="779" y="714" type="curve" smooth="yes"/>
      <point x="779" y="721"/>
      <point x="777" y="727"/>
      <point x="776" y="730" type="curve"/>
      <point x="556" y="730" type="line"/>
      <point x="554" y="727"/>
      <point x="552" y="721"/>
      <point x="552" y="714" type="curve" smooth="yes"/>
      <point x="552" y="707"/>
      <point x="554" y="702"/>
      <point x="556" y="699" type="curve"/>
      <point x="563" y="699" type="line"/>
      <point x="586" y="699"/>
      <point x="609" y="681"/>
      <point x="609" y="664" type="curve"/>
      <point x="609" y="305" type="line"/>
      <point x="609" y="99"/>
      <point x="533" y="36"/>
      <point x="448" y="36" type="curve" smooth="yes"/>
      <point x="351" y="36"/>
      <point x="301" y="107"/>
      <point x="301" y="319" type="curve"/>
      <point x="301" y="662" type="line"/>
      <point x="301" y="684"/>
      <point x="321" y="699"/>
      <point x="346" y="699" type="curve"/>
      <point x="353" y="699" type="line"/>
      <point x="355" y="702"/>
      <point x="356" y="707"/>
      <point x="356" y="714" type="curve" smooth="yes"/>
      <point x="356" y="721"/>
      <point x="354" y="727"/>
      <point x="353" y="730" type="curve"/>
      <point x="42" y="730" type="line"/>
      <point x="40" y="727"/>
      <point x="37" y="721"/>
      <point x="37" y="714" type="curve" smooth="yes"/>
      <point x="37" y="707"/>
      <point x="40" y="702"/>
      <point x="42" y="699" type="curve"/>
      <point x="49" y="699" type="line"/>
      <point x="71" y="699"/>
      <point x="96" y="683"/>
      <point x="96" y="662" type="curve"/>
      <point x="96" y="291" type="line"/>
      <point x="96" y="42"/>
      <point x="289" y="-11"/>
    </contour>
    <contour>
      <point x="418" y="-13" type="move" name="bottom"/>
    </contour>
    <contour>
      <point x="417" y="731" type="move" name="top"/>
    </contour>
  </outline>
</glyph>
<glyph name="V" format="1">
  <advance width="779"/>
  <unicode hex="0056"/>
  <outline>
    <contour>
      <point x="417" y="-8" type="curve" smooth="yes"/>
      <point x="428" y="-8"/>
      <point x="433" y="2"/>
      <point x="435" y="6" type="curve"/>
      <point x="734" y="655" type="line"/>
      <point x="746" y="682"/>
      <point x="753" y="697"/>
      <point x="782" y="697" type="curve"/>
      <point x="790" y="697" type="line"/>
      <point x="792" y="701"/>
      <point x="793" y="708"/>
      <point x="793" y="714" type="curve" smooth="yes"/>
      <point x="793" y="721"/>
      <point x="791" y="727"/>
      <point x="789" y="730" type="curve"/>
      <point x="593" y="730" type="line"/>
      <point x="591" y="727"/>
      <point x="588" y="720"/>
      <point x="588" y="714" type="curve" smooth="yes"/>
      <point x="588" y="708"/>
      <point x="591" y="701"/>
      <point x="593" y="697" type="curve"/>
      <point x="600" y="697" type="line"/>
      <point x="621" y="697"/>
      <point x="644" y="682"/>
      <point x="644" y="665" type="curve" smooth="yes"/>
      <point x="644" y="659"/>
      <point x="641" y="652"/>
      <point x="636" y="642" type="curve"/>
      <point x="476" y="295" type="line"/>
      <point x="327" y="648" type="line"/>
      <point x="324" y="655"/>
      <point x="323" y="662"/>
      <point x="323" y="666" type="curve" smooth="yes"/>
      <point x="323" y="680"/>
      <point x="346" y="697"/>
      <point x="368" y="697" type="curve"/>
      <point x="375" y="697" type="line"/>
      <point x="377" y="701"/>
      <point x="378" y="708"/>
      <point x="378" y="714" type="curve" smooth="yes"/>
      <point x="378" y="721"/>
      <point x="377" y="727"/>
      <point x="376" y="730" type="curve"/>
      <point x="60" y="730" type="line"/>
      <point x="58" y="727"/>
      <point x="55" y="720"/>
      <point x="55" y="714" type="curve" smooth="yes"/>
      <point x="55" y="708"/>
      <point x="58" y="701"/>
      <point x="60" y="697" type="curve"/>
      <point x="67" y="697" type="line"/>
      <point x="93" y="697"/>
      <point x="100" y="686"/>
      <point x="110" y="662" type="curve" smooth="yes"/>
      <point x="163" y="530"/>
      <point x="218" y="406"/>
      <point x="276" y="281" type="curve" smooth="yes"/>
      <point x="318" y="190"/>
      <point x="358" y="100"/>
      <point x="398" y="7" type="curve" smooth="yes"/>
      <point x="401" y="-1"/>
      <point x="407" y="-8"/>
    </contour>
    <contour>
      <point x="420" y="-24" type="move" name="bottom"/>
    </contour>
    <contour>
      <point x="452" y="728" type="move" name="top"/>
    </contour>
  </outline>
</glyph>
<glyph name="W" format="1">
  <advance width="1097"/>
  <unicode hex="0057"/>
  <outline>
    <contour>
      <point x="418" y="-9" type="curve" smooth="yes"/>
      <point x="426" y="-9"/>
      <point x="436" y="-2"/>
      <point x="440" y="6" type="curve"/>
      <point x="589" y="317" type="line"/>
      <point x="639" y="185"/>
      <point x="674" y="72"/>
      <point x="687" y="27" type="curve"/>
      <point x="692" y="9" type="line"/>
      <point x="695" y="-1"/>
      <point x="704" y="-9"/>
      <point x="713" y="-9" type="curve" smooth="yes"/>
      <point x="721" y="-9"/>
      <point x="731" y="-2"/>
      <point x="735" y="6" type="curve"/>
      <point x="1027" y="656" type="line"/>
      <point x="1039" y="684"/>
      <point x="1047" y="699"/>
      <point x="1078" y="701" type="curve"/>
      <point x="1084" y="701" type="line"/>
      <point x="1086" y="705"/>
      <point x="1087" y="709"/>
      <point x="1087" y="715" type="curve" smooth="yes"/>
      <point x="1087" y="722"/>
      <point x="1086" y="726"/>
      <point x="1084" y="730" type="curve"/>
      <point x="889" y="730" type="line"/>
      <point x="887" y="727"/>
      <point x="885" y="722"/>
      <point x="885" y="716" type="curve" smooth="yes"/>
      <point x="885" y="710"/>
      <point x="887" y="704"/>
      <point x="889" y="701" type="curve"/>
      <point x="896" y="701" type="line"/>
      <point x="916" y="701"/>
      <point x="939" y="686"/>
      <point x="939" y="668" type="curve" smooth="yes"/>
      <point x="939" y="661"/>
      <point x="937" y="648"/>
      <point x="934" y="641" type="curve" smooth="yes"/>
      <point x="908" y="564"/>
      <point x="827" y="397"/>
      <point x="774" y="288" type="curve"/>
      <point x="755" y="336"/>
      <point x="721" y="429"/>
      <point x="701" y="486" type="curve"/>
      <point x="777" y="662" type="line"/>
      <point x="788" y="687"/>
      <point x="795" y="701"/>
      <point x="822" y="701" type="curve"/>
      <point x="830" y="701" type="line"/>
      <point x="831" y="704"/>
      <point x="833" y="710"/>
      <point x="833" y="716" type="curve" smooth="yes"/>
      <point x="833" y="723"/>
      <point x="831" y="728"/>
      <point x="829" y="730" type="curve"/>
      <point x="583" y="730"/>
      <point x="312" y="730"/>
      <point x="66" y="730" type="curve"/>
      <point x="64" y="727"/>
      <point x="61" y="722"/>
      <point x="61" y="716" type="curve" smooth="yes"/>
      <point x="61" y="710"/>
      <point x="64" y="704"/>
      <point x="66" y="701" type="curve"/>
      <point x="73" y="700" type="line"/>
      <point x="101" y="698"/>
      <point x="105" y="690"/>
      <point x="117" y="663" type="curve" smooth="yes"/>
      <point x="124" y="647" type="line" smooth="yes"/>
      <point x="183" y="511"/>
      <point x="319" y="188"/>
      <point x="374" y="61" type="curve"/>
      <point x="398" y="6" type="line"/>
      <point x="401" y="-1"/>
      <point x="410" y="-9"/>
    </contour>
    <contour>
      <point x="472" y="279" type="line"/>
      <point x="321" y="652" type="line"/>
      <point x="319" y="657"/>
      <point x="318" y="660"/>
      <point x="318" y="665" type="curve" smooth="yes"/>
      <point x="318" y="686"/>
      <point x="342" y="701"/>
      <point x="364" y="701" type="curve"/>
      <point x="388" y="701" type="line"/>
      <point x="405" y="701"/>
      <point x="421" y="689"/>
      <point x="431" y="665" type="curve"/>
      <point x="538" y="405" type="line"/>
    </contour>
    <contour>
      <point x="668" y="548" type="line"/>
      <point x="636" y="641" type="line"/>
      <point x="632" y="651"/>
      <point x="630" y="658"/>
      <point x="630" y="665" type="curve" smooth="yes"/>
      <point x="630" y="682"/>
      <point x="651" y="703"/>
      <point x="674" y="703" type="curve"/>
      <point x="693" y="703"/>
      <point x="715" y="683"/>
      <point x="715" y="666" type="curve" smooth="yes"/>
      <point x="715" y="658"/>
      <point x="712" y="651"/>
      <point x="705" y="635" type="curve"/>
    </contour>
    <contour>
      <point x="604" y="734" type="move" name="top"/>
    </contour>
  </outline>
</glyph>
<glyph name="X" format="1">
  <advance width="879"/>
  <unicode hex="0058"/>
  <unicode hex="03A7"/>
  <outline>
    <contour>
      <point x="36" y="0" type="curve"/>
      <point x="238" y="0" type="line"/>
      <point x="240" y="4"/>
      <point x="241" y="11"/>
      <point x="241" y="17" type="curve" smooth="yes"/>
      <point x="241" y="24"/>
      <point x="239" y="30"/>
      <point x="238" y="33" type="curve"/>
      <point x="231" y="33" type="line" smooth="yes"/>
      <point x="223" y="33"/>
      <point x="215" y="35"/>
      <point x="209" y="37" type="curve" smooth="yes"/>
      <point x="198" y="41"/>
      <point x="194" y="52"/>
      <point x="194" y="57" type="curve" smooth="yes"/>
      <point x="194" y="62"/>
      <point x="198" y="71"/>
      <point x="213" y="91" type="curve"/>
      <point x="246" y="136"/>
      <point x="275" y="171"/>
      <point x="303" y="204" type="curve" smooth="yes"/>
      <point x="327" y="233"/>
      <point x="352" y="264"/>
      <point x="382" y="303" type="curve"/>
      <point x="529" y="93" type="line"/>
      <point x="539" y="79"/>
      <point x="549" y="64"/>
      <point x="549" y="56" type="curve" smooth="yes"/>
      <point x="549" y="47"/>
      <point x="539" y="40"/>
      <point x="528" y="36" type="curve" smooth="yes"/>
      <point x="521" y="34"/>
      <point x="515" y="33"/>
      <point x="507" y="33" type="curve" smooth="yes"/>
      <point x="501" y="33" type="line"/>
      <point x="499" y="30"/>
      <point x="496" y="23"/>
      <point x="496" y="17" type="curve" smooth="yes"/>
      <point x="496" y="11"/>
      <point x="499" y="4"/>
      <point x="501" y="0" type="curve"/>
      <point x="825" y="0" type="line"/>
      <point x="827" y="5"/>
      <point x="828" y="11"/>
      <point x="828" y="17" type="curve" smooth="yes"/>
      <point x="828" y="24"/>
      <point x="827" y="29"/>
      <point x="825" y="33" type="curve"/>
      <point x="819" y="33" type="line" smooth="yes"/>
      <point x="811" y="33"/>
      <point x="801" y="35"/>
      <point x="793" y="39" type="curve" smooth="yes"/>
      <point x="786" y="43"/>
      <point x="777" y="54"/>
      <point x="768" y="66" type="curve" smooth="yes"/>
      <point x="746" y="95"/>
      <point x="708" y="151"/>
      <point x="663" y="219" type="curve" smooth="yes"/>
      <point x="616" y="291"/>
      <point x="560" y="375"/>
      <point x="510" y="445" type="curve"/>
      <point x="499" y="460" type="line"/>
      <point x="648" y="655" type="line"/>
      <point x="659" y="670"/>
      <point x="673" y="689"/>
      <point x="685" y="693" type="curve" smooth="yes"/>
      <point x="692" y="696"/>
      <point x="701" y="697"/>
      <point x="709" y="697" type="curve"/>
      <point x="717" y="697" type="line"/>
      <point x="719" y="702"/>
      <point x="720" y="708"/>
      <point x="720" y="714" type="curve" smooth="yes"/>
      <point x="720" y="721"/>
      <point x="719" y="726"/>
      <point x="717" y="730" type="curve"/>
      <point x="526" y="730" type="line"/>
      <point x="524" y="727"/>
      <point x="521" y="720"/>
      <point x="521" y="714" type="curve" smooth="yes"/>
      <point x="521" y="708"/>
      <point x="524" y="701"/>
      <point x="526" y="697" type="curve"/>
      <point x="533" y="697" type="line"/>
      <point x="553" y="696"/>
      <point x="567" y="691"/>
      <point x="567" y="679" type="curve" smooth="yes"/>
      <point x="567" y="672"/>
      <point x="559" y="662"/>
      <point x="547" y="647" type="curve"/>
      <point x="451" y="528" type="line"/>
      <point x="368" y="643" type="line"/>
      <point x="359" y="656"/>
      <point x="357" y="664"/>
      <point x="357" y="669" type="curve" smooth="yes"/>
      <point x="357" y="676"/>
      <point x="362" y="689"/>
      <point x="374" y="694" type="curve" smooth="yes"/>
      <point x="381" y="696"/>
      <point x="390" y="697"/>
      <point x="398" y="697" type="curve"/>
      <point x="405" y="697" type="line"/>
      <point x="407" y="702"/>
      <point x="408" y="708"/>
      <point x="408" y="714" type="curve" smooth="yes"/>
      <point x="408" y="721"/>
      <point x="406" y="727"/>
      <point x="405" y="730" type="curve"/>
      <point x="70" y="730" type="line"/>
      <point x="68" y="727"/>
      <point x="65" y="720"/>
      <point x="65" y="714" type="curve" smooth="yes"/>
      <point x="65" y="708"/>
      <point x="68" y="701"/>
      <point x="70" y="697" type="curve"/>
      <point x="77" y="697" type="line"/>
      <point x="85" y="697"/>
      <point x="94" y="696"/>
      <point x="101" y="693" type="curve" smooth="yes"/>
      <point x="109" y="689"/>
      <point x="117" y="678"/>
      <point x="125" y="667" type="curve" smooth="yes"/>
      <point x="147" y="638"/>
      <point x="178" y="596"/>
      <point x="214" y="545" type="curve" smooth="yes"/>
      <point x="248" y="497"/>
      <point x="288" y="441"/>
      <point x="333" y="379" type="curve"/>
      <point x="103" y="77" type="line"/>
      <point x="93" y="63"/>
      <point x="78" y="42"/>
      <point x="67" y="38" type="curve" smooth="yes"/>
      <point x="59" y="35"/>
      <point x="51" y="33"/>
      <point x="43" y="33" type="curve"/>
      <point x="36" y="33" type="line"/>
      <point x="34" y="30"/>
      <point x="31" y="23"/>
      <point x="31" y="17" type="curve" smooth="yes"/>
      <point x="31" y="11"/>
      <point x="34" y="4"/>
    </contour>
    <contour>
      <point x="449" y="730" type="move" name="top"/>
    </contour>
  </outline>
</glyph>
<glyph name="Y" format="1">
  <advance width="802"/>
  <unicode hex="0059"/>
  <outline>
    <contour>
      <point x="553" y="33" type="line"/>
      <point x="554" y="30"/>
      <point x="556" y="24"/>
      <point x="556" y="17" type="curve" smooth="yes"/>
      <point x="556" y="11"/>
      <point x="555" y="4"/>
      <point x="553" y="0" type="curve"/>
      <point x="252" y="0" type="line"/>
      <point x="250" y="4"/>
      <point x="247" y="11"/>
      <point x="247" y="17" type="curve" smooth="yes"/>
      <point x="247" y="23"/>
      <point x="250" y="30"/>
      <point x="252" y="33" type="curve"/>
      <point x="259" y="33" type="line"/>
      <point x="283" y="35"/>
      <point x="303" y="50"/>
      <point x="304" y="69" type="curve" smooth="yes"/>
      <point x="306" y="128"/>
      <point x="307" y="191"/>
      <point x="307" y="259" type="curve" smooth="yes"/>
      <point x="307" y="305"/>
      <point x="307" y="362"/>
      <point x="306" y="383" type="curve"/>
      <point x="279" y="421"/>
      <point x="253" y="458"/>
      <point x="231" y="492" type="curve" smooth="yes"/>
      <point x="181" y="568"/>
      <point x="136" y="630"/>
      <point x="108" y="667" type="curve" smooth="yes"/>
      <point x="95" y="685"/>
      <point x="77" y="694"/>
      <point x="61" y="696" type="curve" smooth="yes"/>
      <point x="54" y="697" type="line"/>
      <point x="52" y="701"/>
      <point x="49" y="708"/>
      <point x="49" y="714" type="curve" smooth="yes"/>
      <point x="49" y="720"/>
      <point x="52" y="727"/>
      <point x="54" y="730" type="curve"/>
      <point x="363" y="730" type="line"/>
      <point x="365" y="727"/>
      <point x="368" y="721"/>
      <point x="368" y="714" type="curve" smooth="yes"/>
      <point x="368" y="708"/>
      <point x="365" y="701"/>
      <point x="363" y="697" type="curve"/>
      <point x="357" y="697" type="line" smooth="yes"/>
      <point x="341" y="697"/>
      <point x="316" y="683"/>
      <point x="316" y="671" type="curve" smooth="yes"/>
      <point x="316" y="665"/>
      <point x="318" y="658"/>
      <point x="327" y="645" type="curve"/>
      <point x="457" y="467" type="line"/>
      <point x="595" y="639" type="line"/>
      <point x="609" y="657"/>
      <point x="613" y="668"/>
      <point x="613" y="674" type="curve" smooth="yes"/>
      <point x="613" y="684"/>
      <point x="590" y="697"/>
      <point x="576" y="697" type="curve" smooth="yes"/>
      <point x="569" y="697" type="line"/>
      <point x="567" y="701"/>
      <point x="564" y="708"/>
      <point x="564" y="714" type="curve" smooth="yes"/>
      <point x="564" y="720"/>
      <point x="567" y="727"/>
      <point x="569" y="730" type="curve"/>
      <point x="758" y="730" type="line"/>
      <point x="760" y="727"/>
      <point x="763" y="721"/>
      <point x="763" y="714" type="curve" smooth="yes"/>
      <point x="763" y="708"/>
      <point x="760" y="701"/>
      <point x="758" y="697" type="curve"/>
      <point x="751" y="697" type="line" smooth="yes"/>
      <point x="727" y="697"/>
      <point x="710" y="678"/>
      <point x="703" y="668" type="curve"/>
      <point x="499" y="393" type="line"/>
      <point x="498" y="362"/>
      <point x="498" y="305"/>
      <point x="498" y="259" type="curve" smooth="yes"/>
      <point x="498" y="191"/>
      <point x="499" y="128"/>
      <point x="501" y="70" type="curve" smooth="yes"/>
      <point x="502" y="49"/>
      <point x="513" y="33"/>
      <point x="538" y="33" type="curve"/>
    </contour>
    <contour>
      <point x="409" y="0" type="move" name="bottom"/>
    </contour>
    <contour>
      <point x="426" y="738" type="move" name="top"/>
    </contour>
  </outline>
</glyph>
<glyph name="Z" format="1">
  <advance width="760"/>
  <unicode hex="005A"/>
  <outline>
    <contour>
      <point x="87" y="0" type="curve"/>
      <point x="619" y="0" type="line"/>
      <point x="669" y="177" type="line"/>
      <point x="631" y="177" type="line"/>
      <point x="621" y="146"/>
      <point x="592" y="65"/>
      <point x="506" y="53" type="curve" smooth="yes"/>
      <point x="454" y="46"/>
      <point x="443" y="46"/>
      <point x="397" y="46" type="curve" smooth="yes"/>
      <point x="356" y="46"/>
      <point x="336" y="48"/>
      <point x="300" y="52" type="curve"/>
      <point x="684" y="662" type="line"/>
      <point x="691" y="672"/>
      <point x="694" y="688"/>
      <point x="694" y="697" type="curve" smooth="yes"/>
      <point x="694" y="708"/>
      <point x="689" y="723"/>
      <point x="688" y="726" type="curve"/>
      <point x="687" y="730" type="line"/>
      <point x="195" y="730" type="line"/>
      <point x="193" y="730"/>
      <point x="189" y="731"/>
      <point x="185" y="732" type="curve" smooth="yes"/>
      <point x="177" y="734"/>
      <point x="171" y="735"/>
      <point x="164" y="735" type="curve" smooth="yes"/>
      <point x="159" y="735"/>
      <point x="150" y="734"/>
      <point x="148" y="725" type="curve"/>
      <point x="115" y="566" type="line"/>
      <point x="153" y="568" type="line"/>
      <point x="168" y="634"/>
      <point x="197" y="663"/>
      <point x="262" y="677" type="curve" smooth="yes"/>
      <point x="304" y="686"/>
      <point x="312" y="687"/>
      <point x="373" y="687" type="curve" smooth="yes"/>
      <point x="419" y="687"/>
      <point x="444" y="686"/>
      <point x="473" y="684" type="curve"/>
      <point x="61" y="56" type="line"/>
      <point x="57" y="50"/>
      <point x="54" y="37"/>
      <point x="54" y="30" type="curve" smooth="yes"/>
      <point x="54" y="8"/>
      <point x="79" y="0"/>
    </contour>
    <contour>
      <point x="377" y="-6" type="move" name="bottom"/>
    </contour>
    <contour>
      <point x="410" y="734" type="move" name="top"/>
    </contour>
  </outline>
</glyph>
<glyph name="bracketleft" format="1">
  <advance width="361"/>
  <unicode hex="005B"/>
  <outline>
    <contour>
      <point x="103" y="-128" type="curve" smooth="yes"/>
      <point x="298" y="-128" type="line" smooth="yes"/>
      <point x="312" y="-128"/>
      <point x="314" y="-109"/>
      <point x="314" y="-100" type="curve" smooth="yes"/>
      <point x="314" y="-91"/>
      <point x="312" y="-74"/>
      <point x="298" y="-74" type="curve" smooth="yes"/>
      <point x="215" y="-74" type="line"/>
      <point x="215" y="735" type="line"/>
      <point x="298" y="735" type="line" smooth="yes"/>
      <point x="312" y="735"/>
      <point x="314" y="754"/>
      <point x="314" y="763" type="curve" smooth="yes"/>
      <point x="314" y="772"/>
      <point x="312" y="789"/>
      <point x="298" y="789" type="curve" smooth="yes"/>
      <point x="107" y="789" type="line" smooth="yes"/>
      <point x="89" y="789"/>
      <point x="77" y="779"/>
      <point x="77" y="761" type="curve" smooth="yes"/>
      <point x="77" y="-101" type="line" smooth="yes"/>
      <point x="77" y="-118"/>
      <point x="87" y="-128"/>
    </contour>
  </outline>
</glyph>
<glyph name="backslash" format="1">
  <advance width="471"/>
  <unicode hex="005C"/>
  <outline>
    <contour>
      <point x="316" y="-110" type="curve" smooth="yes"/>
      <point x="327" y="-110"/>
      <point x="381" y="-107"/>
      <point x="389" y="-105" type="curve" smooth="yes"/>
      <point x="415" y="-100" type="line"/>
      <point x="413" y="-94" type="line"/>
      <point x="319" y="182"/>
      <point x="239" y="421"/>
      <point x="167" y="678" type="curve"/>
      <point x="164" y="682" type="line" smooth="yes"/>
      <point x="150" y="700"/>
      <point x="119" y="703"/>
      <point x="104" y="703" type="curve" smooth="yes"/>
      <point x="88" y="703"/>
      <point x="38" y="689"/>
      <point x="38" y="672" type="curve" smooth="yes"/>
      <point x="38" y="670" type="line"/>
      <point x="126" y="424"/>
      <point x="271" y="-43"/>
      <point x="275" y="-59" type="curve" smooth="yes"/>
      <point x="284" y="-94"/>
      <point x="292" y="-110"/>
    </contour>
  </outline>
</glyph>
<glyph name="bracketright" format="1">
  <advance width="361"/>
  <unicode hex="005D"/>
  <outline>
    <contour>
      <point x="62" y="-128" type="curve" smooth="yes"/>
      <point x="257" y="-128" type="line" smooth="yes"/>
      <point x="273" y="-128"/>
      <point x="283" y="-118"/>
      <point x="283" y="-101" type="curve" smooth="yes"/>
      <point x="283" y="761" type="line" smooth="yes"/>
      <point x="283" y="779"/>
      <point x="271" y="789"/>
      <point x="253" y="789" type="curve" smooth="yes"/>
      <point x="62" y="789" type="line" smooth="yes"/>
      <point x="48" y="789"/>
      <point x="46" y="772"/>
      <point x="46" y="763" type="curve" smooth="yes"/>
      <point x="46" y="754"/>
      <point x="48" y="735"/>
      <point x="62" y="735" type="curve" smooth="yes"/>
      <point x="145" y="735" type="line"/>
      <point x="145" y="-74" type="line"/>
      <point x="62" y="-74" type="line" smooth="yes"/>
      <point x="48" y="-74"/>
      <point x="46" y="-91"/>
      <point x="46" y="-100" type="curve" smooth="yes"/>
      <point x="46" y="-109"/>
      <point x="48" y="-128"/>
    </contour>
  </outline>
</glyph>
<glyph name="asciicircum" format="1">
  <advance width="537"/>
  <unicode hex="005E"/>
  <outline>
    <contour>
      <point x="108" y="546" type="line"/>
      <point x="270" y="637" type="line"/>
      <point x="432" y="546" type="line"/>
      <point x="435" y="547" type="line" smooth="yes"/>
      <point x="446" y="551"/>
      <point x="461" y="572"/>
      <point x="466" y="584" type="curve" smooth="yes"/>
      <point x="470" y="594" type="line"/>
      <point x="270" y="785" type="line"/>
      <point x="70" y="594" type="line"/>
      <point x="71" y="590" type="line" smooth="yes"/>
      <point x="74" y="578"/>
      <point x="93" y="551"/>
      <point x="105" y="547" type="curve" smooth="yes"/>
    </contour>
  </outline>
</glyph>
<glyph name="underscore" format="1">
  <advance width="296"/>
  <unicode hex="005F"/>
  <outline>
    <contour>
      <point x="0" y="-9" type="line"/>
      <point x="296" y="-9" type="line"/>
      <point x="296" y="89" type="line"/>
      <point x="0" y="89" type="line"/>
    </contour>
  </outline>
</glyph>
<glyph name="grave" format="1">
  <advance width="260"/>
  <unicode hex="0060"/>
  <outline>
    <contour>
      <point x="106" y="584" type="curve"/>
      <point x="147" y="584" type="line"/>
      <point x="127" y="615"/>
      <point x="108" y="648"/>
      <point x="89" y="681" type="curve" smooth="yes"/>
      <point x="66" y="721"/>
      <point x="44" y="753"/>
      <point x="35" y="762" type="curve" smooth="yes"/>
      <point x="20" y="777"/>
      <point x="7" y="780"/>
      <point x="-15" y="780" type="curve" smooth="yes"/>
      <point x="-41" y="780"/>
      <point x="-68" y="764"/>
      <point x="-68" y="739" type="curve" smooth="yes"/>
      <point x="-68" y="715"/>
      <point x="-49" y="693"/>
      <point x="-31" y="675" type="curve" smooth="yes"/>
      <point x="-18" y="662"/>
      <point x="53" y="617"/>
    </contour>
    <contour>
      <point x="147" y="507" type="move" name="_top"/>
    </contour>
  </outline>
</glyph>
<glyph name="a" format="1">
  <advance width="598"/>
  <unicode hex="0061"/>
  <outline>
    <contour>
      <point x="230" y="-10" type="curve" smooth="yes"/>
      <point x="297" y="-10"/>
      <point x="323" y="10"/>
      <point x="351" y="33" type="curve"/>
      <point x="356" y="23"/>
      <point x="405" y="-7"/>
      <point x="439" y="-7" type="curve" smooth="yes"/>
      <point x="475" y="-7"/>
      <point x="529" y="8"/>
      <point x="560" y="21" type="curve"/>
      <point x="557" y="62" type="line"/>
      <point x="546" y="59"/>
      <point x="531" y="56"/>
      <point x="520" y="54" type="curve"/>
      <point x="520" y="364" type="line" smooth="yes"/>
      <point x="520" y="427"/>
      <point x="450" y="512"/>
      <point x="290" y="512" type="curve" smooth="yes"/>
      <point x="232" y="512"/>
      <point x="139" y="507"/>
      <point x="75" y="437" type="curve" smooth="yes"/>
      <point x="72" y="433"/>
      <point x="68" y="422"/>
      <point x="68" y="416" type="curve" smooth="yes"/>
      <point x="68" y="389"/>
      <point x="101" y="352"/>
      <point x="129" y="352" type="curve" smooth="yes"/>
      <point x="180" y="352"/>
      <point x="203" y="386"/>
      <point x="222" y="417" type="curve" smooth="yes"/>
      <point x="237" y="441"/>
      <point x="256" y="464"/>
      <point x="282" y="464" type="curve" smooth="yes"/>
      <point x="312" y="464"/>
      <point x="346" y="441"/>
      <point x="348" y="390" type="curve" smooth="yes"/>
      <point x="349" y="376"/>
      <point x="350" y="351"/>
      <point x="350" y="327" type="curve"/>
      <point x="219" y="289"/>
      <point x="38" y="230"/>
      <point x="38" y="110" type="curve" smooth="yes"/>
      <point x="38" y="11"/>
      <point x="129" y="-10"/>
    </contour>
    <contour>
      <point x="274" y="55" type="curve" smooth="yes"/>
      <point x="241" y="55"/>
      <point x="211" y="88"/>
      <point x="211" y="135" type="curve" smooth="yes"/>
      <point x="211" y="184"/>
      <point x="243" y="230"/>
      <point x="346" y="263" type="curve"/>
      <point x="346" y="85" type="line"/>
      <point x="314" y="60"/>
      <point x="305" y="55"/>
    </contour>
    <contour>
      <point x="275" y="8" type="move" name="bottom"/>
    </contour>
    <contour>
      <point x="290" y="514" type="move" name="top"/>
    </contour>
  </outline>
</glyph>
<glyph name="b" format="1">
  <advance width="649"/>
  <unicode hex="0062"/>
  <outline>
    <contour>
      <point x="340" y="-10" type="curve" smooth="yes"/>
      <point x="505" y="-10"/>
      <point x="612" y="58"/>
      <point x="612" y="245" type="curve" smooth="yes"/>
      <point x="612" y="431"/>
      <point x="504" y="512"/>
      <point x="356" y="512" type="curve" smooth="yes"/>
      <point x="307" y="512"/>
      <point x="275" y="500"/>
      <point x="241" y="479" type="curve"/>
      <point x="241" y="721" type="line"/>
      <point x="241" y="731"/>
      <point x="241" y="748"/>
      <point x="228" y="748" type="curve" smooth="yes"/>
      <point x="227" y="748"/>
      <point x="222" y="747"/>
      <point x="213" y="745" type="curve"/>
      <point x="33" y="711" type="line"/>
      <point x="33" y="685" type="line"/>
      <point x="40" y="685" type="line"/>
      <point x="57" y="685"/>
      <point x="67" y="675"/>
      <point x="67" y="654" type="curve"/>
      <point x="67" y="59" type="line"/>
      <point x="67" y="48"/>
      <point x="54" y="34"/>
      <point x="38" y="34" type="curve"/>
      <point x="31" y="34" type="line"/>
      <point x="31" y="-4" type="line"/>
      <point x="38" y="-4" type="line"/>
      <point x="94" y="-4"/>
      <point x="209" y="7"/>
      <point x="230" y="26" type="curve"/>
      <point x="272" y="2"/>
      <point x="299" y="-10"/>
    </contour>
    <contour>
      <point x="342" y="40" type="curve" smooth="yes"/>
      <point x="284" y="40"/>
      <point x="257" y="77"/>
      <point x="241" y="135" type="curve"/>
      <point x="241" y="427" type="line"/>
      <point x="271" y="449"/>
      <point x="291" y="461"/>
      <point x="322" y="461" type="curve" smooth="yes"/>
      <point x="407" y="461"/>
      <point x="437" y="366"/>
      <point x="437" y="229" type="curve" smooth="yes"/>
      <point x="437" y="122"/>
      <point x="402" y="40"/>
    </contour>
  </outline>
</glyph>
<glyph name="c" format="1">
  <advance width="582"/>
  <unicode hex="0063"/>
  <outline>
    <contour>
      <point x="309" y="-10" type="curve" smooth="yes"/>
      <point x="429" y="-10"/>
      <point x="491" y="19"/>
      <point x="550" y="77" type="curve"/>
      <point x="522" y="116" type="line"/>
      <point x="467" y="61"/>
      <point x="422" y="44"/>
      <point x="345" y="44" type="curve" smooth="yes"/>
      <point x="246" y="44"/>
      <point x="215" y="187"/>
      <point x="215" y="279" type="curve" smooth="yes"/>
      <point x="215" y="394"/>
      <point x="274" y="478"/>
      <point x="333" y="478" type="curve" smooth="yes"/>
      <point x="365" y="478"/>
      <point x="381" y="450"/>
      <point x="398" y="420" type="curve" smooth="yes"/>
      <point x="416" y="387"/>
      <point x="435" y="353"/>
      <point x="479" y="353" type="curve" smooth="yes"/>
      <point x="502" y="353"/>
      <point x="551" y="388"/>
      <point x="551" y="416" type="curve" smooth="yes"/>
      <point x="551" y="422"/>
      <point x="548" y="426"/>
      <point x="544" y="431" type="curve" smooth="yes"/>
      <point x="489" y="496"/>
      <point x="384" y="513"/>
      <point x="324" y="513" type="curve" smooth="yes"/>
      <point x="101" y="513"/>
      <point x="43" y="360"/>
      <point x="43" y="266" type="curve" smooth="yes"/>
      <point x="43" y="62"/>
      <point x="181" y="-10"/>
    </contour>
    <contour>
      <point x="320" y="-13" type="move" name="bottom"/>
    </contour>
    <contour>
      <point x="318" y="520" type="move" name="top"/>
    </contour>
  </outline>
</glyph>
<glyph name="d" format="1">
  <advance width="665"/>
  <unicode hex="0064"/>
  <outline>
    <contour>
      <point x="304" y="-10" type="curve" smooth="yes"/>
      <point x="355" y="-10"/>
      <point x="374" y="2"/>
      <point x="408" y="24" type="curve"/>
      <point x="411" y="11"/>
      <point x="469" y="-7"/>
      <point x="511" y="-7" type="curve" smooth="yes"/>
      <point x="551" y="-7"/>
      <point x="592" y="8"/>
      <point x="621" y="21" type="curve"/>
      <point x="617" y="62" type="line"/>
      <point x="607" y="59"/>
      <point x="591" y="56"/>
      <point x="580" y="54" type="curve"/>
      <point x="580" y="723" type="line"/>
      <point x="580" y="732"/>
      <point x="580" y="738"/>
      <point x="576" y="743" type="curve" smooth="yes"/>
      <point x="574" y="746"/>
      <point x="570" y="748"/>
      <point x="567" y="748" type="curve" smooth="yes"/>
      <point x="565" y="748"/>
      <point x="560" y="747"/>
      <point x="541" y="743" type="curve"/>
      <point x="371" y="711" type="line"/>
      <point x="371" y="681" type="line"/>
      <point x="378" y="681" type="line" smooth="yes"/>
      <point x="396" y="681"/>
      <point x="406" y="672"/>
      <point x="406" y="650" type="curve" smooth="yes"/>
      <point x="406" y="490" type="line"/>
      <point x="368" y="507"/>
      <point x="355" y="513"/>
      <point x="301" y="513" type="curve" smooth="yes"/>
      <point x="152" y="513"/>
      <point x="37" y="428"/>
      <point x="37" y="264" type="curve" smooth="yes"/>
      <point x="37" y="64"/>
      <point x="163" y="-10"/>
    </contour>
    <contour>
      <point x="322" y="39" type="curve" smooth="yes"/>
      <point x="257" y="39"/>
      <point x="210" y="132"/>
      <point x="210" y="275" type="curve" smooth="yes"/>
      <point x="210" y="386"/>
      <point x="252" y="477"/>
      <point x="314" y="477" type="curve" smooth="yes"/>
      <point x="376" y="477"/>
      <point x="393" y="450"/>
      <point x="406" y="389" type="curve"/>
      <point x="406" y="69" type="line"/>
      <point x="377" y="46"/>
      <point x="354" y="39"/>
    </contour>
    <contour>
      <point x="307" y="-18" type="move" name="bottom"/>
    </contour>
    <contour>
      <point x="488" y="736" type="move" name="top"/>
    </contour>
  </outline>
</glyph>
<glyph name="e" format="1">
  <advance width="615"/>
  <unicode hex="0065"/>
  <outline>
    <contour>
      <point x="350" y="-11" type="curve" smooth="yes"/>
      <point x="475" y="-11"/>
      <point x="517" y="26"/>
      <point x="571" y="86" type="curve"/>
      <point x="547" y="117" type="line"/>
      <point x="498" y="73"/>
      <point x="429" y="43"/>
      <point x="373" y="43" type="curve" smooth="yes"/>
      <point x="301" y="43"/>
      <point x="233" y="138"/>
      <point x="233" y="242" type="curve" smooth="yes"/>
      <point x="233" y="262"/>
      <point x="235" y="283"/>
      <point x="240" y="302" type="curve"/>
      <point x="581" y="302" type="line"/>
      <point x="581" y="308"/>
      <point x="581" y="312"/>
      <point x="581" y="318" type="curve" smooth="yes"/>
      <point x="581" y="415"/>
      <point x="485" y="512"/>
      <point x="343" y="512" type="curve" smooth="yes"/>
      <point x="171" y="512"/>
      <point x="41" y="428"/>
      <point x="41" y="256" type="curve" smooth="yes"/>
      <point x="41" y="71"/>
      <point x="168" y="-11"/>
    </contour>
    <contour>
      <point x="339" y="362" type="curve" smooth="yes"/>
      <point x="307" y="362"/>
      <point x="281" y="365"/>
      <point x="252" y="369" type="curve"/>
      <point x="258" y="412"/>
      <point x="293" y="470"/>
      <point x="343" y="470" type="curve" smooth="yes"/>
      <point x="385" y="470"/>
      <point x="420" y="423"/>
      <point x="425" y="365" type="curve"/>
      <point x="396" y="363"/>
      <point x="371" y="362"/>
    </contour>
  </outline>
</glyph>
<glyph name="f" format="1">
  <advance width="591"/>
  <unicode hex="0066"/>
  <outline>
    <contour>
      <point x="81" y="0" type="line"/>
      <point x="332" y="0" type="line"/>
      <point x="332" y="33" type="line"/>
      <point x="325" y="33" type="line" smooth="yes"/>
      <point x="310" y="33"/>
      <point x="296" y="46"/>
      <point x="296" y="57" type="curve"/>
      <point x="296" y="452" type="line"/>
      <point x="340" y="452"/>
      <point x="388" y="450"/>
      <point x="408" y="449" type="curve"/>
      <point x="411" y="454"/>
      <point x="417" y="479"/>
      <point x="417" y="486" type="curve" smooth="yes"/>
      <point x="417" y="500"/>
      <point x="402" y="505"/>
      <point x="380" y="505" type="curve" smooth="yes"/>
      <point x="290" y="505" type="line"/>
      <point x="290" y="585" type="line"/>
      <point x="290" y="676"/>
      <point x="315" y="721"/>
      <point x="369" y="721" type="curve" smooth="yes"/>
      <point x="397" y="721"/>
      <point x="405" y="698"/>
      <point x="413" y="673" type="curve" smooth="yes"/>
      <point x="423" y="642"/>
      <point x="435" y="609"/>
      <point x="483" y="609" type="curve" smooth="yes"/>
      <point x="522" y="609"/>
      <point x="553" y="640"/>
      <point x="553" y="664" type="curve" smooth="yes"/>
      <point x="553" y="669"/>
      <point x="550" y="679"/>
      <point x="548" y="684" type="curve" smooth="yes"/>
      <point x="507" y="750"/>
      <point x="443" y="766"/>
      <point x="379" y="766" type="curve" smooth="yes"/>
      <point x="255" y="766"/>
      <point x="117" y="704"/>
      <point x="117" y="556" type="curve" smooth="yes"/>
      <point x="117" y="543"/>
      <point x="117" y="513"/>
      <point x="117" y="501" type="curve"/>
      <point x="70" y="501" type="line"/>
      <point x="62" y="447" type="line"/>
      <point x="73" y="450"/>
      <point x="81" y="452"/>
      <point x="117" y="452" type="curve"/>
      <point x="117" y="58" type="line"/>
      <point x="117" y="46"/>
      <point x="103" y="33"/>
      <point x="88" y="33" type="curve" smooth="yes"/>
      <point x="81" y="33" type="line"/>
    </contour>
  </outline>
</glyph>
<glyph name="g" format="1">
  <advance width="604"/>
  <unicode hex="0067"/>
  <outline>
    <contour>
      <point x="280" y="-243" type="curve" smooth="yes"/>
      <point x="406" y="-243"/>
      <point x="570" y="-186"/>
      <point x="570" y="-73" type="curve" smooth="yes"/>
      <point x="570" y="1"/>
      <point x="506" y="16"/>
      <point x="425" y="26" type="curve"/>
      <point x="313" y="40" type="line"/>
      <point x="303" y="41"/>
      <point x="285" y="44"/>
      <point x="272" y="47" type="curve" smooth="yes"/>
      <point x="266" y="48"/>
      <point x="261" y="51"/>
      <point x="261" y="57" type="curve" smooth="yes"/>
      <point x="261" y="63"/>
      <point x="266" y="66"/>
      <point x="271" y="67" type="curve"/>
      <point x="296" y="74" type="line"/>
      <point x="407" y="106"/>
      <point x="513" y="136"/>
      <point x="513" y="296" type="curve" smooth="yes"/>
      <point x="513" y="352"/>
      <point x="506" y="385"/>
      <point x="488" y="408" type="curve"/>
      <point x="490" y="408"/>
      <point x="497" y="408"/>
      <point x="500" y="408" type="curve" smooth="yes"/>
      <point x="540" y="408"/>
      <point x="564" y="436"/>
      <point x="564" y="476" type="curve" smooth="yes"/>
      <point x="564" y="491"/>
      <point x="552" y="504"/>
      <point x="536" y="504" type="curve" smooth="yes"/>
      <point x="488" y="504"/>
      <point x="470" y="492"/>
      <point x="448" y="477" type="curve"/>
      <point x="432" y="466" type="line"/>
      <point x="398" y="490"/>
      <point x="327" y="500"/>
      <point x="286" y="500" type="curve" smooth="yes"/>
      <point x="272" y="500"/>
      <point x="258" y="500"/>
      <point x="245" y="498" type="curve" smooth="yes"/>
      <point x="158" y="486"/>
      <point x="61" y="429"/>
      <point x="61" y="312" type="curve" smooth="yes"/>
      <point x="61" y="185"/>
      <point x="134" y="129"/>
      <point x="208" y="113" type="curve"/>
      <point x="162" y="102"/>
      <point x="75" y="80"/>
      <point x="75" y="41" type="curve" smooth="yes"/>
      <point x="75" y="15"/>
      <point x="111" y="3"/>
      <point x="140" y="-3" type="curve" smooth="yes"/>
      <point x="155" y="-6"/>
      <point x="173" y="-9"/>
      <point x="197" y="-11" type="curve"/>
      <point x="128" y="-31"/>
      <point x="30" y="-60"/>
      <point x="30" y="-135" type="curve" smooth="yes"/>
      <point x="30" y="-224"/>
      <point x="175" y="-243"/>
    </contour>
    <contour>
      <point x="291" y="-202" type="curve" smooth="yes"/>
      <point x="246" y="-202"/>
      <point x="199" y="-168"/>
      <point x="199" y="-121" type="curve" smooth="yes"/>
      <point x="199" y="-81"/>
      <point x="219" y="-43"/>
      <point x="275" y="-25" type="curve"/>
      <point x="278" y="-25"/>
      <point x="295" y="-25"/>
      <point x="308" y="-26" type="curve"/>
      <point x="367" y="-29"/>
      <point x="419" y="-50"/>
      <point x="419" y="-100" type="curve" smooth="yes"/>
      <point x="419" y="-149"/>
      <point x="366" y="-202"/>
    </contour>
    <contour>
      <point x="299" y="152" type="curve" smooth="yes"/>
      <point x="253" y="152"/>
      <point x="214" y="216"/>
      <point x="214" y="320" type="curve" smooth="yes"/>
      <point x="214" y="383"/>
      <point x="246" y="453"/>
      <point x="276" y="453" type="curve" smooth="yes"/>
      <point x="325" y="453"/>
      <point x="359" y="390"/>
      <point x="359" y="298" type="curve" smooth="yes"/>
      <point x="359" y="228"/>
      <point x="342" y="152"/>
    </contour>
  </outline>
</glyph>
<glyph name="h" format="1">
  <advance width="659"/>
  <unicode hex="0068"/>
  <outline>
    <contour>
      <point x="46" y="0" type="line"/>
      <point x="292" y="0" type="line"/>
      <point x="292" y="33" type="line"/>
      <point x="285" y="33" type="line" smooth="yes"/>
      <point x="270" y="33"/>
      <point x="256" y="46"/>
      <point x="256" y="58" type="curve"/>
      <point x="256" y="428" type="line"/>
      <point x="299" y="455"/>
      <point x="312" y="463"/>
      <point x="341" y="463" type="curve" smooth="yes"/>
      <point x="403" y="463"/>
      <point x="418" y="414"/>
      <point x="418" y="348" type="curve" smooth="yes"/>
      <point x="418" y="58" type="line"/>
      <point x="418" y="46"/>
      <point x="405" y="33"/>
      <point x="389" y="33" type="curve" smooth="yes"/>
      <point x="382" y="33" type="line"/>
      <point x="382" y="0" type="line"/>
      <point x="618" y="0" type="line"/>
      <point x="618" y="33" type="line"/>
      <point x="611" y="33" type="line" smooth="yes"/>
      <point x="596" y="33"/>
      <point x="582" y="46"/>
      <point x="582" y="57" type="curve"/>
      <point x="582" y="349" type="line" smooth="yes"/>
      <point x="582" y="459"/>
      <point x="469" y="513"/>
      <point x="371" y="513" type="curve" smooth="yes"/>
      <point x="321" y="513"/>
      <point x="295" y="503"/>
      <point x="256" y="478" type="curve"/>
      <point x="256" y="717" type="line"/>
      <point x="256" y="727"/>
      <point x="256" y="746"/>
      <point x="243" y="746" type="curve" smooth="yes"/>
      <point x="242" y="746"/>
      <point x="240" y="746"/>
      <point x="214" y="741" type="curve" smooth="yes"/>
      <point x="48" y="710" type="line"/>
      <point x="48" y="680" type="line"/>
      <point x="55" y="680" type="line"/>
      <point x="72" y="680"/>
      <point x="82" y="670"/>
      <point x="82" y="648" type="curve"/>
      <point x="82" y="59" type="line"/>
      <point x="82" y="47"/>
      <point x="69" y="33"/>
      <point x="53" y="33" type="curve" smooth="yes"/>
      <point x="46" y="33" type="line"/>
    </contour>
  </outline>
</glyph>
<glyph name="i" format="1">
  <advance width="375"/>
  <unicode hex="0069"/>
  <outline>
    <contour>
      <point x="67" y="0" type="line"/>
      <point x="313" y="0" type="line"/>
      <point x="313" y="33" type="line"/>
      <point x="306" y="33" type="line" smooth="yes"/>
      <point x="291" y="33"/>
      <point x="277" y="46"/>
      <point x="277" y="57" type="curve"/>
      <point x="277" y="486" type="line" smooth="yes"/>
      <point x="277" y="495"/>
      <point x="277" y="509"/>
      <point x="264" y="509" type="curve" smooth="yes"/>
      <point x="263" y="509"/>
      <point x="261" y="509"/>
      <point x="228" y="503" type="curve" smooth="yes"/>
      <point x="69" y="473" type="line"/>
      <point x="69" y="443" type="line"/>
      <point x="76" y="443" type="line" smooth="yes"/>
      <point x="93" y="443"/>
      <point x="103" y="434"/>
      <point x="103" y="414" type="curve" smooth="yes"/>
      <point x="103" y="58" type="line"/>
      <point x="103" y="46"/>
      <point x="90" y="33"/>
      <point x="74" y="33" type="curve" smooth="yes"/>
      <point x="67" y="33" type="line"/>
    </contour>
    <contour>
      <point x="181" y="550" type="curve" smooth="yes"/>
      <point x="234" y="550"/>
      <point x="277" y="592"/>
      <point x="277" y="644" type="curve" smooth="yes"/>
      <point x="277" y="696"/>
      <point x="234" y="739"/>
      <point x="181" y="739" type="curve" smooth="yes"/>
      <point x="127" y="739"/>
      <point x="84" y="696"/>
      <point x="84" y="644" type="curve" smooth="yes"/>
      <point x="84" y="592"/>
      <point x="127" y="550"/>
    </contour>
  </outline>
</glyph>
<glyph name="j" format="1">
  <advance width="352"/>
  <unicode hex="006A"/>
  <outline>
    <contour>
      <point x="-6" y="-154" type="curve" smooth="yes"/>
      <point x="70" y="-154"/>
      <point x="160" y="-140"/>
      <point x="220" y="-92" type="curve" smooth="yes"/>
      <point x="268" y="-53"/>
      <point x="286" y="0"/>
      <point x="286" y="50" type="curve"/>
      <point x="286" y="483" type="line"/>
      <point x="286" y="493"/>
      <point x="286" y="506"/>
      <point x="272" y="506" type="curve" smooth="yes"/>
      <point x="270" y="506"/>
      <point x="265" y="505"/>
      <point x="235" y="499" type="curve"/>
      <point x="79" y="470" type="line"/>
      <point x="79" y="444" type="line"/>
      <point x="86" y="444" type="line"/>
      <point x="102" y="444"/>
      <point x="113" y="433"/>
      <point x="113" y="413" type="curve"/>
      <point x="113" y="53" type="line"/>
      <point x="113" y="1"/>
      <point x="110" y="-45"/>
      <point x="70" y="-67" type="curve" smooth="yes"/>
      <point x="59" y="-73"/>
      <point x="51" y="-74"/>
      <point x="44" y="-74" type="curve" smooth="yes"/>
      <point x="32" y="-74"/>
      <point x="22" y="-69"/>
      <point x="12" y="-63" type="curve" smooth="yes"/>
      <point x="0" y="-56"/>
      <point x="-13" y="-49"/>
      <point x="-32" y="-49" type="curve" smooth="yes"/>
      <point x="-63" y="-49"/>
      <point x="-105" y="-67"/>
      <point x="-105" y="-101" type="curve" smooth="yes"/>
      <point x="-105" y="-137"/>
      <point x="-57" y="-154"/>
    </contour>
    <contour>
      <point x="190" y="550" type="curve" smooth="yes"/>
      <point x="243" y="550"/>
      <point x="286" y="592"/>
      <point x="286" y="644" type="curve" smooth="yes"/>
      <point x="286" y="696"/>
      <point x="243" y="739"/>
      <point x="190" y="739" type="curve" smooth="yes"/>
      <point x="136" y="739"/>
      <point x="93" y="696"/>
      <point x="93" y="644" type="curve" smooth="yes"/>
      <point x="93" y="592"/>
      <point x="136" y="550"/>
    </contour>
  </outline>
</glyph>
<glyph name="k" format="1">
  <advance width="681"/>
  <unicode hex="006B"/>
  <outline>
    <contour>
      <point x="51" y="0" type="line"/>
      <point x="297" y="0" type="line"/>
      <point x="297" y="33" type="line"/>
      <point x="290" y="33" type="line"/>
      <point x="274" y="33"/>
      <point x="261" y="46"/>
      <point x="261" y="57" type="curve"/>
      <point x="261" y="199" type="line"/>
      <point x="263" y="200"/>
      <point x="271" y="204"/>
      <point x="275" y="204" type="curve" smooth="yes"/>
      <point x="302" y="204"/>
      <point x="406" y="80"/>
      <point x="406" y="53" type="curve" smooth="yes"/>
      <point x="406" y="42"/>
      <point x="395" y="33"/>
      <point x="387" y="33" type="curve"/>
      <point x="380" y="33" type="line"/>
      <point x="380" y="0" type="line"/>
      <point x="644" y="0" type="line"/>
      <point x="644" y="33" type="line"/>
      <point x="637" y="33" type="line"/>
      <point x="614" y="33"/>
      <point x="602" y="49"/>
      <point x="587" y="70" type="curve" smooth="yes"/>
      <point x="581" y="79"/>
      <point x="573" y="90"/>
      <point x="558" y="107" type="curve" smooth="yes"/>
      <point x="540" y="128"/>
      <point x="503" y="173"/>
      <point x="474" y="209" type="curve" smooth="yes"/>
      <point x="450" y="238"/>
      <point x="430" y="260"/>
      <point x="416" y="275" type="curve" smooth="yes"/>
      <point x="395" y="298"/>
      <point x="385" y="310"/>
      <point x="382" y="318" type="curve"/>
      <point x="438" y="360"/>
      <point x="469" y="391"/>
      <point x="490" y="414" type="curve" smooth="yes"/>
      <point x="505" y="431"/>
      <point x="518" y="444"/>
      <point x="534" y="455" type="curve" smooth="yes"/>
      <point x="544" y="462"/>
      <point x="562" y="473"/>
      <point x="580" y="473" type="curve"/>
      <point x="587" y="473" type="line"/>
      <point x="587" y="507" type="line"/>
      <point x="382" y="507" type="line"/>
      <point x="382" y="473" type="line"/>
      <point x="387" y="473" type="line"/>
      <point x="397" y="473"/>
      <point x="406" y="468"/>
      <point x="406" y="458" type="curve" smooth="yes"/>
      <point x="406" y="447"/>
      <point x="404" y="432"/>
      <point x="355" y="398" type="curve"/>
      <point x="341" y="388" type="line"/>
      <point x="287" y="350"/>
      <point x="277" y="343"/>
      <point x="272" y="343" type="curve" smooth="yes"/>
      <point x="267" y="343"/>
      <point x="261" y="348"/>
      <point x="261" y="364" type="curve"/>
      <point x="261" y="722" type="line"/>
      <point x="261" y="735"/>
      <point x="260" y="746"/>
      <point x="248" y="746" type="curve" smooth="yes"/>
      <point x="243" y="746"/>
      <point x="237" y="745"/>
      <point x="200" y="737" type="curve"/>
      <point x="53" y="707" type="line"/>
      <point x="53" y="678" type="line"/>
      <point x="60" y="678" type="line"/>
      <point x="78" y="678"/>
      <point x="87" y="668"/>
      <point x="87" y="644" type="curve"/>
      <point x="87" y="58" type="line"/>
      <point x="87" y="47"/>
      <point x="75" y="33"/>
      <point x="58" y="33" type="curve"/>
      <point x="51" y="33" type="line"/>
    </contour>
    <contour>
      <point x="341" y="-5" type="move" name="bottom"/>
    </contour>
    <contour>
      <point x="158" y="740" type="move" name="top"/>
    </contour>
  </outline>
</glyph>
<glyph name="l" format="1">
  <advance width="330"/>
  <unicode hex="006C"/>
  <outline>
    <contour>
      <point x="250" y="58" type="line"/>
      <point x="250" y="46"/>
      <point x="264" y="33"/>
      <point x="279" y="33" type="curve"/>
      <point x="286" y="33" type="line"/>
      <point x="286" y="0" type="line"/>
      <point x="40" y="0" type="line"/>
      <point x="40" y="33" type="line"/>
      <point x="47" y="33" type="line"/>
      <point x="63" y="33"/>
      <point x="76" y="47"/>
      <point x="76" y="58" type="curve"/>
      <point x="76" y="670" type="line"/>
      <point x="76" y="691"/>
      <point x="66" y="701"/>
      <point x="49" y="701" type="curve"/>
      <point x="42" y="701" type="line"/>
      <point x="42" y="731" type="line"/>
      <point x="196" y="761" type="line"/>
      <point x="230" y="768"/>
      <point x="236" y="769"/>
      <point x="237" y="769" type="curve" smooth="yes"/>
      <point x="250" y="769"/>
      <point x="250" y="752"/>
      <point x="250" y="742" type="curve"/>
    </contour>
  </outline>
</glyph>
<glyph name="m" format="1">
  <advance width="973"/>
  <unicode hex="006D"/>
  <outline>
    <contour>
      <point x="37" y="0" type="line"/>
      <point x="283" y="0" type="line"/>
      <point x="283" y="33" type="line"/>
      <point x="276" y="33" type="line"/>
      <point x="261" y="33"/>
      <point x="247" y="46"/>
      <point x="247" y="57" type="curve"/>
      <point x="247" y="415" type="line"/>
      <point x="284" y="441"/>
      <point x="301" y="447"/>
      <point x="333" y="447" type="curve" smooth="yes"/>
      <point x="370" y="447"/>
      <point x="410" y="399"/>
      <point x="410" y="333" type="curve"/>
      <point x="410" y="58" type="line"/>
      <point x="410" y="46"/>
      <point x="396" y="33"/>
      <point x="380" y="33" type="curve"/>
      <point x="373" y="33" type="line"/>
      <point x="373" y="0" type="line"/>
      <point x="615" y="0" type="line"/>
      <point x="615" y="33" type="line"/>
      <point x="609" y="33" type="line"/>
      <point x="593" y="33"/>
      <point x="579" y="46"/>
      <point x="579" y="57" type="curve"/>
      <point x="579" y="360" type="line"/>
      <point x="579" y="365"/>
      <point x="579" y="368"/>
      <point x="578" y="374" type="curve"/>
      <point x="602" y="427"/>
      <point x="638" y="447"/>
      <point x="667" y="447" type="curve" smooth="yes"/>
      <point x="699" y="447"/>
      <point x="743" y="413"/>
      <point x="743" y="336" type="curve"/>
      <point x="743" y="58" type="line"/>
      <point x="743" y="46"/>
      <point x="730" y="33"/>
      <point x="714" y="33" type="curve"/>
      <point x="707" y="33" type="line"/>
      <point x="707" y="0" type="line"/>
      <point x="937" y="0" type="line"/>
      <point x="937" y="33" type="line"/>
      <point x="930" y="33" type="line"/>
      <point x="915" y="33"/>
      <point x="901" y="46"/>
      <point x="901" y="57" type="curve"/>
      <point x="901" y="346" type="line"/>
      <point x="901" y="456"/>
      <point x="801" y="508"/>
      <point x="703" y="508" type="curve" smooth="yes"/>
      <point x="635" y="508"/>
      <point x="554" y="493"/>
      <point x="512" y="432" type="curve"/>
      <point x="479" y="487"/>
      <point x="429" y="511"/>
      <point x="366" y="511" type="curve" smooth="yes"/>
      <point x="305" y="511"/>
      <point x="283" y="495"/>
      <point x="247" y="468" type="curve"/>
      <point x="247" y="490" type="line"/>
      <point x="247" y="499"/>
      <point x="247" y="513"/>
      <point x="234" y="513" type="curve" smooth="yes"/>
      <point x="233" y="513"/>
      <point x="231" y="513"/>
      <point x="206" y="508" type="curve"/>
      <point x="39" y="478" type="line"/>
      <point x="39" y="448" type="line"/>
      <point x="44" y="448" type="line"/>
      <point x="61" y="448"/>
      <point x="73" y="438"/>
      <point x="73" y="417" type="curve"/>
      <point x="73" y="58" type="line"/>
      <point x="73" y="46"/>
      <point x="60" y="33"/>
      <point x="44" y="33" type="curve"/>
      <point x="37" y="33" type="line"/>
    </contour>
    <contour>
      <point x="489" y="-1" type="move" name="bottom"/>
    </contour>
    <contour>
      <point x="503" y="506" type="move" name="top"/>
    </contour>
  </outline>
</glyph>
<glyph name="n" format="1">
  <advance width="658"/>
  <unicode hex="006E"/>
  <outline>
    <contour>
      <point x="37" y="0" type="line"/>
      <point x="283" y="0" type="line"/>
      <point x="283" y="33" type="line"/>
      <point x="276" y="33" type="line"/>
      <point x="261" y="33"/>
      <point x="247" y="44"/>
      <point x="247" y="55" type="curve"/>
      <point x="247" y="422" type="line"/>
      <point x="286" y="449"/>
      <point x="315" y="457"/>
      <point x="346" y="457" type="curve" smooth="yes"/>
      <point x="384" y="457"/>
      <point x="420" y="404"/>
      <point x="420" y="338" type="curve"/>
      <point x="420" y="59" type="line"/>
      <point x="420" y="46"/>
      <point x="406" y="33"/>
      <point x="390" y="33" type="curve"/>
      <point x="383" y="33" type="line"/>
      <point x="383" y="0" type="line"/>
      <point x="618" y="0" type="line"/>
      <point x="618" y="33" type="line"/>
      <point x="612" y="33" type="line"/>
      <point x="597" y="33"/>
      <point x="582" y="46"/>
      <point x="582" y="57" type="curve"/>
      <point x="582" y="349" type="line"/>
      <point x="582" y="459"/>
      <point x="485" y="512"/>
      <point x="378" y="512" type="curve" smooth="yes"/>
      <point x="320" y="512"/>
      <point x="287" y="504"/>
      <point x="247" y="478" type="curve"/>
      <point x="247" y="489" type="line"/>
      <point x="247" y="504"/>
      <point x="245" y="514"/>
      <point x="234" y="514" type="curve" smooth="yes"/>
      <point x="231" y="514"/>
      <point x="226" y="513"/>
      <point x="201" y="508" type="curve"/>
      <point x="39" y="476" type="line"/>
      <point x="39" y="446" type="line"/>
      <point x="46" y="446" type="line"/>
      <point x="63" y="446"/>
      <point x="73" y="436"/>
      <point x="73" y="415" type="curve"/>
      <point x="73" y="58" type="line"/>
      <point x="73" y="46"/>
      <point x="60" y="33"/>
      <point x="44" y="33" type="curve"/>
      <point x="37" y="33" type="line"/>
    </contour>
  </outline>
</glyph>
<glyph name="o" format="1">
  <advance width="617"/>
  <unicode hex="006F"/>
  <outline>
    <contour>
      <point x="313" y="-10" type="curve" smooth="yes"/>
      <point x="477" y="-10"/>
      <point x="583" y="58"/>
      <point x="583" y="254" type="curve" smooth="yes"/>
      <point x="583" y="439"/>
      <point x="452" y="512"/>
      <point x="303" y="512" type="curve" smooth="yes"/>
      <point x="143" y="512"/>
      <point x="35" y="439"/>
      <point x="35" y="254" type="curve" smooth="yes"/>
      <point x="35" y="63"/>
      <point x="152" y="-10"/>
    </contour>
    <contour>
      <point x="320" y="45" type="curve" smooth="yes"/>
      <point x="236" y="45"/>
      <point x="205" y="134"/>
      <point x="205" y="275" type="curve" smooth="yes"/>
      <point x="205" y="382"/>
      <point x="241" y="472"/>
      <point x="300" y="472" type="curve" smooth="yes"/>
      <point x="380" y="472"/>
      <point x="413" y="377"/>
      <point x="413" y="236" type="curve" smooth="yes"/>
      <point x="413" y="153"/>
      <point x="389" y="45"/>
    </contour>
  </outline>
</glyph>
<glyph name="p" format="1">
  <advance width="639"/>
  <unicode hex="0070"/>
  <outline>
    <contour>
      <point x="33" y="-232" type="line"/>
      <point x="269" y="-232" type="line"/>
      <point x="269" y="-200" type="line"/>
      <point x="264" y="-199" type="line"/>
      <point x="248" y="-199"/>
      <point x="233" y="-186"/>
      <point x="233" y="-174" type="curve"/>
      <point x="233" y="12" type="line"/>
      <point x="275" y="-8"/>
      <point x="298" y="-13"/>
      <point x="336" y="-13" type="curve" smooth="yes"/>
      <point x="505" y="-13"/>
      <point x="589" y="65"/>
      <point x="589" y="250" type="curve" smooth="yes"/>
      <point x="589" y="432"/>
      <point x="468" y="512"/>
      <point x="333" y="512" type="curve" smooth="yes"/>
      <point x="292" y="512"/>
      <point x="273" y="505"/>
      <point x="249" y="493" type="curve" smooth="yes"/>
      <point x="241" y="489"/>
      <point x="239" y="488"/>
      <point x="233" y="486" type="curve"/>
      <point x="233" y="503"/>
      <point x="230" y="513"/>
      <point x="221" y="513" type="curve" smooth="yes"/>
      <point x="220" y="513"/>
      <point x="217" y="513"/>
      <point x="191" y="508" type="curve"/>
      <point x="35" y="475" type="line"/>
      <point x="35" y="444" type="line"/>
      <point x="42" y="444" type="line"/>
      <point x="59" y="444"/>
      <point x="69" y="435"/>
      <point x="69" y="414" type="curve"/>
      <point x="69" y="-174" type="line"/>
      <point x="69" y="-186"/>
      <point x="56" y="-199"/>
      <point x="40" y="-199" type="curve"/>
      <point x="33" y="-200" type="line"/>
    </contour>
    <contour>
      <point x="319" y="31" type="curve" smooth="yes"/>
      <point x="282" y="31"/>
      <point x="247" y="70"/>
      <point x="233" y="119" type="curve"/>
      <point x="233" y="423" type="line"/>
      <point x="260" y="441"/>
      <point x="286" y="458"/>
      <point x="315" y="458" type="curve" smooth="yes"/>
      <point x="384" y="458"/>
      <point x="428" y="380"/>
      <point x="428" y="226" type="curve" smooth="yes"/>
      <point x="428" y="109"/>
      <point x="372" y="31"/>
    </contour>
  </outline>
</glyph>
<glyph name="q" format="1">
  <advance width="631"/>
  <unicode hex="0071"/>
  <outline>
    <contour>
      <point x="376" y="-232" type="line"/>
      <point x="614" y="-232" type="line"/>
      <point x="614" y="-199" type="line"/>
      <point x="607" y="-198" type="line"/>
      <point x="591" y="-198"/>
      <point x="578" y="-185"/>
      <point x="578" y="-173" type="curve"/>
      <point x="578" y="486" type="line"/>
      <point x="578" y="495"/>
      <point x="578" y="510"/>
      <point x="565" y="510" type="curve" smooth="yes"/>
      <point x="563" y="510"/>
      <point x="558" y="509"/>
      <point x="530" y="503" type="curve"/>
      <point x="413" y="480" type="line"/>
      <point x="370" y="499"/>
      <point x="334" y="512"/>
      <point x="295" y="512" type="curve" smooth="yes"/>
      <point x="132" y="512"/>
      <point x="26" y="438"/>
      <point x="26" y="250" type="curve" smooth="yes"/>
      <point x="26" y="77"/>
      <point x="152" y="-13"/>
      <point x="301" y="-13" type="curve" smooth="yes"/>
      <point x="348" y="-13"/>
      <point x="377" y="2"/>
      <point x="412" y="21" type="curve"/>
      <point x="412" y="-173" type="line"/>
      <point x="412" y="-185"/>
      <point x="400" y="-198"/>
      <point x="383" y="-198" type="curve"/>
      <point x="376" y="-199" type="line"/>
    </contour>
    <contour>
      <point x="314" y="38" type="curve" smooth="yes"/>
      <point x="234" y="38"/>
      <point x="192" y="153"/>
      <point x="192" y="274" type="curve" smooth="yes"/>
      <point x="192" y="422"/>
      <point x="272" y="470"/>
      <point x="312" y="470" type="curve" smooth="yes"/>
      <point x="353" y="470"/>
      <point x="383" y="436"/>
      <point x="412" y="402" type="curve"/>
      <point x="412" y="73" type="line"/>
      <point x="380" y="46"/>
      <point x="342" y="38"/>
    </contour>
  </outline>
</glyph>
<glyph name="r" format="1">
  <advance width="490"/>
  <unicode hex="0072"/>
  <outline>
    <contour>
      <point x="34" y="0" type="line"/>
      <point x="280" y="0" type="line"/>
      <point x="280" y="33" type="line"/>
      <point x="272" y="33" type="line"/>
      <point x="259" y="33"/>
      <point x="244" y="46"/>
      <point x="244" y="57" type="curve"/>
      <point x="244" y="363" type="line"/>
      <point x="253" y="384"/>
      <point x="283" y="408"/>
      <point x="317" y="408" type="curve" smooth="yes"/>
      <point x="327" y="408"/>
      <point x="336" y="399"/>
      <point x="345" y="388" type="curve" smooth="yes"/>
      <point x="356" y="375"/>
      <point x="370" y="359"/>
      <point x="391" y="359" type="curve" smooth="yes"/>
      <point x="431" y="359"/>
      <point x="468" y="408"/>
      <point x="468" y="458" type="curve" smooth="yes"/>
      <point x="468" y="498"/>
      <point x="397" y="507"/>
      <point x="371" y="507" type="curve" smooth="yes"/>
      <point x="311" y="507"/>
      <point x="277" y="477"/>
      <point x="244" y="447" type="curve"/>
      <point x="244" y="489" type="line"/>
      <point x="244" y="499"/>
      <point x="244" y="513"/>
      <point x="231" y="513" type="curve" smooth="yes"/>
      <point x="230" y="513"/>
      <point x="228" y="513"/>
      <point x="206" y="509" type="curve"/>
      <point x="36" y="476" type="line"/>
      <point x="36" y="447" type="line"/>
      <point x="43" y="447" type="line"/>
      <point x="60" y="447"/>
      <point x="70" y="439"/>
      <point x="70" y="419" type="curve"/>
      <point x="70" y="58" type="line"/>
      <point x="70" y="46"/>
      <point x="57" y="33"/>
      <point x="41" y="33" type="curve"/>
      <point x="34" y="33" type="line"/>
    </contour>
  </outline>
</glyph>
<glyph name="s" format="1">
  <advance width="484"/>
  <unicode hex="0073"/>
  <outline>
    <contour>
      <point x="220" y="-10" type="curve" smooth="yes"/>
      <point x="319" y="-10"/>
      <point x="449" y="41"/>
      <point x="449" y="144" type="curve" smooth="yes"/>
      <point x="449" y="223"/>
      <point x="390" y="259"/>
      <point x="337" y="292" type="curve"/>
      <point x="296" y="318" type="line"/>
      <point x="263" y="339"/>
      <point x="233" y="366"/>
      <point x="233" y="399" type="curve" smooth="yes"/>
      <point x="233" y="422"/>
      <point x="257" y="468"/>
      <point x="291" y="468" type="curve" smooth="yes"/>
      <point x="322" y="468"/>
      <point x="337" y="442"/>
      <point x="350" y="418" type="curve" smooth="yes"/>
      <point x="360" y="400"/>
      <point x="370" y="383"/>
      <point x="386" y="383" type="curve" smooth="yes"/>
      <point x="416" y="383"/>
      <point x="426" y="449"/>
      <point x="426" y="464" type="curve" smooth="yes"/>
      <point x="426" y="492"/>
      <point x="342" y="506"/>
      <point x="282" y="506" type="curve" smooth="yes"/>
      <point x="176" y="506"/>
      <point x="63" y="450"/>
      <point x="63" y="370" type="curve" smooth="yes"/>
      <point x="63" y="301"/>
      <point x="141" y="245"/>
      <point x="188" y="217" type="curve" smooth="yes"/>
      <point x="241" y="186"/>
      <point x="277" y="149"/>
      <point x="277" y="113" type="curve" smooth="yes"/>
      <point x="277" y="74"/>
      <point x="262" y="38"/>
      <point x="212" y="38" type="curve" smooth="yes"/>
      <point x="143" y="38"/>
      <point x="134" y="101"/>
      <point x="129" y="139" type="curve" smooth="yes"/>
      <point x="128" y="147"/>
      <point x="126" y="162"/>
      <point x="113" y="162" type="curve" smooth="yes"/>
      <point x="85" y="162"/>
      <point x="36" y="104"/>
      <point x="36" y="83" type="curve" smooth="yes"/>
      <point x="36" y="49"/>
      <point x="99" y="-10"/>
    </contour>
  </outline>
</glyph>
<glyph name="t" format="1">
  <advance width="400"/>
  <unicode hex="0074"/>
  <outline>
    <contour>
      <point x="279" y="-10" type="curve" smooth="yes"/>
      <point x="321" y="-10"/>
      <point x="355" y="-1"/>
      <point x="381" y="10" type="curve"/>
      <point x="374" y="47" type="line"/>
      <point x="365" y="43"/>
      <point x="355" y="41"/>
      <point x="346" y="41" type="curve" smooth="yes"/>
      <point x="322" y="41"/>
      <point x="294" y="46"/>
      <point x="282" y="77" type="curve" smooth="yes"/>
      <point x="273" y="99"/>
      <point x="273" y="128"/>
      <point x="273" y="164" type="curve"/>
      <point x="273" y="463" type="line"/>
      <point x="277" y="464"/>
      <point x="282" y="464"/>
      <point x="287" y="464" type="curve" smooth="yes"/>
      <point x="323" y="464"/>
      <point x="339" y="464"/>
      <point x="369" y="463" type="curve"/>
      <point x="371" y="466"/>
      <point x="375" y="480"/>
      <point x="375" y="486" type="curve" smooth="yes"/>
      <point x="375" y="499"/>
      <point x="364" y="511"/>
      <point x="345" y="511" type="curve"/>
      <point x="273" y="511" type="line"/>
      <point x="273" y="529"/>
      <point x="273" y="546"/>
      <point x="273" y="564" type="curve" smooth="yes"/>
      <point x="273" y="579"/>
      <point x="261" y="592"/>
      <point x="246" y="592" type="curve" smooth="yes"/>
      <point x="233" y="592"/>
      <point x="220" y="581"/>
      <point x="216" y="577" type="curve" smooth="yes"/>
      <point x="194" y="557"/>
      <point x="158" y="542"/>
      <point x="124" y="529" type="curve" smooth="yes"/>
      <point x="101" y="520"/>
      <point x="82" y="512"/>
      <point x="66" y="503" type="curve" smooth="yes"/>
      <point x="50" y="494"/>
      <point x="36" y="484"/>
      <point x="36" y="478" type="curve" smooth="yes"/>
      <point x="36" y="468"/>
      <point x="40" y="462"/>
      <point x="46" y="462" type="curve" smooth="yes"/>
      <point x="53" y="462"/>
      <point x="91" y="461"/>
      <point x="95" y="460" type="curve" smooth="yes"/>
      <point x="104" y="458"/>
      <point x="109" y="455"/>
      <point x="109" y="439" type="curve"/>
      <point x="109" y="169" type="line"/>
      <point x="109" y="112"/>
      <point x="111" y="55"/>
      <point x="142" y="24" type="curve" smooth="yes"/>
      <point x="166" y="0"/>
      <point x="209" y="-10"/>
    </contour>
    <contour>
      <point x="199" y="-6" type="move" name="bottom"/>
    </contour>
    <contour>
      <point x="184" y="591" type="move" name="top"/>
    </contour>
  </outline>
</glyph>
<glyph name="u" format="1">
  <advance width="640"/>
  <unicode hex="0075"/>
  <outline>
    <contour>
      <point x="287" y="-10" type="curve" smooth="yes"/>
      <point x="351" y="-10"/>
      <point x="369" y="-6"/>
      <point x="415" y="23" type="curve"/>
      <point x="415" y="13"/>
      <point x="463" y="-8"/>
      <point x="493" y="-8" type="curve" smooth="yes"/>
      <point x="543" y="-8"/>
      <point x="574" y="7"/>
      <point x="602" y="21" type="curve"/>
      <point x="595" y="63" type="line"/>
      <point x="584" y="60"/>
      <point x="570" y="57"/>
      <point x="559" y="55" type="curve"/>
      <point x="559" y="486" type="line"/>
      <point x="559" y="497"/>
      <point x="559" y="510"/>
      <point x="546" y="510" type="curve" smooth="yes"/>
      <point x="545" y="510"/>
      <point x="540" y="509"/>
      <point x="499" y="500" type="curve"/>
      <point x="362" y="471" type="line"/>
      <point x="362" y="441" type="line"/>
      <point x="368" y="441" type="line"/>
      <point x="382" y="441"/>
      <point x="395" y="426"/>
      <point x="395" y="406" type="curve"/>
      <point x="395" y="78" type="line"/>
      <point x="362" y="50"/>
      <point x="330" y="39"/>
      <point x="302" y="39" type="curve" smooth="yes"/>
      <point x="247" y="39"/>
      <point x="233" y="90"/>
      <point x="233" y="156" type="curve"/>
      <point x="233" y="485" type="line"/>
      <point x="233" y="496"/>
      <point x="232" y="509"/>
      <point x="219" y="509" type="curve" smooth="yes"/>
      <point x="217" y="509"/>
      <point x="212" y="508"/>
      <point x="170" y="499" type="curve"/>
      <point x="35" y="470" type="line"/>
      <point x="35" y="441" type="line"/>
      <point x="42" y="441" type="line"/>
      <point x="59" y="441"/>
      <point x="69" y="426"/>
      <point x="69" y="406" type="curve"/>
      <point x="69" y="141" type="line"/>
      <point x="69" y="40"/>
      <point x="166" y="-10"/>
    </contour>
    <contour>
      <point x="275" y="-10" type="move" name="bottom"/>
    </contour>
    <contour>
      <point x="286" y="508" type="move" name="top"/>
    </contour>
  </outline>
</glyph>
<glyph name="v" format="1">
  <advance width="624"/>
  <unicode hex="0076"/>
  <outline>
    <contour>
      <point x="281" y="-9" type="curve" smooth="yes"/>
      <point x="292" y="-9"/>
      <point x="304" y="-4"/>
      <point x="308" y="4" type="curve" smooth="yes"/>
      <point x="313" y="14"/>
      <point x="399" y="179"/>
      <point x="470" y="310" type="curve" smooth="yes"/>
      <point x="520" y="403"/>
      <point x="544" y="448"/>
      <point x="545" y="451" type="curve" smooth="yes"/>
      <point x="550" y="461"/>
      <point x="558" y="477"/>
      <point x="573" y="478" type="curve"/>
      <point x="580" y="478" type="line"/>
      <point x="580" y="507" type="line"/>
      <point x="421" y="507" type="line"/>
      <point x="421" y="478" type="line"/>
      <point x="428" y="478" type="line"/>
      <point x="443" y="478"/>
      <point x="452" y="463"/>
      <point x="452" y="456" type="curve" smooth="yes"/>
      <point x="452" y="450"/>
      <point x="451" y="447"/>
      <point x="450" y="444" type="curve" smooth="yes"/>
      <point x="444" y="430"/>
      <point x="426" y="393"/>
      <point x="398" y="339" type="curve" smooth="yes"/>
      <point x="364" y="273"/>
      <point x="352" y="253"/>
      <point x="331" y="218" type="curve"/>
      <point x="317" y="253"/>
      <point x="309" y="273"/>
      <point x="285" y="338" type="curve" smooth="yes"/>
      <point x="263" y="397"/>
      <point x="252" y="432"/>
      <point x="249" y="442" type="curve" smooth="yes"/>
      <point x="247" y="447"/>
      <point x="246" y="453"/>
      <point x="246" y="456" type="curve" smooth="yes"/>
      <point x="246" y="464"/>
      <point x="251" y="478"/>
      <point x="267" y="478" type="curve"/>
      <point x="274" y="478" type="line"/>
      <point x="274" y="507" type="line"/>
      <point x="38" y="507" type="line"/>
      <point x="38" y="478" type="line"/>
      <point x="54" y="478"/>
      <point x="63" y="461"/>
      <point x="70" y="447" type="curve" smooth="yes"/>
      <point x="82" y="423"/>
      <point x="108" y="363"/>
      <point x="136" y="292" type="curve" smooth="yes"/>
      <point x="155" y="244"/>
      <point x="177" y="189"/>
      <point x="198" y="142" type="curve" smooth="yes"/>
      <point x="216" y="102"/>
      <point x="231" y="66"/>
      <point x="241" y="40" type="curve" smooth="yes"/>
      <point x="245" y="30"/>
      <point x="251" y="16"/>
      <point x="257" y="4" type="curve" smooth="yes"/>
      <point x="261" y="-5"/>
      <point x="271" y="-9"/>
    </contour>
    <contour>
      <point x="283" y="-14" type="move" name="bottom"/>
    </contour>
  </outline>
</glyph>
<glyph name="w" format="1">
  <advance width="828"/>
  <unicode hex="0077"/>
  <outline>
    <contour>
      <point x="252" y="-11" type="curve" smooth="yes"/>
      <point x="263" y="-11"/>
      <point x="273" y="-5"/>
      <point x="276" y="4" type="curve" smooth="yes"/>
      <point x="284" y="29"/>
      <point x="325" y="121"/>
      <point x="361" y="199" type="curve" smooth="yes"/>
      <point x="387" y="255"/>
      <point x="407" y="302"/>
      <point x="412" y="316" type="curve"/>
      <point x="419" y="300"/>
      <point x="456" y="211"/>
      <point x="462" y="195" type="curve" smooth="yes"/>
      <point x="491" y="119"/>
      <point x="513" y="61"/>
      <point x="532" y="6" type="curve" smooth="yes"/>
      <point x="535" y="-3"/>
      <point x="549" y="-10"/>
      <point x="557" y="-10" type="curve" smooth="yes"/>
      <point x="564" y="-10"/>
      <point x="577" y="-3"/>
      <point x="581" y="4" type="curve" smooth="yes"/>
      <point x="586" y="14"/>
      <point x="653" y="170"/>
      <point x="704" y="300" type="curve" smooth="yes"/>
      <point x="741" y="394"/>
      <point x="765" y="451"/>
      <point x="766" y="453" type="curve" smooth="yes"/>
      <point x="771" y="466"/>
      <point x="783" y="481"/>
      <point x="798" y="481" type="curve"/>
      <point x="798" y="506" type="line"/>
      <point x="662" y="506" type="line"/>
      <point x="662" y="481" type="line"/>
      <point x="666" y="481" type="line"/>
      <point x="682" y="480"/>
      <point x="689" y="474"/>
      <point x="689" y="462" type="curve" smooth="yes"/>
      <point x="689" y="457"/>
      <point x="688" y="450"/>
      <point x="686" y="444" type="curve" smooth="yes"/>
      <point x="684" y="437"/>
      <point x="674" y="411"/>
      <point x="652" y="364" type="curve" smooth="yes"/>
      <point x="621" y="298"/>
      <point x="608" y="271"/>
      <point x="591" y="237" type="curve"/>
      <point x="579" y="268"/>
      <point x="574" y="281"/>
      <point x="555" y="332" type="curve" smooth="yes"/>
      <point x="533" y="390"/>
      <point x="521" y="428"/>
      <point x="515" y="449" type="curve" smooth="yes"/>
      <point x="514" y="454"/>
      <point x="513" y="460"/>
      <point x="513" y="464" type="curve" smooth="yes"/>
      <point x="513" y="474"/>
      <point x="521" y="480"/>
      <point x="535" y="480" type="curve"/>
      <point x="542" y="480" type="line"/>
      <point x="542" y="506" type="line"/>
      <point x="318" y="506" type="line"/>
      <point x="318" y="480" type="line"/>
      <point x="340" y="480"/>
      <point x="352" y="471"/>
      <point x="358" y="459" type="curve" smooth="yes"/>
      <point x="361" y="454"/>
      <point x="364" y="446"/>
      <point x="374" y="409" type="curve"/>
      <point x="366" y="386"/>
      <point x="352" y="352"/>
      <point x="339" y="322" type="curve" smooth="yes"/>
      <point x="330" y="301"/>
      <point x="319" y="277"/>
      <point x="302" y="241" type="curve"/>
      <point x="290" y="271"/>
      <point x="284" y="286"/>
      <point x="268" y="327" type="curve" smooth="yes"/>
      <point x="245" y="385"/>
      <point x="233" y="419"/>
      <point x="225" y="442" type="curve" smooth="yes"/>
      <point x="222" y="450"/>
      <point x="222" y="453"/>
      <point x="222" y="458" type="curve" smooth="yes"/>
      <point x="222" y="466"/>
      <point x="225" y="480"/>
      <point x="240" y="480" type="curve" smooth="yes"/>
      <point x="247" y="480" type="line"/>
      <point x="247" y="506" type="line"/>
      <point x="27" y="506" type="line"/>
      <point x="27" y="481" type="line"/>
      <point x="45" y="481"/>
      <point x="53" y="464"/>
      <point x="58" y="452" type="curve" smooth="yes"/>
      <point x="69" y="427"/>
      <point x="88" y="378"/>
      <point x="124" y="282" type="curve" smooth="yes"/>
      <point x="148" y="217"/>
      <point x="166" y="166"/>
      <point x="180" y="126" type="curve" smooth="yes"/>
      <point x="200" y="69"/>
      <point x="213" y="33"/>
      <point x="226" y="6" type="curve" smooth="yes"/>
      <point x="229" y="-1"/>
      <point x="239" y="-11"/>
    </contour>
    <contour>
      <point x="410" y="3" type="move" name="bottom"/>
    </contour>
    <contour>
      <point x="416" y="510" type="move" name="top"/>
    </contour>
  </outline>
</glyph>
<glyph name="x" format="1">
  <advance width="650"/>
  <unicode hex="0078"/>
  <outline>
    <contour>
      <point x="571" y="50" type="curve"/>
      <point x="574" y="47" type="line"/>
      <point x="579" y="41"/>
      <point x="587" y="33"/>
      <point x="595" y="33" type="curve"/>
      <point x="603" y="33" type="line"/>
      <point x="603" y="0" type="line"/>
      <point x="362" y="0" type="line"/>
      <point x="362" y="33" type="line"/>
      <point x="369" y="33" type="line"/>
      <point x="382" y="33"/>
      <point x="392" y="40"/>
      <point x="392" y="48" type="curve" smooth="yes"/>
      <point x="392" y="55"/>
      <point x="386" y="65"/>
      <point x="385" y="66" type="curve" smooth="yes"/>
      <point x="368" y="89"/>
      <point x="331" y="141"/>
      <point x="292" y="197" type="curve"/>
      <point x="244" y="138"/>
      <point x="202" y="83"/>
      <point x="192" y="69" type="curve" smooth="yes"/>
      <point x="190" y="67"/>
      <point x="183" y="58"/>
      <point x="183" y="49" type="curve" smooth="yes"/>
      <point x="183" y="39"/>
      <point x="198" y="33"/>
      <point x="206" y="33" type="curve"/>
      <point x="213" y="33" type="line"/>
      <point x="213" y="0" type="line"/>
      <point x="44" y="0" type="line"/>
      <point x="44" y="33" type="line"/>
      <point x="51" y="33" type="line"/>
      <point x="62" y="33"/>
      <point x="74" y="45"/>
      <point x="77" y="49" type="curve" smooth="yes"/>
      <point x="81" y="55"/>
      <point x="172" y="175"/>
      <point x="246" y="260" type="curve"/>
      <point x="189" y="338"/>
      <point x="107" y="451"/>
      <point x="105" y="454" type="curve" smooth="yes"/>
      <point x="99" y="462"/>
      <point x="89" y="474"/>
      <point x="77" y="474" type="curve" smooth="yes"/>
      <point x="70" y="474" type="line"/>
      <point x="70" y="507" type="line"/>
      <point x="311" y="507" type="line"/>
      <point x="311" y="473" type="line"/>
      <point x="303" y="473" type="line" smooth="yes"/>
      <point x="290" y="473"/>
      <point x="287" y="462"/>
      <point x="287" y="457" type="curve" smooth="yes"/>
      <point x="287" y="453"/>
      <point x="291" y="446"/>
      <point x="296" y="439" type="curve" smooth="yes"/>
      <point x="303" y="428"/>
      <point x="320" y="403"/>
      <point x="356" y="353" type="curve"/>
      <point x="422" y="434"/>
      <point x="425" y="438"/>
      <point x="426" y="440" type="curve" smooth="yes"/>
      <point x="429" y="446"/>
      <point x="432" y="453"/>
      <point x="432" y="457" type="curve" smooth="yes"/>
      <point x="432" y="464"/>
      <point x="423" y="473"/>
      <point x="408" y="473" type="curve" smooth="yes"/>
      <point x="401" y="473" type="line"/>
      <point x="401" y="507" type="line"/>
      <point x="565" y="507" type="line"/>
      <point x="565" y="474" type="line"/>
      <point x="559" y="474" type="line" smooth="yes"/>
      <point x="548" y="474"/>
      <point x="541" y="465"/>
      <point x="536" y="458" type="curve"/>
      <point x="532" y="452" type="line"/>
      <point x="531" y="450"/>
      <point x="469" y="372"/>
      <point x="401" y="289" type="curve"/>
      <point x="422" y="260"/>
      <point x="444" y="227"/>
      <point x="466" y="194" type="curve" smooth="yes"/>
      <point x="507" y="134"/>
      <point x="546" y="77"/>
    </contour>
    <contour>
      <point x="349" y="507" type="move" name="top"/>
    </contour>
  </outline>
</glyph>
<glyph name="y" format="1">
  <advance width="635"/>
  <unicode hex="0079"/>
  <outline>
    <contour>
      <point x="390" y="59" type="curve" smooth="yes"/>
      <point x="373" y="20"/>
      <point x="338" y="-31"/>
      <point x="324" y="-50" type="curve" smooth="yes"/>
      <point x="298" y="-86"/>
      <point x="188" y="-231"/>
      <point x="123" y="-231" type="curve" smooth="yes"/>
      <point x="86" y="-231"/>
      <point x="66" y="-200"/>
      <point x="66" y="-173" type="curve" smooth="yes"/>
      <point x="66" y="-142"/>
      <point x="87" y="-129"/>
      <point x="129" y="-117" type="curve" smooth="yes"/>
      <point x="148" y="-112"/>
      <point x="170" y="-106"/>
      <point x="189" y="-80" type="curve" smooth="yes"/>
      <point x="202" y="-62"/>
      <point x="230" y="-6"/>
      <point x="237" y="14" type="curve"/>
      <point x="235" y="22"/>
      <point x="228" y="43"/>
      <point x="227" y="46" type="curve" smooth="yes"/>
      <point x="208" y="92"/>
      <point x="171" y="186"/>
      <point x="140" y="271" type="curve" smooth="yes"/>
      <point x="105" y="368"/>
      <point x="71" y="443"/>
      <point x="66" y="453" type="curve"/>
      <point x="64" y="457" type="line"/>
      <point x="60" y="465"/>
      <point x="53" y="476"/>
      <point x="36" y="476" type="curve"/>
      <point x="36" y="507" type="line"/>
      <point x="283" y="507" type="line"/>
      <point x="283" y="474" type="line"/>
      <point x="277" y="474" type="line" smooth="yes"/>
      <point x="266" y="474"/>
      <point x="253" y="466"/>
      <point x="253" y="458" type="curve" smooth="yes"/>
      <point x="253" y="456"/>
      <point x="254" y="450"/>
      <point x="256" y="445" type="curve" smooth="yes"/>
      <point x="268" y="415"/>
      <point x="293" y="353"/>
      <point x="317" y="294" type="curve" smooth="yes"/>
      <point x="333" y="255"/>
      <point x="342" y="234"/>
      <point x="351" y="216" type="curve" smooth="yes"/>
      <point x="357" y="205"/>
      <point x="362" y="194"/>
      <point x="367" y="181" type="curve"/>
      <point x="374" y="199"/>
      <point x="378" y="207"/>
      <point x="387" y="223" type="curve" smooth="yes"/>
      <point x="395" y="238"/>
      <point x="404" y="257"/>
      <point x="420" y="294" type="curve" smooth="yes"/>
      <point x="444" y="349"/>
      <point x="466" y="403"/>
      <point x="475" y="428" type="curve" smooth="yes"/>
      <point x="477" y="433"/>
      <point x="479" y="444"/>
      <point x="479" y="448" type="curve" smooth="yes"/>
      <point x="479" y="456"/>
      <point x="469" y="475"/>
      <point x="449" y="475" type="curve"/>
      <point x="441" y="475" type="line"/>
      <point x="441" y="507" type="line"/>
      <point x="605" y="507" type="line"/>
      <point x="605" y="475" type="line"/>
      <point x="595" y="475" type="line"/>
      <point x="582" y="474"/>
      <point x="573" y="457"/>
      <point x="570" y="448" type="curve" smooth="yes"/>
      <point x="569" y="446"/>
      <point x="539" y="383"/>
      <point x="500" y="290" type="curve" smooth="yes"/>
      <point x="481" y="244"/>
      <point x="456" y="194"/>
      <point x="434" y="151" type="curve" smooth="yes"/>
      <point x="417" y="117"/>
      <point x="401" y="85"/>
    </contour>
  </outline>
</glyph>
